<svg xmlns="http://www.w3.org/2000/svg" xmlns:xlink="http://www.w3.org/1999/xlink" width="1366" zoomAndPan="magnify" viewBox="0 0 1024.5 576" height="768" preserveAspectRatio="xMidYMid meet" version="1.0"><defs><filter x="0%" y="0%" width="100%" height="100%" id="8eab4e0e38"><feColorMatrix values="0 0 0 0 1 0 0 0 0 1 0 0 0 0 1 0 0 0 1 0" color-interpolation-filters="sRGB"/></filter><clipPath id="af89debd9a"><path d="M 0 0.140625 L 1024 0.140625 L 1024 575.859375 L 0 575.859375 Z M 0 0.140625 " clip-rule="nonzero"/></clipPath><clipPath id="bdea777545"><path d="M 282.183594 430.5625 L 358.789062 430.5625 L 358.789062 507.167969 L 282.183594 507.167969 Z M 282.183594 430.5625 " clip-rule="nonzero"/></clipPath><clipPath id="48793b6947"><path d="M 320.484375 430.5625 C 299.332031 430.5625 282.183594 447.710938 282.183594 468.867188 C 282.183594 490.019531 299.332031 507.167969 320.484375 507.167969 C 341.640625 507.167969 358.789062 490.019531 358.789062 468.867188 C 358.789062 447.710938 341.640625 430.5625 320.484375 430.5625 Z M 320.484375 430.5625 " clip-rule="nonzero"/></clipPath><clipPath id="f550baf6d0"><path d="M 0.183594 0.5625 L 76.789062 0.5625 L 76.789062 77.167969 L 0.183594 77.167969 Z M 0.183594 0.5625 " clip-rule="nonzero"/></clipPath><clipPath id="465e528158"><path d="M 38.484375 0.5625 C 17.332031 0.5625 0.183594 17.710938 0.183594 38.867188 C 0.183594 60.019531 17.332031 77.167969 38.484375 77.167969 C 59.640625 77.167969 76.789062 60.019531 76.789062 38.867188 C 76.789062 17.710938 59.640625 0.5625 38.484375 0.5625 Z M 38.484375 0.5625 " clip-rule="nonzero"/></clipPath><clipPath id="2a50d23c2a"><rect x="0" width="77" y="0" height="78"/></clipPath><clipPath id="d0cff3a529"><path d="M 282.183594 430.5625 L 358.644531 430.5625 L 358.644531 507.027344 L 282.183594 507.027344 Z M 282.183594 430.5625 " clip-rule="nonzero"/></clipPath><clipPath id="98324ddaf9"><path d="M 320.484375 430.5625 C 299.332031 430.5625 282.183594 447.710938 282.183594 468.867188 C 282.183594 490.019531 299.332031 507.167969 320.484375 507.167969 C 341.636719 507.167969 358.785156 490.019531 358.785156 468.867188 C 358.785156 447.710938 341.636719 430.5625 320.484375 430.5625 Z M 320.484375 430.5625 " clip-rule="nonzero"/></clipPath><clipPath id="66ada3ad47"><path d="M 358.789062 430.5625 L 435.394531 430.5625 L 435.394531 507.167969 L 358.789062 507.167969 Z M 358.789062 430.5625 " clip-rule="nonzero"/></clipPath><clipPath id="4aab34264d"><path d="M 397.089844 430.5625 C 375.9375 430.5625 358.789062 447.710938 358.789062 468.867188 C 358.789062 490.019531 375.9375 507.167969 397.089844 507.167969 C 418.246094 507.167969 435.394531 490.019531 435.394531 468.867188 C 435.394531 447.710938 418.246094 430.5625 397.089844 430.5625 Z M 397.089844 430.5625 " clip-rule="nonzero"/></clipPath><clipPath id="5b0e28e100"><path d="M 0.789062 0.5625 L 77.394531 0.5625 L 77.394531 77.167969 L 0.789062 77.167969 Z M 0.789062 0.5625 " clip-rule="nonzero"/></clipPath><clipPath id="98897a4ee3"><path d="M 39.089844 0.5625 C 17.9375 0.5625 0.789062 17.710938 0.789062 38.867188 C 0.789062 60.019531 17.9375 77.167969 39.089844 77.167969 C 60.246094 77.167969 77.394531 60.019531 77.394531 38.867188 C 77.394531 17.710938 60.246094 0.5625 39.089844 0.5625 Z M 39.089844 0.5625 " clip-rule="nonzero"/></clipPath><clipPath id="31989721a5"><rect x="0" width="78" y="0" height="78"/></clipPath><clipPath id="9282ae6108"><path d="M 358.789062 430.5625 L 435.25 430.5625 L 435.25 507.027344 L 358.789062 507.027344 Z M 358.789062 430.5625 " clip-rule="nonzero"/></clipPath><clipPath id="cb9bec52c0"><path d="M 397.089844 430.5625 C 375.9375 430.5625 358.789062 447.710938 358.789062 468.867188 C 358.789062 490.019531 375.9375 507.167969 397.089844 507.167969 C 418.242188 507.167969 435.390625 490.019531 435.390625 468.867188 C 435.390625 447.710938 418.242188 430.5625 397.089844 430.5625 Z M 397.089844 430.5625 " clip-rule="nonzero"/></clipPath><clipPath id="b806437f7b"><path d="M 435.394531 430.5625 L 512 430.5625 L 512 507.167969 L 435.394531 507.167969 Z M 435.394531 430.5625 " clip-rule="nonzero"/></clipPath><clipPath id="fc3bf5db50"><path d="M 473.695312 430.5625 C 452.542969 430.5625 435.394531 447.710938 435.394531 468.867188 C 435.394531 490.019531 452.542969 507.167969 473.695312 507.167969 C 494.851562 507.167969 512 490.019531 512 468.867188 C 512 447.710938 494.851562 430.5625 473.695312 430.5625 Z M 473.695312 430.5625 " clip-rule="nonzero"/></clipPath><clipPath id="a8a1e94013"><path d="M 0.394531 0.5625 L 77 0.5625 L 77 77.167969 L 0.394531 77.167969 Z M 0.394531 0.5625 " clip-rule="nonzero"/></clipPath><clipPath id="1e2469dc5c"><path d="M 38.695312 0.5625 C 17.542969 0.5625 0.394531 17.710938 0.394531 38.867188 C 0.394531 60.019531 17.542969 77.167969 38.695312 77.167969 C 59.851562 77.167969 77 60.019531 77 38.867188 C 77 17.710938 59.851562 0.5625 38.695312 0.5625 Z M 38.695312 0.5625 " clip-rule="nonzero"/></clipPath><clipPath id="a6b0ef7f6c"><rect x="0" width="77" y="0" height="78"/></clipPath><clipPath id="8771d5fde6"><path d="M 435.394531 430.5625 L 511.855469 430.5625 L 511.855469 507.027344 L 435.394531 507.027344 Z M 435.394531 430.5625 " clip-rule="nonzero"/></clipPath><clipPath id="0c2b38adc0"><path d="M 473.695312 430.5625 C 452.542969 430.5625 435.394531 447.710938 435.394531 468.867188 C 435.394531 490.019531 452.542969 507.167969 473.695312 507.167969 C 494.847656 507.167969 511.996094 490.019531 511.996094 468.867188 C 511.996094 447.710938 494.847656 430.5625 473.695312 430.5625 Z M 473.695312 430.5625 " clip-rule="nonzero"/></clipPath><clipPath id="806e13cb03"><path d="M 512 430.5625 L 588.605469 430.5625 L 588.605469 507.167969 L 512 507.167969 Z M 512 430.5625 " clip-rule="nonzero"/></clipPath><clipPath id="b99045432e"><path d="M 550.304688 430.5625 C 529.148438 430.5625 512 447.710938 512 468.867188 C 512 490.019531 529.148438 507.167969 550.304688 507.167969 C 571.457031 507.167969 588.605469 490.019531 588.605469 468.867188 C 588.605469 447.710938 571.457031 430.5625 550.304688 430.5625 Z M 550.304688 430.5625 " clip-rule="nonzero"/></clipPath><clipPath id="eeb0524c0f"><path d="M 0 0.5625 L 76.605469 0.5625 L 76.605469 77.167969 L 0 77.167969 Z M 0 0.5625 " clip-rule="nonzero"/></clipPath><clipPath id="690f10568f"><path d="M 38.304688 0.5625 C 17.148438 0.5625 0 17.710938 0 38.867188 C 0 60.019531 17.148438 77.167969 38.304688 77.167969 C 59.457031 77.167969 76.605469 60.019531 76.605469 38.867188 C 76.605469 17.710938 59.457031 0.5625 38.304688 0.5625 Z M 38.304688 0.5625 " clip-rule="nonzero"/></clipPath><clipPath id="260eea5589"><rect x="0" width="77" y="0" height="78"/></clipPath><clipPath id="c65efeb36c"><path d="M 512 430.5625 L 588.460938 430.5625 L 588.460938 507.027344 L 512 507.027344 Z M 512 430.5625 " clip-rule="nonzero"/></clipPath><clipPath id="2ba01fbb2b"><path d="M 550.300781 430.5625 C 529.148438 430.5625 512 447.710938 512 468.867188 C 512 490.019531 529.148438 507.167969 550.300781 507.167969 C 571.457031 507.167969 588.601562 490.019531 588.601562 468.867188 C 588.601562 447.710938 571.457031 430.5625 550.300781 430.5625 Z M 550.300781 430.5625 " clip-rule="nonzero"/></clipPath><clipPath id="723f50c00e"><path d="M 588.605469 430.5625 L 665.210938 430.5625 L 665.210938 507.167969 L 588.605469 507.167969 Z M 588.605469 430.5625 " clip-rule="nonzero"/></clipPath><clipPath id="53243f23d3"><path d="M 626.910156 430.5625 C 605.753906 430.5625 588.605469 447.710938 588.605469 468.867188 C 588.605469 490.019531 605.753906 507.167969 626.910156 507.167969 C 648.0625 507.167969 665.210938 490.019531 665.210938 468.867188 C 665.210938 447.710938 648.0625 430.5625 626.910156 430.5625 Z M 626.910156 430.5625 " clip-rule="nonzero"/></clipPath><clipPath id="cf6e62d714"><path d="M 0.605469 0.5625 L 77.210938 0.5625 L 77.210938 77.167969 L 0.605469 77.167969 Z M 0.605469 0.5625 " clip-rule="nonzero"/></clipPath><clipPath id="005e17d231"><path d="M 38.910156 0.5625 C 17.753906 0.5625 0.605469 17.710938 0.605469 38.867188 C 0.605469 60.019531 17.753906 77.167969 38.910156 77.167969 C 60.0625 77.167969 77.210938 60.019531 77.210938 38.867188 C 77.210938 17.710938 60.0625 0.5625 38.910156 0.5625 Z M 38.910156 0.5625 " clip-rule="nonzero"/></clipPath><clipPath id="abda409384"><rect x="0" width="78" y="0" height="78"/></clipPath><clipPath id="5a3c39626b"><path d="M 588.605469 430.5625 L 665.070312 430.5625 L 665.070312 507.027344 L 588.605469 507.027344 Z M 588.605469 430.5625 " clip-rule="nonzero"/></clipPath><clipPath id="c46967b3d5"><path d="M 626.90625 430.5625 C 605.753906 430.5625 588.605469 447.710938 588.605469 468.867188 C 588.605469 490.019531 605.753906 507.167969 626.90625 507.167969 C 648.0625 507.167969 665.210938 490.019531 665.210938 468.867188 C 665.210938 447.710938 648.0625 430.5625 626.90625 430.5625 Z M 626.90625 430.5625 " clip-rule="nonzero"/></clipPath><clipPath id="ad9cb84fee"><path d="M 665.210938 430.5625 L 741.816406 430.5625 L 741.816406 507.167969 L 665.210938 507.167969 Z M 665.210938 430.5625 " clip-rule="nonzero"/></clipPath><clipPath id="dad67ffb6e"><path d="M 703.515625 430.5625 C 682.359375 430.5625 665.210938 447.710938 665.210938 468.867188 C 665.210938 490.019531 682.359375 507.167969 703.515625 507.167969 C 724.667969 507.167969 741.816406 490.019531 741.816406 468.867188 C 741.816406 447.710938 724.667969 430.5625 703.515625 430.5625 Z M 703.515625 430.5625 " clip-rule="nonzero"/></clipPath><clipPath id="4b473ef214"><path d="M 0.210938 0.5625 L 76.816406 0.5625 L 76.816406 77.167969 L 0.210938 77.167969 Z M 0.210938 0.5625 " clip-rule="nonzero"/></clipPath><clipPath id="dd8885a068"><path d="M 38.515625 0.5625 C 17.359375 0.5625 0.210938 17.710938 0.210938 38.867188 C 0.210938 60.019531 17.359375 77.167969 38.515625 77.167969 C 59.667969 77.167969 76.816406 60.019531 76.816406 38.867188 C 76.816406 17.710938 59.667969 0.5625 38.515625 0.5625 Z M 38.515625 0.5625 " clip-rule="nonzero"/></clipPath><clipPath id="b6a2b8b277"><rect x="0" width="77" y="0" height="78"/></clipPath><clipPath id="c3e86cf5fc"><path d="M 665.210938 430.5625 L 741.675781 430.5625 L 741.675781 507.027344 L 665.210938 507.027344 Z M 665.210938 430.5625 " clip-rule="nonzero"/></clipPath><clipPath id="1c0a0bb4a3"><path d="M 703.511719 430.5625 C 682.359375 430.5625 665.210938 447.710938 665.210938 468.867188 C 665.210938 490.019531 682.359375 507.167969 703.511719 507.167969 C 724.667969 507.167969 741.816406 490.019531 741.816406 468.867188 C 741.816406 447.710938 724.667969 430.5625 703.511719 430.5625 Z M 703.511719 430.5625 " clip-rule="nonzero"/></clipPath><mask id="c3199b2561"><g filter="url(#8eab4e0e38)"><rect x="-102.45" width="1229.4" fill="#000000" y="-57.6" height="691.2" fill-opacity="0.2"/></g></mask><clipPath id="24e714c678"><path d="M 0.96875 0.863281 L 57.273438 0.863281 L 57.273438 57.167969 L 0.96875 57.167969 Z M 0.96875 0.863281 " clip-rule="nonzero"/></clipPath><clipPath id="b1de95fe78"><path d="M 29.121094 0.863281 C 13.570312 0.863281 0.96875 13.46875 0.96875 29.015625 C 0.96875 44.566406 13.570312 57.167969 29.121094 57.167969 C 44.667969 57.167969 57.273438 44.566406 57.273438 29.015625 C 57.273438 13.46875 44.667969 0.863281 29.121094 0.863281 Z M 29.121094 0.863281 " clip-rule="nonzero"/></clipPath><clipPath id="db332fee5a"><path d="M 0.96875 0.863281 L 57.273438 0.863281 L 57.273438 57.167969 L 0.96875 57.167969 Z M 0.96875 0.863281 " clip-rule="nonzero"/></clipPath><clipPath id="c52d6ac0b7"><path d="M 29.121094 0.863281 C 13.570312 0.863281 0.96875 13.46875 0.96875 29.015625 C 0.96875 44.566406 13.570312 57.167969 29.121094 57.167969 C 44.667969 57.167969 57.273438 44.566406 57.273438 29.015625 C 57.273438 13.46875 44.667969 0.863281 29.121094 0.863281 Z M 29.121094 0.863281 " clip-rule="nonzero"/></clipPath><clipPath id="b7ac3cd53a"><rect x="0" width="58" y="0" height="58"/></clipPath><clipPath id="f467006be0"><rect x="0" width="58" y="0" height="58"/></clipPath><mask id="d1998c75c5"><g filter="url(#8eab4e0e38)"><rect x="-102.45" width="1229.4" fill="#000000" y="-57.6" height="691.2" fill-opacity="0.15"/></g></mask><clipPath id="7e3279509e"><path d="M 0.410156 0.972656 L 32.804688 0.972656 L 32.804688 33.363281 L 0.410156 33.363281 Z M 0.410156 0.972656 " clip-rule="nonzero"/></clipPath><clipPath id="69e1082d35"><path d="M 16.609375 0.972656 C 7.664062 0.972656 0.410156 8.222656 0.410156 17.167969 C 0.410156 26.113281 7.664062 33.363281 16.609375 33.363281 C 25.550781 33.363281 32.804688 26.113281 32.804688 17.167969 C 32.804688 8.222656 25.550781 0.972656 16.609375 0.972656 Z M 16.609375 0.972656 " clip-rule="nonzero"/></clipPath><clipPath id="fecf451254"><path d="M 0.410156 0.972656 L 32.804688 0.972656 L 32.804688 33.363281 L 0.410156 33.363281 Z M 0.410156 0.972656 " clip-rule="nonzero"/></clipPath><clipPath id="1b0ce2323d"><path d="M 16.609375 0.972656 C 7.664062 0.972656 0.410156 8.222656 0.410156 17.167969 C 0.410156 26.113281 7.664062 33.363281 16.609375 33.363281 C 25.550781 33.363281 32.804688 26.113281 32.804688 17.167969 C 32.804688 8.222656 25.550781 0.972656 16.609375 0.972656 Z M 16.609375 0.972656 " clip-rule="nonzero"/></clipPath><clipPath id="5da27fbea6"><rect x="0" width="33" y="0" height="34"/></clipPath><clipPath id="6860a859cc"><rect x="0" width="33" y="0" height="34"/></clipPath><mask id="6c4cc2bef5"><g filter="url(#8eab4e0e38)"><rect x="-102.45" width="1229.4" fill="#000000" y="-57.6" height="691.2" fill-opacity="0.15"/></g></mask><clipPath id="4a531431d0"><path d="M 0.945312 0.707031 L 19.121094 0.707031 L 19.121094 18.878906 L 0.945312 18.878906 Z M 0.945312 0.707031 " clip-rule="nonzero"/></clipPath><clipPath id="3d398f8435"><path d="M 10.035156 0.707031 C 5.015625 0.707031 0.945312 4.777344 0.945312 9.792969 C 0.945312 14.8125 5.015625 18.878906 10.035156 18.878906 C 15.050781 18.878906 19.121094 14.8125 19.121094 9.792969 C 19.121094 4.777344 15.050781 0.707031 10.035156 0.707031 Z M 10.035156 0.707031 " clip-rule="nonzero"/></clipPath><clipPath id="4bf8a4f4d6"><path d="M 0.945312 0.707031 L 19.121094 0.707031 L 19.121094 18.878906 L 0.945312 18.878906 Z M 0.945312 0.707031 " clip-rule="nonzero"/></clipPath><clipPath id="1511a99283"><path d="M 10.035156 0.707031 C 5.015625 0.707031 0.945312 4.777344 0.945312 9.792969 C 0.945312 14.8125 5.015625 18.878906 10.035156 18.878906 C 15.050781 18.878906 19.121094 14.8125 19.121094 9.792969 C 19.121094 4.777344 15.050781 0.707031 10.035156 0.707031 Z M 10.035156 0.707031 " clip-rule="nonzero"/></clipPath><clipPath id="a0d3299008"><rect x="0" width="20" y="0" height="19"/></clipPath><clipPath id="09862ba909"><rect x="0" width="20" y="0" height="19"/></clipPath><mask id="c6956f2dd4"><g filter="url(#8eab4e0e38)"><rect x="-102.45" width="1229.4" fill="#000000" y="-57.6" height="691.2" fill-opacity="0.2"/></g></mask><clipPath id="f677216e92"><path d="M 0.632812 1.113281 L 56.9375 1.113281 L 56.9375 57.421875 L 0.632812 57.421875 Z M 0.632812 1.113281 " clip-rule="nonzero"/></clipPath><clipPath id="688c90e42c"><path d="M 28.785156 1.113281 C 13.234375 1.113281 0.632812 13.71875 0.632812 29.269531 C 0.632812 44.816406 13.234375 57.421875 28.785156 57.421875 C 44.332031 57.421875 56.9375 44.816406 56.9375 29.269531 C 56.9375 13.71875 44.332031 1.113281 28.785156 1.113281 Z M 28.785156 1.113281 " clip-rule="nonzero"/></clipPath><clipPath id="365b262466"><path d="M 0.632812 0.113281 L 56.9375 0.113281 L 56.9375 56.421875 L 0.632812 56.421875 Z M 0.632812 0.113281 " clip-rule="nonzero"/></clipPath><clipPath id="c905e4ccb8"><path d="M 28.785156 0.113281 C 13.234375 0.113281 0.632812 12.71875 0.632812 28.269531 C 0.632812 43.816406 13.234375 56.421875 28.785156 56.421875 C 44.332031 56.421875 56.9375 43.816406 56.9375 28.269531 C 56.9375 12.71875 44.332031 0.113281 28.785156 0.113281 Z M 28.785156 0.113281 " clip-rule="nonzero"/></clipPath><clipPath id="4f10619278"><rect x="0" width="57" y="0" height="57"/></clipPath><clipPath id="cf50ae02e6"><rect x="0" width="58" y="0" height="58"/></clipPath><mask id="24ecef0a1e"><g filter="url(#8eab4e0e38)"><rect x="-102.45" width="1229.4" fill="#000000" y="-57.6" height="691.2" fill-opacity="0.15"/></g></mask><clipPath id="d8e5ca9a41"><path d="M 0.0742188 0.222656 L 32.46875 0.222656 L 32.46875 32.613281 L 0.0742188 32.613281 Z M 0.0742188 0.222656 " clip-rule="nonzero"/></clipPath><clipPath id="ead50ad3e1"><path d="M 16.273438 0.222656 C 7.328125 0.222656 0.0742188 7.472656 0.0742188 16.417969 C 0.0742188 25.363281 7.328125 32.613281 16.273438 32.613281 C 25.214844 32.613281 32.46875 25.363281 32.46875 16.417969 C 32.46875 7.472656 25.214844 0.222656 16.273438 0.222656 Z M 16.273438 0.222656 " clip-rule="nonzero"/></clipPath><clipPath id="3d7a41ac7a"><path d="M 0.0742188 0.222656 L 32.46875 0.222656 L 32.46875 32.613281 L 0.0742188 32.613281 Z M 0.0742188 0.222656 " clip-rule="nonzero"/></clipPath><clipPath id="fc17912056"><path d="M 16.273438 0.222656 C 7.328125 0.222656 0.0742188 7.472656 0.0742188 16.417969 C 0.0742188 25.363281 7.328125 32.613281 16.273438 32.613281 C 25.214844 32.613281 32.46875 25.363281 32.46875 16.417969 C 32.46875 7.472656 25.214844 0.222656 16.273438 0.222656 Z M 16.273438 0.222656 " clip-rule="nonzero"/></clipPath><clipPath id="56958463f2"><rect x="0" width="33" y="0" height="33"/></clipPath><clipPath id="77d57f51ef"><rect x="0" width="33" y="0" height="33"/></clipPath><mask id="a3a5bdf094"><g filter="url(#8eab4e0e38)"><rect x="-102.45" width="1229.4" fill="#000000" y="-57.6" height="691.2" fill-opacity="0.15"/></g></mask><clipPath id="2a01652df7"><path d="M 0.609375 0.957031 L 18.785156 0.957031 L 18.785156 19.132812 L 0.609375 19.132812 Z M 0.609375 0.957031 " clip-rule="nonzero"/></clipPath><clipPath id="a2d049a16f"><path d="M 9.699219 0.957031 C 4.679688 0.957031 0.609375 5.027344 0.609375 10.042969 C 0.609375 15.0625 4.679688 19.132812 9.699219 19.132812 C 14.714844 19.132812 18.785156 15.0625 18.785156 10.042969 C 18.785156 5.027344 14.714844 0.957031 9.699219 0.957031 Z M 9.699219 0.957031 " clip-rule="nonzero"/></clipPath><clipPath id="4c3bac480f"><path d="M 0.609375 0.957031 L 18.785156 0.957031 L 18.785156 19.132812 L 0.609375 19.132812 Z M 0.609375 0.957031 " clip-rule="nonzero"/></clipPath><clipPath id="6b9dfcba6f"><path d="M 9.699219 0.957031 C 4.679688 0.957031 0.609375 5.027344 0.609375 10.042969 C 0.609375 15.0625 4.679688 19.132812 9.699219 19.132812 C 14.714844 19.132812 18.785156 15.0625 18.785156 10.042969 C 18.785156 5.027344 14.714844 0.957031 9.699219 0.957031 Z M 9.699219 0.957031 " clip-rule="nonzero"/></clipPath><clipPath id="5c5f951735"><rect x="0" width="19" y="0" height="20"/></clipPath><clipPath id="91341658b4"><rect x="0" width="19" y="0" height="20"/></clipPath><mask id="0702f724ab"><g filter="url(#8eab4e0e38)"><rect x="-102.45" width="1229.4" fill="#000000" y="-57.6" height="691.2" fill-opacity="0.2"/></g></mask><clipPath id="7e3756dd9d"><path d="M 0.890625 1.113281 L 57.195312 1.113281 L 57.195312 57.421875 L 0.890625 57.421875 Z M 0.890625 1.113281 " clip-rule="nonzero"/></clipPath><clipPath id="cfc77384d9"><path d="M 29.042969 1.113281 C 13.496094 1.113281 0.890625 13.71875 0.890625 29.269531 C 0.890625 44.816406 13.496094 57.421875 29.042969 57.421875 C 44.589844 57.421875 57.195312 44.816406 57.195312 29.269531 C 57.195312 13.71875 44.589844 1.113281 29.042969 1.113281 Z M 29.042969 1.113281 " clip-rule="nonzero"/></clipPath><clipPath id="2dd111ae3d"><path d="M 0.890625 0.113281 L 57.195312 0.113281 L 57.195312 56.421875 L 0.890625 56.421875 Z M 0.890625 0.113281 " clip-rule="nonzero"/></clipPath><clipPath id="bab6b3c9fa"><path d="M 29.042969 0.113281 C 13.496094 0.113281 0.890625 12.71875 0.890625 28.269531 C 0.890625 43.816406 13.496094 56.421875 29.042969 56.421875 C 44.589844 56.421875 57.195312 43.816406 57.195312 28.269531 C 57.195312 12.71875 44.589844 0.113281 29.042969 0.113281 Z M 29.042969 0.113281 " clip-rule="nonzero"/></clipPath><clipPath id="e17346a5fb"><rect x="0" width="58" y="0" height="57"/></clipPath><clipPath id="316e79e7bf"><rect x="0" width="58" y="0" height="58"/></clipPath><mask id="0895ed19c9"><g filter="url(#8eab4e0e38)"><rect x="-102.45" width="1229.4" fill="#000000" y="-57.6" height="691.2" fill-opacity="0.15"/></g></mask><clipPath id="ea05b83eb3"><path d="M 0.335938 0.222656 L 32.726562 0.222656 L 32.726562 32.613281 L 0.335938 32.613281 Z M 0.335938 0.222656 " clip-rule="nonzero"/></clipPath><clipPath id="81c3f02f68"><path d="M 16.53125 0.222656 C 7.585938 0.222656 0.335938 7.472656 0.335938 16.417969 C 0.335938 25.363281 7.585938 32.613281 16.53125 32.613281 C 25.476562 32.613281 32.726562 25.363281 32.726562 16.417969 C 32.726562 7.472656 25.476562 0.222656 16.53125 0.222656 Z M 16.53125 0.222656 " clip-rule="nonzero"/></clipPath><clipPath id="1f3adb7c3d"><path d="M 0.335938 0.222656 L 32.726562 0.222656 L 32.726562 32.613281 L 0.335938 32.613281 Z M 0.335938 0.222656 " clip-rule="nonzero"/></clipPath><clipPath id="7d01839681"><path d="M 16.53125 0.222656 C 7.585938 0.222656 0.335938 7.472656 0.335938 16.417969 C 0.335938 25.363281 7.585938 32.613281 16.53125 32.613281 C 25.476562 32.613281 32.726562 25.363281 32.726562 16.417969 C 32.726562 7.472656 25.476562 0.222656 16.53125 0.222656 Z M 16.53125 0.222656 " clip-rule="nonzero"/></clipPath><clipPath id="8ca20ac1ea"><rect x="0" width="33" y="0" height="33"/></clipPath><clipPath id="8fd221df17"><rect x="0" width="33" y="0" height="33"/></clipPath><mask id="64040cbfa3"><g filter="url(#8eab4e0e38)"><rect x="-102.45" width="1229.4" fill="#000000" y="-57.6" height="691.2" fill-opacity="0.15"/></g></mask><clipPath id="f077c027f4"><path d="M 0.871094 0.957031 L 19.042969 0.957031 L 19.042969 19.132812 L 0.871094 19.132812 Z M 0.871094 0.957031 " clip-rule="nonzero"/></clipPath><clipPath id="23efd5afac"><path d="M 9.957031 0.957031 C 4.9375 0.957031 0.871094 5.027344 0.871094 10.042969 C 0.871094 15.0625 4.9375 19.132812 9.957031 19.132812 C 14.976562 19.132812 19.042969 15.0625 19.042969 10.042969 C 19.042969 5.027344 14.976562 0.957031 9.957031 0.957031 Z M 9.957031 0.957031 " clip-rule="nonzero"/></clipPath><clipPath id="9ededcc515"><path d="M 0.871094 0.957031 L 19.042969 0.957031 L 19.042969 19.132812 L 0.871094 19.132812 Z M 0.871094 0.957031 " clip-rule="nonzero"/></clipPath><clipPath id="bd4becebe6"><path d="M 9.957031 0.957031 C 4.9375 0.957031 0.871094 5.027344 0.871094 10.042969 C 0.871094 15.0625 4.9375 19.132812 9.957031 19.132812 C 14.976562 19.132812 19.042969 15.0625 19.042969 10.042969 C 19.042969 5.027344 14.976562 0.957031 9.957031 0.957031 Z M 9.957031 0.957031 " clip-rule="nonzero"/></clipPath><clipPath id="a39e2d7689"><rect x="0" width="20" y="0" height="20"/></clipPath><clipPath id="8761926f5a"><rect x="0" width="20" y="0" height="20"/></clipPath><mask id="26f80efd9f"><g filter="url(#8eab4e0e38)"><rect x="-102.45" width="1229.4" fill="#000000" y="-57.6" height="691.2" fill-opacity="0.2"/></g></mask><clipPath id="c64d77d8a4"><path d="M 0.496094 1.113281 L 56.800781 1.113281 L 56.800781 57.421875 L 0.496094 57.421875 Z M 0.496094 1.113281 " clip-rule="nonzero"/></clipPath><clipPath id="6184109117"><path d="M 28.648438 1.113281 C 13.101562 1.113281 0.496094 13.71875 0.496094 29.269531 C 0.496094 44.816406 13.101562 57.421875 28.648438 57.421875 C 44.195312 57.421875 56.800781 44.816406 56.800781 29.269531 C 56.800781 13.71875 44.195312 1.113281 28.648438 1.113281 Z M 28.648438 1.113281 " clip-rule="nonzero"/></clipPath><clipPath id="b5679032d6"><path d="M 0.496094 0.113281 L 56.800781 0.113281 L 56.800781 56.421875 L 0.496094 56.421875 Z M 0.496094 0.113281 " clip-rule="nonzero"/></clipPath><clipPath id="1307fd1b8b"><path d="M 28.648438 0.113281 C 13.101562 0.113281 0.496094 12.71875 0.496094 28.269531 C 0.496094 43.816406 13.101562 56.421875 28.648438 56.421875 C 44.195312 56.421875 56.800781 43.816406 56.800781 28.269531 C 56.800781 12.71875 44.195312 0.113281 28.648438 0.113281 Z M 28.648438 0.113281 " clip-rule="nonzero"/></clipPath><clipPath id="eb5c8a3407"><rect x="0" width="57" y="0" height="57"/></clipPath><clipPath id="b94cf12f53"><rect x="0" width="57" y="0" height="58"/></clipPath><mask id="1ac5c4091a"><g filter="url(#8eab4e0e38)"><rect x="-102.45" width="1229.4" fill="#000000" y="-57.6" height="691.2" fill-opacity="0.15"/></g></mask><clipPath id="f187b1b93e"><path d="M 0.941406 0.222656 L 33.332031 0.222656 L 33.332031 32.613281 L 0.941406 32.613281 Z M 0.941406 0.222656 " clip-rule="nonzero"/></clipPath><clipPath id="18d8818772"><path d="M 17.136719 0.222656 C 8.191406 0.222656 0.941406 7.472656 0.941406 16.417969 C 0.941406 25.363281 8.191406 32.613281 17.136719 32.613281 C 26.082031 32.613281 33.332031 25.363281 33.332031 16.417969 C 33.332031 7.472656 26.082031 0.222656 17.136719 0.222656 Z M 17.136719 0.222656 " clip-rule="nonzero"/></clipPath><clipPath id="f81ff22bb5"><path d="M 0.941406 0.222656 L 33.332031 0.222656 L 33.332031 32.613281 L 0.941406 32.613281 Z M 0.941406 0.222656 " clip-rule="nonzero"/></clipPath><clipPath id="6f92bc4a0c"><path d="M 17.136719 0.222656 C 8.191406 0.222656 0.941406 7.472656 0.941406 16.417969 C 0.941406 25.363281 8.191406 32.613281 17.136719 32.613281 C 26.082031 32.613281 33.332031 25.363281 33.332031 16.417969 C 33.332031 7.472656 26.082031 0.222656 17.136719 0.222656 Z M 17.136719 0.222656 " clip-rule="nonzero"/></clipPath><clipPath id="4974edfb45"><rect x="0" width="34" y="0" height="33"/></clipPath><clipPath id="9fdc2467ab"><rect x="0" width="34" y="0" height="33"/></clipPath><mask id="1b98bf7331"><g filter="url(#8eab4e0e38)"><rect x="-102.45" width="1229.4" fill="#000000" y="-57.6" height="691.2" fill-opacity="0.15"/></g></mask><clipPath id="425b53cb5b"><path d="M 0.476562 0.957031 L 18.648438 0.957031 L 18.648438 19.132812 L 0.476562 19.132812 Z M 0.476562 0.957031 " clip-rule="nonzero"/></clipPath><clipPath id="dd5cc48979"><path d="M 9.5625 0.957031 C 4.542969 0.957031 0.476562 5.027344 0.476562 10.042969 C 0.476562 15.0625 4.542969 19.132812 9.5625 19.132812 C 14.582031 19.132812 18.648438 15.0625 18.648438 10.042969 C 18.648438 5.027344 14.582031 0.957031 9.5625 0.957031 Z M 9.5625 0.957031 " clip-rule="nonzero"/></clipPath><clipPath id="8d5325425f"><path d="M 0.476562 0.957031 L 18.648438 0.957031 L 18.648438 19.132812 L 0.476562 19.132812 Z M 0.476562 0.957031 " clip-rule="nonzero"/></clipPath><clipPath id="ff14a5c35c"><path d="M 9.5625 0.957031 C 4.542969 0.957031 0.476562 5.027344 0.476562 10.042969 C 0.476562 15.0625 4.542969 19.132812 9.5625 19.132812 C 14.582031 19.132812 18.648438 15.0625 18.648438 10.042969 C 18.648438 5.027344 14.582031 0.957031 9.5625 0.957031 Z M 9.5625 0.957031 " clip-rule="nonzero"/></clipPath><clipPath id="cd32fc57d3"><rect x="0" width="19" y="0" height="20"/></clipPath><clipPath id="32b37bcf74"><rect x="0" width="19" y="0" height="20"/></clipPath><mask id="c7cdd064fa"><g filter="url(#8eab4e0e38)"><rect x="-102.45" width="1229.4" fill="#000000" y="-57.6" height="691.2" fill-opacity="0.2"/></g></mask><clipPath id="374dfb01a7"><path d="M 1.101562 1.113281 L 57.40625 1.113281 L 57.40625 57.421875 L 1.101562 57.421875 Z M 1.101562 1.113281 " clip-rule="nonzero"/></clipPath><clipPath id="49e7585fd1"><path d="M 29.253906 1.113281 C 13.707031 1.113281 1.101562 13.71875 1.101562 29.269531 C 1.101562 44.816406 13.707031 57.421875 29.253906 57.421875 C 44.804688 57.421875 57.40625 44.816406 57.40625 29.269531 C 57.40625 13.71875 44.804688 1.113281 29.253906 1.113281 Z M 29.253906 1.113281 " clip-rule="nonzero"/></clipPath><clipPath id="ecab2dba20"><path d="M 0.101562 0.113281 L 56.40625 0.113281 L 56.40625 56.421875 L 0.101562 56.421875 Z M 0.101562 0.113281 " clip-rule="nonzero"/></clipPath><clipPath id="6a4ec002b4"><path d="M 28.253906 0.113281 C 12.707031 0.113281 0.101562 12.71875 0.101562 28.269531 C 0.101562 43.816406 12.707031 56.421875 28.253906 56.421875 C 43.804688 56.421875 56.40625 43.816406 56.40625 28.269531 C 56.40625 12.71875 43.804688 0.113281 28.253906 0.113281 Z M 28.253906 0.113281 " clip-rule="nonzero"/></clipPath><clipPath id="26a4403d1b"><rect x="0" width="57" y="0" height="57"/></clipPath><clipPath id="ecc05c51ca"><rect x="0" width="58" y="0" height="58"/></clipPath><mask id="d02129fb4d"><g filter="url(#8eab4e0e38)"><rect x="-102.45" width="1229.4" fill="#000000" y="-57.6" height="691.2" fill-opacity="0.15"/></g></mask><clipPath id="c875bd81a6"><path d="M 0.546875 0.222656 L 32.9375 0.222656 L 32.9375 32.613281 L 0.546875 32.613281 Z M 0.546875 0.222656 " clip-rule="nonzero"/></clipPath><clipPath id="b4e1290a27"><path d="M 16.742188 0.222656 C 7.796875 0.222656 0.546875 7.472656 0.546875 16.417969 C 0.546875 25.363281 7.796875 32.613281 16.742188 32.613281 C 25.6875 32.613281 32.9375 25.363281 32.9375 16.417969 C 32.9375 7.472656 25.6875 0.222656 16.742188 0.222656 Z M 16.742188 0.222656 " clip-rule="nonzero"/></clipPath><clipPath id="3ab5c139ab"><path d="M 0.546875 0.222656 L 32.9375 0.222656 L 32.9375 32.613281 L 0.546875 32.613281 Z M 0.546875 0.222656 " clip-rule="nonzero"/></clipPath><clipPath id="73ee27bf2f"><path d="M 16.742188 0.222656 C 7.796875 0.222656 0.546875 7.472656 0.546875 16.417969 C 0.546875 25.363281 7.796875 32.613281 16.742188 32.613281 C 25.6875 32.613281 32.9375 25.363281 32.9375 16.417969 C 32.9375 7.472656 25.6875 0.222656 16.742188 0.222656 Z M 16.742188 0.222656 " clip-rule="nonzero"/></clipPath><clipPath id="dbf1d62047"><rect x="0" width="33" y="0" height="33"/></clipPath><clipPath id="6f467adb3c"><rect x="0" width="33" y="0" height="33"/></clipPath><mask id="2000d1e144"><g filter="url(#8eab4e0e38)"><rect x="-102.45" width="1229.4" fill="#000000" y="-57.6" height="691.2" fill-opacity="0.15"/></g></mask><clipPath id="f2096cdc42"><path d="M 1.082031 0.957031 L 19.253906 0.957031 L 19.253906 19.132812 L 1.082031 19.132812 Z M 1.082031 0.957031 " clip-rule="nonzero"/></clipPath><clipPath id="9cd624fcdb"><path d="M 10.167969 0.957031 C 5.148438 0.957031 1.082031 5.027344 1.082031 10.042969 C 1.082031 15.0625 5.148438 19.132812 10.167969 19.132812 C 15.1875 19.132812 19.253906 15.0625 19.253906 10.042969 C 19.253906 5.027344 15.1875 0.957031 10.167969 0.957031 Z M 10.167969 0.957031 " clip-rule="nonzero"/></clipPath><clipPath id="f922e066f2"><path d="M 0.0820312 0.957031 L 18.253906 0.957031 L 18.253906 19.132812 L 0.0820312 19.132812 Z M 0.0820312 0.957031 " clip-rule="nonzero"/></clipPath><clipPath id="d2a2228e56"><path d="M 9.167969 0.957031 C 4.148438 0.957031 0.0820312 5.027344 0.0820312 10.042969 C 0.0820312 15.0625 4.148438 19.132812 9.167969 19.132812 C 14.1875 19.132812 18.253906 15.0625 18.253906 10.042969 C 18.253906 5.027344 14.1875 0.957031 9.167969 0.957031 Z M 9.167969 0.957031 " clip-rule="nonzero"/></clipPath><clipPath id="51182cf73f"><rect x="0" width="19" y="0" height="20"/></clipPath><clipPath id="b3fb9f2450"><rect x="0" width="20" y="0" height="20"/></clipPath><mask id="cd5f7c1bb9"><g filter="url(#8eab4e0e38)"><rect x="-102.45" width="1229.4" fill="#000000" y="-57.6" height="691.2" fill-opacity="0.2"/></g></mask><clipPath id="8ef5c288a3"><path d="M 0.707031 1.113281 L 57.011719 1.113281 L 57.011719 57.421875 L 0.707031 57.421875 Z M 0.707031 1.113281 " clip-rule="nonzero"/></clipPath><clipPath id="b39d6c697f"><path d="M 28.859375 1.113281 C 13.3125 1.113281 0.707031 13.71875 0.707031 29.269531 C 0.707031 44.816406 13.3125 57.421875 28.859375 57.421875 C 44.410156 57.421875 57.011719 44.816406 57.011719 29.269531 C 57.011719 13.71875 44.410156 1.113281 28.859375 1.113281 Z M 28.859375 1.113281 " clip-rule="nonzero"/></clipPath><clipPath id="187d8a16de"><path d="M 0.707031 0.113281 L 57.011719 0.113281 L 57.011719 56.421875 L 0.707031 56.421875 Z M 0.707031 0.113281 " clip-rule="nonzero"/></clipPath><clipPath id="50960a611c"><path d="M 28.859375 0.113281 C 13.3125 0.113281 0.707031 12.71875 0.707031 28.269531 C 0.707031 43.816406 13.3125 56.421875 28.859375 56.421875 C 44.410156 56.421875 57.011719 43.816406 57.011719 28.269531 C 57.011719 12.71875 44.410156 0.113281 28.859375 0.113281 Z M 28.859375 0.113281 " clip-rule="nonzero"/></clipPath><clipPath id="758aad686c"><rect x="0" width="58" y="0" height="57"/></clipPath><clipPath id="c335cf7028"><rect x="0" width="58" y="0" height="58"/></clipPath><mask id="46300efe28"><g filter="url(#8eab4e0e38)"><rect x="-102.45" width="1229.4" fill="#000000" y="-57.6" height="691.2" fill-opacity="0.15"/></g></mask><clipPath id="7ddb3fd4f0"><path d="M 0.152344 0.222656 L 32.542969 0.222656 L 32.542969 32.613281 L 0.152344 32.613281 Z M 0.152344 0.222656 " clip-rule="nonzero"/></clipPath><clipPath id="61c4213cf9"><path d="M 16.347656 0.222656 C 7.402344 0.222656 0.152344 7.472656 0.152344 16.417969 C 0.152344 25.363281 7.402344 32.613281 16.347656 32.613281 C 25.292969 32.613281 32.542969 25.363281 32.542969 16.417969 C 32.542969 7.472656 25.292969 0.222656 16.347656 0.222656 Z M 16.347656 0.222656 " clip-rule="nonzero"/></clipPath><clipPath id="06e77347f8"><path d="M 0.152344 0.222656 L 32.542969 0.222656 L 32.542969 32.613281 L 0.152344 32.613281 Z M 0.152344 0.222656 " clip-rule="nonzero"/></clipPath><clipPath id="88082b2d73"><path d="M 16.347656 0.222656 C 7.402344 0.222656 0.152344 7.472656 0.152344 16.417969 C 0.152344 25.363281 7.402344 32.613281 16.347656 32.613281 C 25.292969 32.613281 32.542969 25.363281 32.542969 16.417969 C 32.542969 7.472656 25.292969 0.222656 16.347656 0.222656 Z M 16.347656 0.222656 " clip-rule="nonzero"/></clipPath><clipPath id="139d3f9086"><rect x="0" width="33" y="0" height="33"/></clipPath><clipPath id="726e60fac4"><rect x="0" width="33" y="0" height="33"/></clipPath><mask id="fd7a40e5e9"><g filter="url(#8eab4e0e38)"><rect x="-102.45" width="1229.4" fill="#000000" y="-57.6" height="691.2" fill-opacity="0.15"/></g></mask><clipPath id="538878f366"><path d="M 0.6875 0.957031 L 18.859375 0.957031 L 18.859375 19.132812 L 0.6875 19.132812 Z M 0.6875 0.957031 " clip-rule="nonzero"/></clipPath><clipPath id="168c77b289"><path d="M 9.773438 0.957031 C 4.753906 0.957031 0.6875 5.027344 0.6875 10.042969 C 0.6875 15.0625 4.753906 19.132812 9.773438 19.132812 C 14.792969 19.132812 18.859375 15.0625 18.859375 10.042969 C 18.859375 5.027344 14.792969 0.957031 9.773438 0.957031 Z M 9.773438 0.957031 " clip-rule="nonzero"/></clipPath><clipPath id="bb4ec7d85b"><path d="M 0.6875 0.957031 L 18.859375 0.957031 L 18.859375 19.132812 L 0.6875 19.132812 Z M 0.6875 0.957031 " clip-rule="nonzero"/></clipPath><clipPath id="ebd62329de"><path d="M 9.773438 0.957031 C 4.753906 0.957031 0.6875 5.027344 0.6875 10.042969 C 0.6875 15.0625 4.753906 19.132812 9.773438 19.132812 C 14.792969 19.132812 18.859375 15.0625 18.859375 10.042969 C 18.859375 5.027344 14.792969 0.957031 9.773438 0.957031 Z M 9.773438 0.957031 " clip-rule="nonzero"/></clipPath><clipPath id="cb501e35a4"><rect x="0" width="19" y="0" height="20"/></clipPath><clipPath id="0aa4b67930"><rect x="0" width="19" y="0" height="20"/></clipPath></defs><g clip-path="url(#af89debd9a)"><path fill="#ffffff" d="M 0 0.140625 L 1024 0.140625 L 1024 575.859375 L 0 575.859375 Z M 0 0.140625 " fill-opacity="1" fill-rule="nonzero"/><path fill="#ffffff" d="M 0 0.140625 L 1024 0.140625 L 1024 575.859375 L 0 575.859375 Z M 0 0.140625 " fill-opacity="1" fill-rule="nonzero"/></g><g clip-path="url(#bdea777545)"><g clip-path="url(#48793b6947)"><g transform="matrix(1, 0, 0, 1, 282, 430)"><g clip-path="url(#2a50d23c2a)"><g clip-path="url(#f550baf6d0)"><g clip-path="url(#465e528158)"><path fill="#7a0000" d="M 0.183594 0.5625 L 76.789062 0.5625 L 76.789062 77.167969 L 0.183594 77.167969 Z M 0.183594 0.5625 " fill-opacity="1" fill-rule="nonzero"/></g></g></g></g></g></g><g clip-path="url(#d0cff3a529)"><g clip-path="url(#98324ddaf9)"><path stroke-linecap="butt" transform="matrix(0.749634, 0, 0, 0.749634, 282.182983, 430.563961)" fill="none" stroke-linejoin="miter" d="M 51.093449 -0.00194858 C 22.876558 -0.00194858 0.000814968 22.873795 0.000814968 51.095896 C 0.000814968 79.312787 22.876558 102.18853 51.093449 102.18853 C 79.310339 102.18853 102.186082 79.312787 102.186082 51.095896 C 102.186082 22.873795 79.310339 -0.00194858 51.093449 -0.00194858 Z M 51.093449 -0.00194858 " stroke="#3d0000" stroke-width="8" stroke-opacity="1" stroke-miterlimit="4"/></g></g><g clip-path="url(#66ada3ad47)"><g clip-path="url(#4aab34264d)"><g transform="matrix(1, 0, 0, 1, 358, 430)"><g clip-path="url(#31989721a5)"><g clip-path="url(#5b0e28e100)"><g clip-path="url(#98897a4ee3)"><path fill="#cc4e00" d="M 0.789062 0.5625 L 77.394531 0.5625 L 77.394531 77.167969 L 0.789062 77.167969 Z M 0.789062 0.5625 " fill-opacity="1" fill-rule="nonzero"/></g></g></g></g></g></g><g clip-path="url(#9282ae6108)"><g clip-path="url(#cb9bec52c0)"><path stroke-linecap="butt" transform="matrix(0.749634, 0, 0, 0.749634, 358.788681, 430.563961)" fill="none" stroke-linejoin="miter" d="M 51.093143 -0.00194858 C 22.876252 -0.00194858 0.000509238 22.873795 0.000509238 51.095896 C 0.000509238 79.312787 22.876252 102.18853 51.093143 102.18853 C 79.310033 102.18853 102.185777 79.312787 102.185777 51.095896 C 102.185777 22.873795 79.310033 -0.00194858 51.093143 -0.00194858 Z M 51.093143 -0.00194858 " stroke="#7a2f00" stroke-width="8" stroke-opacity="1" stroke-miterlimit="4"/></g></g><g clip-path="url(#b806437f7b)"><g clip-path="url(#fc3bf5db50)"><g transform="matrix(1, 0, 0, 1, 435, 430)"><g clip-path="url(#a6b0ef7f6c)"><g clip-path="url(#a8a1e94013)"><g clip-path="url(#1e2469dc5c)"><path fill="#cca300" d="M 0.394531 0.5625 L 77 0.5625 L 77 77.167969 L 0.394531 77.167969 Z M 0.394531 0.5625 " fill-opacity="1" fill-rule="nonzero"/></g></g></g></g></g></g><g clip-path="url(#8771d5fde6)"><g clip-path="url(#0c2b38adc0)"><path stroke-linecap="butt" transform="matrix(0.749634, 0, 0, 0.749634, 435.394403, 430.563961)" fill="none" stroke-linejoin="miter" d="M 51.092805 -0.00194858 C 22.875915 -0.00194858 0.000171508 22.873795 0.000171508 51.095896 C 0.000171508 79.312787 22.875915 102.18853 51.092805 102.18853 C 79.309696 102.18853 102.185439 79.312787 102.185439 51.095896 C 102.185439 22.873795 79.309696 -0.00194858 51.092805 -0.00194858 Z M 51.092805 -0.00194858 " stroke="#7a6200" stroke-width="8" stroke-opacity="1" stroke-miterlimit="4"/></g></g><g clip-path="url(#806e13cb03)"><g clip-path="url(#b99045432e)"><g transform="matrix(1, 0, 0, 1, 512, 430)"><g clip-path="url(#260eea5589)"><g clip-path="url(#eeb0524c0f)"><g clip-path="url(#690f10568f)"><path fill="#457a00" d="M 0 0.5625 L 76.605469 0.5625 L 76.605469 77.167969 L 0 77.167969 Z M 0 0.5625 " fill-opacity="1" fill-rule="nonzero"/></g></g></g></g></g></g><g clip-path="url(#c65efeb36c)"><g clip-path="url(#2ba01fbb2b)"><path stroke-linecap="butt" transform="matrix(0.749634, 0, 0, 0.749634, 512.000101, 430.563961)" fill="none" stroke-linejoin="miter" d="M 51.092499 -0.00194858 C 22.875609 -0.00194858 -0.000134223 22.873795 -0.000134223 51.095896 C -0.000134223 79.312787 22.875609 102.18853 51.092499 102.18853 C 79.314601 102.18853 102.185133 79.312787 102.185133 51.095896 C 102.185133 22.873795 79.314601 -0.00194858 51.092499 -0.00194858 Z M 51.092499 -0.00194858 " stroke="#233d00" stroke-width="8" stroke-opacity="1" stroke-miterlimit="4"/></g></g><g clip-path="url(#723f50c00e)"><g clip-path="url(#53243f23d3)"><g transform="matrix(1, 0, 0, 1, 588, 430)"><g clip-path="url(#abda409384)"><g clip-path="url(#cf6e62d714)"><g clip-path="url(#005e17d231)"><path fill="#004e7a" d="M 0.605469 0.5625 L 77.210938 0.5625 L 77.210938 77.167969 L 0.605469 77.167969 Z M 0.605469 0.5625 " fill-opacity="1" fill-rule="nonzero"/></g></g></g></g></g></g><g clip-path="url(#5a3c39626b)"><g clip-path="url(#c46967b3d5)"><path stroke-linecap="butt" transform="matrix(0.749634, 0, 0, 0.749634, 588.605799, 430.563961)" fill="none" stroke-linejoin="miter" d="M 51.092194 -0.00194858 C 22.875303 -0.00194858 -0.000439953 22.873795 -0.000439953 51.095896 C -0.000439953 79.312787 22.875303 102.18853 51.092194 102.18853 C 79.314295 102.18853 102.190038 79.312787 102.190038 51.095896 C 102.190038 22.873795 79.314295 -0.00194858 51.092194 -0.00194858 Z M 51.092194 -0.00194858 " stroke="#00273d" stroke-width="8" stroke-opacity="1" stroke-miterlimit="4"/></g></g><g clip-path="url(#ad9cb84fee)"><g clip-path="url(#dad67ffb6e)"><g transform="matrix(1, 0, 0, 1, 665, 430)"><g clip-path="url(#b6a2b8b277)"><g clip-path="url(#4b473ef214)"><g clip-path="url(#dd8885a068)"><path fill="#401268" d="M 0.210938 0.5625 L 76.816406 0.5625 L 76.816406 77.167969 L 0.210938 77.167969 Z M 0.210938 0.5625 " fill-opacity="1" fill-rule="nonzero"/></g></g></g></g></g></g><g clip-path="url(#c3e86cf5fc)"><g clip-path="url(#1c0a0bb4a3)"><path stroke-linecap="butt" transform="matrix(0.749634, 0, 0, 0.749634, 665.211496, 430.563961)" fill="none" stroke-linejoin="miter" d="M 51.091888 -0.00194858 C 22.874998 -0.00194858 -0.000745683 22.873795 -0.000745683 51.095896 C -0.000745683 79.312787 22.874998 102.18853 51.091888 102.18853 C 79.313989 102.18853 102.189733 79.312787 102.189733 51.095896 C 102.189733 22.873795 79.313989 -0.00194858 51.091888 -0.00194858 Z M 51.091888 -0.00194858 " stroke="#200934" stroke-width="8" stroke-opacity="1" stroke-miterlimit="4"/></g></g><path stroke-linecap="butt" transform="matrix(0, -0.749634, 0.749634, 0, 395.591117, 430.562809)" fill="none" stroke-linejoin="miter" d="M 0.000412579 1.999277 L 354.50148 1.999277 " stroke="#3b3432" stroke-width="4" stroke-opacity="1" stroke-miterlimit="4"/><path stroke-linecap="butt" transform="matrix(0, -0.749634, 0.749634, 0, 473.6961, 430.562809)" fill="none" stroke-linejoin="miter" d="M 0.000412579 1.999925 L 354.50148 1.999925 " stroke="#3b3432" stroke-width="4" stroke-opacity="1" stroke-miterlimit="4"/><path stroke-linecap="butt" transform="matrix(0, -0.749634, 0.749634, 0, 550.301846, 430.562809)" fill="none" stroke-linejoin="miter" d="M 0.000412579 1.999556 L 354.50148 1.999556 " stroke="#3b3432" stroke-width="4" stroke-opacity="1" stroke-miterlimit="4"/><path stroke-linecap="butt" transform="matrix(0, -0.749634, 0.749634, 0, 623.837499, 430.562809)" fill="none" stroke-linejoin="miter" d="M 0.000412579 1.998894 L 354.50148 1.998894 " stroke="#3b3432" stroke-width="4" stroke-opacity="1" stroke-miterlimit="4"/><path stroke-linecap="butt" transform="matrix(0, -0.749634, 0.749634, 0, 320.556197, 430.562809)" fill="none" stroke-linejoin="miter" d="M 0.000412579 1.998963 L 354.50148 1.998963 " stroke="#3b3432" stroke-width="4" stroke-opacity="1" stroke-miterlimit="4"/><path stroke-linecap="butt" transform="matrix(0, -0.749634, 0.749634, 0, 703.441709, 430.562809)" fill="none" stroke-linejoin="miter" d="M 0.000412579 2.000572 L 354.50148 2.000572 " stroke="#3b3432" stroke-width="4" stroke-opacity="1" stroke-miterlimit="4"/><g mask="url(#c3199b2561)"><g transform="matrix(1, 0, 0, 1, 289, 438)"><g clip-path="url(#f467006be0)"><g clip-path="url(#24e714c678)"><g clip-path="url(#b1de95fe78)"><g transform="matrix(1, 0, 0, 1, 0, -0.000000000000056843)"><g clip-path="url(#b7ac3cd53a)"><g clip-path="url(#db332fee5a)"><g clip-path="url(#c52d6ac0b7)"><path fill="#f2f0ef" d="M 0.96875 0.863281 L 57.273438 0.863281 L 57.273438 57.167969 L 0.96875 57.167969 Z M 0.96875 0.863281 " fill-opacity="1" fill-rule="nonzero"/></g></g></g></g></g></g></g></g></g><g mask="url(#d1998c75c5)"><g transform="matrix(1, 0, 0, 1, 296, 443)"><g clip-path="url(#6860a859cc)"><g clip-path="url(#7e3279509e)"><g clip-path="url(#69e1082d35)"><g transform="matrix(1, 0, 0, 1, 0, -0.000000000000056843)"><g clip-path="url(#5da27fbea6)"><g clip-path="url(#fecf451254)"><g clip-path="url(#1b0ce2323d)"><path fill="#f2f0ef" d="M 0.410156 0.972656 L 32.804688 0.972656 L 32.804688 33.363281 L 0.410156 33.363281 Z M 0.410156 0.972656 " fill-opacity="1" fill-rule="nonzero"/></g></g></g></g></g></g></g></g></g><g mask="url(#6c4cc2bef5)"><g transform="matrix(1, 0, 0, 1, 299, 447)"><g clip-path="url(#09862ba909)"><g clip-path="url(#4a531431d0)"><g clip-path="url(#3d398f8435)"><g transform="matrix(1, 0, 0, 1, 0, -0.000000000000056843)"><g clip-path="url(#a0d3299008)"><g clip-path="url(#4bf8a4f4d6)"><g clip-path="url(#1511a99283)"><path fill="#f2f0ef" d="M 0.945312 0.707031 L 19.121094 0.707031 L 19.121094 18.878906 L 0.945312 18.878906 Z M 0.945312 0.707031 " fill-opacity="1" fill-rule="nonzero"/></g></g></g></g></g></g></g></g></g><g mask="url(#c6956f2dd4)"><g transform="matrix(1, 0, 0, 1, 366, 437)"><g clip-path="url(#cf50ae02e6)"><g clip-path="url(#f677216e92)"><g clip-path="url(#688c90e42c)"><g transform="matrix(1, 0, 0, 1, 0, 1)"><g clip-path="url(#4f10619278)"><g clip-path="url(#365b262466)"><g clip-path="url(#c905e4ccb8)"><path fill="#f2f0ef" d="M 0.632812 0.113281 L 56.9375 0.113281 L 56.9375 56.421875 L 0.632812 56.421875 Z M 0.632812 0.113281 " fill-opacity="1" fill-rule="nonzero"/></g></g></g></g></g></g></g></g></g><g mask="url(#24ecef0a1e)"><g transform="matrix(1, 0, 0, 1, 373, 443)"><g clip-path="url(#77d57f51ef)"><g clip-path="url(#d8e5ca9a41)"><g clip-path="url(#ead50ad3e1)"><g transform="matrix(1, 0, 0, 1, 0, -0.000000000000056843)"><g clip-path="url(#56958463f2)"><g clip-path="url(#3d7a41ac7a)"><g clip-path="url(#fc17912056)"><path fill="#f2f0ef" d="M 0.0742188 0.222656 L 32.46875 0.222656 L 32.46875 32.613281 L 0.0742188 32.613281 Z M 0.0742188 0.222656 " fill-opacity="1" fill-rule="nonzero"/></g></g></g></g></g></g></g></g></g><g mask="url(#a3a5bdf094)"><g transform="matrix(1, 0, 0, 1, 376, 446)"><g clip-path="url(#91341658b4)"><g clip-path="url(#2a01652df7)"><g clip-path="url(#a2d049a16f)"><g transform="matrix(1, 0, 0, 1, 0, -0.000000000000056843)"><g clip-path="url(#5c5f951735)"><g clip-path="url(#4c3bac480f)"><g clip-path="url(#6b9dfcba6f)"><path fill="#f2f0ef" d="M 0.609375 0.957031 L 18.785156 0.957031 L 18.785156 19.132812 L 0.609375 19.132812 Z M 0.609375 0.957031 " fill-opacity="1" fill-rule="nonzero"/></g></g></g></g></g></g></g></g></g><g mask="url(#0702f724ab)"><g transform="matrix(1, 0, 0, 1, 442, 437)"><g clip-path="url(#316e79e7bf)"><g clip-path="url(#7e3756dd9d)"><g clip-path="url(#cfc77384d9)"><g transform="matrix(1, 0, 0, 1, 0, 1)"><g clip-path="url(#e17346a5fb)"><g clip-path="url(#2dd111ae3d)"><g clip-path="url(#bab6b3c9fa)"><path fill="#f2f0ef" d="M 0.890625 0.113281 L 57.195312 0.113281 L 57.195312 56.421875 L 0.890625 56.421875 Z M 0.890625 0.113281 " fill-opacity="1" fill-rule="nonzero"/></g></g></g></g></g></g></g></g></g><g mask="url(#0895ed19c9)"><g transform="matrix(1, 0, 0, 1, 449, 443)"><g clip-path="url(#8fd221df17)"><g clip-path="url(#ea05b83eb3)"><g clip-path="url(#81c3f02f68)"><g transform="matrix(1, 0, 0, 1, 0, -0.000000000000056843)"><g clip-path="url(#8ca20ac1ea)"><g clip-path="url(#1f3adb7c3d)"><g clip-path="url(#7d01839681)"><path fill="#f2f0ef" d="M 0.335938 0.222656 L 32.726562 0.222656 L 32.726562 32.613281 L 0.335938 32.613281 Z M 0.335938 0.222656 " fill-opacity="1" fill-rule="nonzero"/></g></g></g></g></g></g></g></g></g><g mask="url(#64040cbfa3)"><g transform="matrix(1, 0, 0, 1, 452, 446)"><g clip-path="url(#8761926f5a)"><g clip-path="url(#f077c027f4)"><g clip-path="url(#23efd5afac)"><g transform="matrix(1, 0, 0, 1, 0, -0.000000000000056843)"><g clip-path="url(#a39e2d7689)"><g clip-path="url(#9ededcc515)"><g clip-path="url(#bd4becebe6)"><path fill="#f2f0ef" d="M 0.871094 0.957031 L 19.042969 0.957031 L 19.042969 19.132812 L 0.871094 19.132812 Z M 0.871094 0.957031 " fill-opacity="1" fill-rule="nonzero"/></g></g></g></g></g></g></g></g></g><g mask="url(#26f80efd9f)"><g transform="matrix(1, 0, 0, 1, 519, 437)"><g clip-path="url(#b94cf12f53)"><g clip-path="url(#c64d77d8a4)"><g clip-path="url(#6184109117)"><g transform="matrix(1, 0, 0, 1, 0, 1)"><g clip-path="url(#eb5c8a3407)"><g clip-path="url(#b5679032d6)"><g clip-path="url(#1307fd1b8b)"><path fill="#f2f0ef" d="M 0.496094 0.113281 L 56.800781 0.113281 L 56.800781 56.421875 L 0.496094 56.421875 Z M 0.496094 0.113281 " fill-opacity="1" fill-rule="nonzero"/></g></g></g></g></g></g></g></g></g><g mask="url(#1ac5c4091a)"><g transform="matrix(1, 0, 0, 1, 525, 443)"><g clip-path="url(#9fdc2467ab)"><g clip-path="url(#f187b1b93e)"><g clip-path="url(#18d8818772)"><g transform="matrix(1, 0, 0, 1, 0, -0.000000000000056843)"><g clip-path="url(#4974edfb45)"><g clip-path="url(#f81ff22bb5)"><g clip-path="url(#6f92bc4a0c)"><path fill="#f2f0ef" d="M 0.941406 0.222656 L 33.332031 0.222656 L 33.332031 32.613281 L 0.941406 32.613281 Z M 0.941406 0.222656 " fill-opacity="1" fill-rule="nonzero"/></g></g></g></g></g></g></g></g></g><g mask="url(#1b98bf7331)"><g transform="matrix(1, 0, 0, 1, 529, 446)"><g clip-path="url(#32b37bcf74)"><g clip-path="url(#425b53cb5b)"><g clip-path="url(#dd5cc48979)"><g transform="matrix(1, 0, 0, 1, 0, -0.000000000000056843)"><g clip-path="url(#cd32fc57d3)"><g clip-path="url(#8d5325425f)"><g clip-path="url(#ff14a5c35c)"><path fill="#f2f0ef" d="M 0.476562 0.957031 L 18.648438 0.957031 L 18.648438 19.132812 L 0.476562 19.132812 Z M 0.476562 0.957031 " fill-opacity="1" fill-rule="nonzero"/></g></g></g></g></g></g></g></g></g><g mask="url(#c7cdd064fa)"><g transform="matrix(1, 0, 0, 1, 595, 437)"><g clip-path="url(#ecc05c51ca)"><g clip-path="url(#374dfb01a7)"><g clip-path="url(#49e7585fd1)"><g transform="matrix(1, 0, 0, 1, 1, 1)"><g clip-path="url(#26a4403d1b)"><g clip-path="url(#ecab2dba20)"><g clip-path="url(#6a4ec002b4)"><path fill="#f2f0ef" d="M 0.101562 0.113281 L 56.40625 0.113281 L 56.40625 56.421875 L 0.101562 56.421875 Z M 0.101562 0.113281 " fill-opacity="1" fill-rule="nonzero"/></g></g></g></g></g></g></g></g></g><g mask="url(#d02129fb4d)"><g transform="matrix(1, 0, 0, 1, 602, 443)"><g clip-path="url(#6f467adb3c)"><g clip-path="url(#c875bd81a6)"><g clip-path="url(#b4e1290a27)"><g transform="matrix(1, 0, 0, 1, 0, -0.000000000000056843)"><g clip-path="url(#dbf1d62047)"><g clip-path="url(#3ab5c139ab)"><g clip-path="url(#73ee27bf2f)"><path fill="#f2f0ef" d="M 0.546875 0.222656 L 32.9375 0.222656 L 32.9375 32.613281 L 0.546875 32.613281 Z M 0.546875 0.222656 " fill-opacity="1" fill-rule="nonzero"/></g></g></g></g></g></g></g></g></g><g mask="url(#2000d1e144)"><g transform="matrix(1, 0, 0, 1, 605, 446)"><g clip-path="url(#b3fb9f2450)"><g clip-path="url(#f2096cdc42)"><g clip-path="url(#9cd624fcdb)"><g transform="matrix(1, 0, 0, 1, 1, -0.000000000000056843)"><g clip-path="url(#51182cf73f)"><g clip-path="url(#f922e066f2)"><g clip-path="url(#d2a2228e56)"><path fill="#f2f0ef" d="M 0.0820312 0.957031 L 18.253906 0.957031 L 18.253906 19.132812 L 0.0820312 19.132812 Z M 0.0820312 0.957031 " fill-opacity="1" fill-rule="nonzero"/></g></g></g></g></g></g></g></g></g><g mask="url(#cd5f7c1bb9)"><g transform="matrix(1, 0, 0, 1, 672, 437)"><g clip-path="url(#c335cf7028)"><g clip-path="url(#8ef5c288a3)"><g clip-path="url(#b39d6c697f)"><g transform="matrix(1, 0, 0, 1, 0, 1)"><g clip-path="url(#758aad686c)"><g clip-path="url(#187d8a16de)"><g clip-path="url(#50960a611c)"><path fill="#f2f0ef" d="M 0.707031 0.113281 L 57.011719 0.113281 L 57.011719 56.421875 L 0.707031 56.421875 Z M 0.707031 0.113281 " fill-opacity="1" fill-rule="nonzero"/></g></g></g></g></g></g></g></g></g><g mask="url(#46300efe28)"><g transform="matrix(1, 0, 0, 1, 679, 443)"><g clip-path="url(#726e60fac4)"><g clip-path="url(#7ddb3fd4f0)"><g clip-path="url(#61c4213cf9)"><g transform="matrix(1, 0, 0, 1, 0, -0.000000000000056843)"><g clip-path="url(#139d3f9086)"><g clip-path="url(#06e77347f8)"><g clip-path="url(#88082b2d73)"><path fill="#f2f0ef" d="M 0.152344 0.222656 L 32.542969 0.222656 L 32.542969 32.613281 L 0.152344 32.613281 Z M 0.152344 0.222656 " fill-opacity="1" fill-rule="nonzero"/></g></g></g></g></g></g></g></g></g><g mask="url(#fd7a40e5e9)"><g transform="matrix(1, 0, 0, 1, 682, 446)"><g clip-path="url(#0aa4b67930)"><g clip-path="url(#538878f366)"><g clip-path="url(#168c77b289)"><g transform="matrix(1, 0, 0, 1, 0, -0.000000000000056843)"><g clip-path="url(#cb501e35a4)"><g clip-path="url(#bb4ec7d85b)"><g clip-path="url(#ebd62329de)"><path fill="#f2f0ef" d="M 0.6875 0.957031 L 18.859375 0.957031 L 18.859375 19.132812 L 0.6875 19.132812 Z M 0.6875 0.957031 " fill-opacity="1" fill-rule="nonzero"/></g></g></g></g></g></g></g></g></g></svg>