<svg xmlns="http://www.w3.org/2000/svg" xmlns:xlink="http://www.w3.org/1999/xlink" width="1366" zoomAndPan="magnify" viewBox="0 0 1024.5 576" height="768" preserveAspectRatio="xMidYMid meet" version="1.0"><defs><filter x="0%" y="0%" width="100%" height="100%" id="188c7212f7"><feColorMatrix values="0 0 0 0 1 0 0 0 0 1 0 0 0 0 1 0 0 0 1 0" color-interpolation-filters="sRGB"/></filter><clipPath id="d71c7b3792"><path d="M 282.183594 50.460938 L 738.890625 50.460938 L 738.890625 507.167969 L 282.183594 507.167969 Z M 282.183594 50.460938 " clip-rule="nonzero"/></clipPath><clipPath id="983d448539"><path d="M 510.539062 50.460938 C 384.421875 50.460938 282.183594 152.699219 282.183594 278.816406 C 282.183594 404.933594 384.421875 507.167969 510.539062 507.167969 C 636.652344 507.167969 738.890625 404.933594 738.890625 278.816406 C 738.890625 152.699219 636.652344 50.460938 510.539062 50.460938 Z M 510.539062 50.460938 " clip-rule="nonzero"/></clipPath><clipPath id="091dc3cd81"><path d="M 0.183594 0.460938 L 456.890625 0.460938 L 456.890625 457.167969 L 0.183594 457.167969 Z M 0.183594 0.460938 " clip-rule="nonzero"/></clipPath><clipPath id="11f7f7c38b"><path d="M 228.539062 0.460938 C 102.421875 0.460938 0.183594 102.699219 0.183594 228.816406 C 0.183594 354.933594 102.421875 457.167969 228.539062 457.167969 C 354.652344 457.167969 456.890625 354.933594 456.890625 228.816406 C 456.890625 102.699219 354.652344 0.460938 228.539062 0.460938 Z M 228.539062 0.460938 " clip-rule="nonzero"/></clipPath><clipPath id="85ac943184"><rect x="0" width="457" y="0" height="458"/></clipPath><clipPath id="a75eafab50"><path d="M 282.183594 50.460938 L 738.710938 50.460938 L 738.710938 506.988281 L 282.183594 506.988281 Z M 282.183594 50.460938 " clip-rule="nonzero"/></clipPath><clipPath id="575967aa03"><path d="M 510.535156 50.460938 C 384.417969 50.460938 282.183594 152.695312 282.183594 278.8125 C 282.183594 404.925781 384.417969 507.164062 510.535156 507.164062 C 636.648438 507.164062 738.886719 404.925781 738.886719 278.8125 C 738.886719 152.695312 636.648438 50.460938 510.535156 50.460938 Z M 510.535156 50.460938 " clip-rule="nonzero"/></clipPath><clipPath id="0c0cd79239"><path d="M 0.398438 0.933594 L 336.476562 0.933594 L 336.476562 336.769531 L 0.398438 336.769531 Z M 0.398438 0.933594 " clip-rule="nonzero"/></clipPath><mask id="0693224ce0"><g filter="url(#188c7212f7)"><rect x="-553.39" width="1475.28" fill="#000000" y="-225.72" height="829.44" fill-opacity="0.2"/></g></mask><clipPath id="cd667dc834"><path d="M 0.59375 0.949219 L 336.273438 0.949219 L 336.273438 336.628906 L 0.59375 336.628906 Z M 0.59375 0.949219 " clip-rule="nonzero"/></clipPath><clipPath id="d6f1385b44"><path d="M 168.433594 0.949219 C 75.738281 0.949219 0.59375 76.09375 0.59375 168.789062 C 0.59375 261.484375 75.738281 336.628906 168.433594 336.628906 C 261.128906 336.628906 336.273438 261.484375 336.273438 168.789062 C 336.273438 76.09375 261.128906 0.949219 168.433594 0.949219 Z M 168.433594 0.949219 " clip-rule="nonzero"/></clipPath><clipPath id="11175ce669"><path d="M 0.59375 0.949219 L 336.273438 0.949219 L 336.273438 336.628906 L 0.59375 336.628906 Z M 0.59375 0.949219 " clip-rule="nonzero"/></clipPath><clipPath id="ecde5edcef"><path d="M 168.433594 0.949219 C 75.738281 0.949219 0.59375 76.09375 0.59375 168.789062 C 0.59375 261.484375 75.738281 336.628906 168.433594 336.628906 C 261.128906 336.628906 336.273438 261.484375 336.273438 168.789062 C 336.273438 76.09375 261.128906 0.949219 168.433594 0.949219 Z M 168.433594 0.949219 " clip-rule="nonzero"/></clipPath><clipPath id="af13cdd719"><rect x="0" width="337" y="0" height="337"/></clipPath><clipPath id="2fdf2c5206"><rect x="0" width="337" y="0" height="337"/></clipPath><mask id="e93cb80813"><g filter="url(#188c7212f7)"><rect x="-553.39" width="1475.28" fill="#000000" y="-225.72" height="829.44" fill-opacity="0.15"/></g></mask><clipPath id="3896eb08f5"><path d="M 1.011719 0.394531 L 194.125 0.394531 L 194.125 193.507812 L 1.011719 193.507812 Z M 1.011719 0.394531 " clip-rule="nonzero"/></clipPath><clipPath id="c2c7da5f76"><path d="M 97.566406 0.394531 C 44.242188 0.394531 1.011719 43.625 1.011719 96.949219 C 1.011719 150.277344 44.242188 193.507812 97.566406 193.507812 C 150.894531 193.507812 194.125 150.277344 194.125 96.949219 C 194.125 43.625 150.894531 0.394531 97.566406 0.394531 Z M 97.566406 0.394531 " clip-rule="nonzero"/></clipPath><clipPath id="ac4cd7bd15"><path d="M 0.0117188 0.394531 L 193.125 0.394531 L 193.125 193.507812 L 0.0117188 193.507812 Z M 0.0117188 0.394531 " clip-rule="nonzero"/></clipPath><clipPath id="5b02d7dbf8"><path d="M 96.566406 0.394531 C 43.242188 0.394531 0.0117188 43.625 0.0117188 96.949219 C 0.0117188 150.277344 43.242188 193.507812 96.566406 193.507812 C 149.894531 193.507812 193.125 150.277344 193.125 96.949219 C 193.125 43.625 149.894531 0.394531 96.566406 0.394531 Z M 96.566406 0.394531 " clip-rule="nonzero"/></clipPath><clipPath id="3fd50d66f4"><rect x="0" width="194" y="0" height="194"/></clipPath><clipPath id="f64d146cb3"><rect x="0" width="195" y="0" height="194"/></clipPath><mask id="94ee544ef5"><g filter="url(#188c7212f7)"><rect x="-553.39" width="1475.28" fill="#000000" y="-225.72" height="829.44" fill-opacity="0.15"/></g></mask><clipPath id="4abc8ce855"><path d="M 1.085938 0.667969 L 109.433594 0.667969 L 109.433594 109.011719 L 1.085938 109.011719 Z M 1.085938 0.667969 " clip-rule="nonzero"/></clipPath><clipPath id="ebc2fdd656"><path d="M 55.257812 0.667969 C 25.339844 0.667969 1.085938 24.921875 1.085938 54.839844 C 1.085938 84.757812 25.339844 109.011719 55.257812 109.011719 C 85.179688 109.011719 109.433594 84.757812 109.433594 54.839844 C 109.433594 24.921875 85.179688 0.667969 55.257812 0.667969 Z M 55.257812 0.667969 " clip-rule="nonzero"/></clipPath><clipPath id="eab33be5b2"><path d="M 0.0859375 0.667969 L 108.433594 0.667969 L 108.433594 109.011719 L 0.0859375 109.011719 Z M 0.0859375 0.667969 " clip-rule="nonzero"/></clipPath><clipPath id="878b1518ef"><path d="M 54.257812 0.667969 C 24.339844 0.667969 0.0859375 24.921875 0.0859375 54.839844 C 0.0859375 84.757812 24.339844 109.011719 54.257812 109.011719 C 84.179688 109.011719 108.433594 84.757812 108.433594 54.839844 C 108.433594 24.921875 84.179688 0.667969 54.257812 0.667969 Z M 54.257812 0.667969 " clip-rule="nonzero"/></clipPath><clipPath id="f4a82eb3ff"><rect x="0" width="109" y="0" height="110"/></clipPath><clipPath id="c91c43c6aa"><rect x="0" width="110" y="0" height="110"/></clipPath><clipPath id="c447ed1b63"><rect x="0" width="337" y="0" height="337"/></clipPath></defs><g clip-path="url(#d71c7b3792)"><g clip-path="url(#983d448539)"><g transform="matrix(1, 0, 0, 1, 282, 50)"><g clip-path="url(#85ac943184)"><g clip-path="url(#091dc3cd81)"><g clip-path="url(#11f7f7c38b)"><path fill="#7a0000" d="M 0.183594 0.460938 L 456.890625 0.460938 L 456.890625 457.167969 L 0.183594 457.167969 Z M 0.183594 0.460938 " fill-opacity="1" fill-rule="nonzero"/></g></g></g></g></g></g><g clip-path="url(#a75eafab50)"><g clip-path="url(#575967aa03)"><path stroke-linecap="butt" transform="matrix(0.749634, 0, 0, 0.749634, 282.182983, 50.460752)" fill="none" stroke-linejoin="miter" d="M 304.618171 0.000247378 C 136.379847 0.000247378 0.000814968 136.379279 0.000814968 304.617604 C 0.000814968 472.850718 136.379847 609.23496 304.618171 609.23496 C 472.851285 609.23496 609.235528 472.850718 609.235528 304.617604 C 609.235528 136.379279 472.851285 0.000247378 304.618171 0.000247378 Z M 304.618171 0.000247378 " stroke="#3d0000" stroke-width="8" stroke-opacity="1" stroke-miterlimit="4"/></g></g><g transform="matrix(1, 0, 0, 1, 328, 99)"><g clip-path="url(#c447ed1b63)"><g clip-path="url(#0c0cd79239)"><g mask="url(#0693224ce0)"><g transform="matrix(1, 0, 0, 1, 0, -0.000000000000056843)"><g clip-path="url(#2fdf2c5206)"><g clip-path="url(#cd667dc834)"><g clip-path="url(#d6f1385b44)"><g transform="matrix(1, 0, 0, 1, 0, -0.000000000000056843)"><g clip-path="url(#af13cdd719)"><g clip-path="url(#11175ce669)"><g clip-path="url(#ecde5edcef)"><path fill="#f2f0ef" d="M 0.59375 0.949219 L 336.273438 0.949219 L 336.273438 336.628906 L 0.59375 336.628906 Z M 0.59375 0.949219 " fill-opacity="1" fill-rule="nonzero"/></g></g></g></g></g></g></g></g></g></g><g mask="url(#e93cb80813)"><g transform="matrix(1, 0, 0, 1, 38, 31)"><g clip-path="url(#f64d146cb3)"><g clip-path="url(#3896eb08f5)"><g clip-path="url(#c2c7da5f76)"><g transform="matrix(1, 0, 0, 1, 1, -0.000000000000056843)"><g clip-path="url(#3fd50d66f4)"><g clip-path="url(#ac4cd7bd15)"><g clip-path="url(#5b02d7dbf8)"><path fill="#f2f0ef" d="M 0.0117188 0.394531 L 193.125 0.394531 L 193.125 193.507812 L 0.0117188 193.507812 Z M 0.0117188 0.394531 " fill-opacity="1" fill-rule="nonzero"/></g></g></g></g></g></g></g></g></g><g mask="url(#94ee544ef5)"><g transform="matrix(1, 0, 0, 1, 59, 53)"><g clip-path="url(#c91c43c6aa)"><g clip-path="url(#4abc8ce855)"><g clip-path="url(#ebc2fdd656)"><g transform="matrix(1, 0, 0, 1, 1, -0.000000000000056843)"><g clip-path="url(#f4a82eb3ff)"><g clip-path="url(#eab33be5b2)"><g clip-path="url(#878b1518ef)"><path fill="#f2f0ef" d="M 0.0859375 0.667969 L 108.433594 0.667969 L 108.433594 109.011719 L 0.0859375 109.011719 Z M 0.0859375 0.667969 " fill-opacity="1" fill-rule="nonzero"/></g></g></g></g></g></g></g></g></g></g></g></svg>