<svg xmlns="http://www.w3.org/2000/svg" xmlns:xlink="http://www.w3.org/1999/xlink" width="1366" zoomAndPan="magnify" viewBox="0 0 1024.5 576" height="768" preserveAspectRatio="xMidYMid meet" version="1.0"><defs><filter x="0%" y="0%" width="100%" height="100%" id="ef6cb1606c"><feColorMatrix values="0 0 0 0 1 0 0 0 0 1 0 0 0 0 1 0 0 0 1 0" color-interpolation-filters="sRGB"/></filter><g/><clipPath id="6ab07cb62b"><path d="M 0 0.140625 L 1024 0.140625 L 1024 575.859375 L 0 575.859375 Z M 0 0.140625 " clip-rule="nonzero"/></clipPath><clipPath id="9afcbbb536"><path d="M 282.183594 430.5625 L 358.789062 430.5625 L 358.789062 507.167969 L 282.183594 507.167969 Z M 282.183594 430.5625 " clip-rule="nonzero"/></clipPath><clipPath id="6e2d83aa59"><path d="M 320.484375 430.5625 C 299.332031 430.5625 282.183594 447.710938 282.183594 468.867188 C 282.183594 490.019531 299.332031 507.167969 320.484375 507.167969 C 341.640625 507.167969 358.789062 490.019531 358.789062 468.867188 C 358.789062 447.710938 341.640625 430.5625 320.484375 430.5625 Z M 320.484375 430.5625 " clip-rule="nonzero"/></clipPath><clipPath id="cdd5298e17"><path d="M 0.183594 0.5625 L 76.789062 0.5625 L 76.789062 77.167969 L 0.183594 77.167969 Z M 0.183594 0.5625 " clip-rule="nonzero"/></clipPath><clipPath id="f2c45b4df4"><path d="M 38.484375 0.5625 C 17.332031 0.5625 0.183594 17.710938 0.183594 38.867188 C 0.183594 60.019531 17.332031 77.167969 38.484375 77.167969 C 59.640625 77.167969 76.789062 60.019531 76.789062 38.867188 C 76.789062 17.710938 59.640625 0.5625 38.484375 0.5625 Z M 38.484375 0.5625 " clip-rule="nonzero"/></clipPath><clipPath id="c26804d287"><rect x="0" width="77" y="0" height="78"/></clipPath><clipPath id="035d21a990"><path d="M 282.183594 430.5625 L 358.644531 430.5625 L 358.644531 507.027344 L 282.183594 507.027344 Z M 282.183594 430.5625 " clip-rule="nonzero"/></clipPath><clipPath id="0dcf0c7463"><path d="M 320.484375 430.5625 C 299.332031 430.5625 282.183594 447.710938 282.183594 468.867188 C 282.183594 490.019531 299.332031 507.167969 320.484375 507.167969 C 341.636719 507.167969 358.785156 490.019531 358.785156 468.867188 C 358.785156 447.710938 341.636719 430.5625 320.484375 430.5625 Z M 320.484375 430.5625 " clip-rule="nonzero"/></clipPath><clipPath id="456dc2ad68"><path d="M 358.789062 430.5625 L 435.394531 430.5625 L 435.394531 507.167969 L 358.789062 507.167969 Z M 358.789062 430.5625 " clip-rule="nonzero"/></clipPath><clipPath id="fd2a174f03"><path d="M 397.089844 430.5625 C 375.9375 430.5625 358.789062 447.710938 358.789062 468.867188 C 358.789062 490.019531 375.9375 507.167969 397.089844 507.167969 C 418.246094 507.167969 435.394531 490.019531 435.394531 468.867188 C 435.394531 447.710938 418.246094 430.5625 397.089844 430.5625 Z M 397.089844 430.5625 " clip-rule="nonzero"/></clipPath><clipPath id="b024b83f26"><path d="M 0.789062 0.5625 L 77.394531 0.5625 L 77.394531 77.167969 L 0.789062 77.167969 Z M 0.789062 0.5625 " clip-rule="nonzero"/></clipPath><clipPath id="f26a9cf9b6"><path d="M 39.089844 0.5625 C 17.9375 0.5625 0.789062 17.710938 0.789062 38.867188 C 0.789062 60.019531 17.9375 77.167969 39.089844 77.167969 C 60.246094 77.167969 77.394531 60.019531 77.394531 38.867188 C 77.394531 17.710938 60.246094 0.5625 39.089844 0.5625 Z M 39.089844 0.5625 " clip-rule="nonzero"/></clipPath><clipPath id="9c07333413"><rect x="0" width="78" y="0" height="78"/></clipPath><clipPath id="b327704864"><path d="M 358.789062 430.5625 L 435.25 430.5625 L 435.25 507.027344 L 358.789062 507.027344 Z M 358.789062 430.5625 " clip-rule="nonzero"/></clipPath><clipPath id="ef50f87b0c"><path d="M 397.089844 430.5625 C 375.9375 430.5625 358.789062 447.710938 358.789062 468.867188 C 358.789062 490.019531 375.9375 507.167969 397.089844 507.167969 C 418.242188 507.167969 435.390625 490.019531 435.390625 468.867188 C 435.390625 447.710938 418.242188 430.5625 397.089844 430.5625 Z M 397.089844 430.5625 " clip-rule="nonzero"/></clipPath><clipPath id="99edeeb494"><path d="M 435.394531 430.5625 L 512 430.5625 L 512 507.167969 L 435.394531 507.167969 Z M 435.394531 430.5625 " clip-rule="nonzero"/></clipPath><clipPath id="cf6abfb7f3"><path d="M 473.695312 430.5625 C 452.542969 430.5625 435.394531 447.710938 435.394531 468.867188 C 435.394531 490.019531 452.542969 507.167969 473.695312 507.167969 C 494.851562 507.167969 512 490.019531 512 468.867188 C 512 447.710938 494.851562 430.5625 473.695312 430.5625 Z M 473.695312 430.5625 " clip-rule="nonzero"/></clipPath><clipPath id="c6f1a92236"><path d="M 0.394531 0.5625 L 77 0.5625 L 77 77.167969 L 0.394531 77.167969 Z M 0.394531 0.5625 " clip-rule="nonzero"/></clipPath><clipPath id="39e72b4d83"><path d="M 38.695312 0.5625 C 17.542969 0.5625 0.394531 17.710938 0.394531 38.867188 C 0.394531 60.019531 17.542969 77.167969 38.695312 77.167969 C 59.851562 77.167969 77 60.019531 77 38.867188 C 77 17.710938 59.851562 0.5625 38.695312 0.5625 Z M 38.695312 0.5625 " clip-rule="nonzero"/></clipPath><clipPath id="af21cb3d6e"><rect x="0" width="77" y="0" height="78"/></clipPath><clipPath id="8c39f50faa"><path d="M 435.394531 430.5625 L 511.855469 430.5625 L 511.855469 507.027344 L 435.394531 507.027344 Z M 435.394531 430.5625 " clip-rule="nonzero"/></clipPath><clipPath id="7c6bb57ac4"><path d="M 473.695312 430.5625 C 452.542969 430.5625 435.394531 447.710938 435.394531 468.867188 C 435.394531 490.019531 452.542969 507.167969 473.695312 507.167969 C 494.847656 507.167969 511.996094 490.019531 511.996094 468.867188 C 511.996094 447.710938 494.847656 430.5625 473.695312 430.5625 Z M 473.695312 430.5625 " clip-rule="nonzero"/></clipPath><clipPath id="d48ba781a8"><path d="M 512 430.5625 L 588.605469 430.5625 L 588.605469 507.167969 L 512 507.167969 Z M 512 430.5625 " clip-rule="nonzero"/></clipPath><clipPath id="38e8c6908c"><path d="M 550.304688 430.5625 C 529.148438 430.5625 512 447.710938 512 468.867188 C 512 490.019531 529.148438 507.167969 550.304688 507.167969 C 571.457031 507.167969 588.605469 490.019531 588.605469 468.867188 C 588.605469 447.710938 571.457031 430.5625 550.304688 430.5625 Z M 550.304688 430.5625 " clip-rule="nonzero"/></clipPath><clipPath id="1e951395fe"><path d="M 0 0.5625 L 76.605469 0.5625 L 76.605469 77.167969 L 0 77.167969 Z M 0 0.5625 " clip-rule="nonzero"/></clipPath><clipPath id="8faebf54b1"><path d="M 38.304688 0.5625 C 17.148438 0.5625 0 17.710938 0 38.867188 C 0 60.019531 17.148438 77.167969 38.304688 77.167969 C 59.457031 77.167969 76.605469 60.019531 76.605469 38.867188 C 76.605469 17.710938 59.457031 0.5625 38.304688 0.5625 Z M 38.304688 0.5625 " clip-rule="nonzero"/></clipPath><clipPath id="7f22f3721e"><rect x="0" width="77" y="0" height="78"/></clipPath><clipPath id="26053459af"><path d="M 512 430.5625 L 588.460938 430.5625 L 588.460938 507.027344 L 512 507.027344 Z M 512 430.5625 " clip-rule="nonzero"/></clipPath><clipPath id="7a4ef0d191"><path d="M 550.300781 430.5625 C 529.148438 430.5625 512 447.710938 512 468.867188 C 512 490.019531 529.148438 507.167969 550.300781 507.167969 C 571.457031 507.167969 588.601562 490.019531 588.601562 468.867188 C 588.601562 447.710938 571.457031 430.5625 550.300781 430.5625 Z M 550.300781 430.5625 " clip-rule="nonzero"/></clipPath><clipPath id="f7da14f32a"><path d="M 588.605469 430.5625 L 665.210938 430.5625 L 665.210938 507.167969 L 588.605469 507.167969 Z M 588.605469 430.5625 " clip-rule="nonzero"/></clipPath><clipPath id="e722c1637a"><path d="M 626.910156 430.5625 C 605.753906 430.5625 588.605469 447.710938 588.605469 468.867188 C 588.605469 490.019531 605.753906 507.167969 626.910156 507.167969 C 648.0625 507.167969 665.210938 490.019531 665.210938 468.867188 C 665.210938 447.710938 648.0625 430.5625 626.910156 430.5625 Z M 626.910156 430.5625 " clip-rule="nonzero"/></clipPath><clipPath id="f39f0294a2"><path d="M 0.605469 0.5625 L 77.210938 0.5625 L 77.210938 77.167969 L 0.605469 77.167969 Z M 0.605469 0.5625 " clip-rule="nonzero"/></clipPath><clipPath id="b46db99368"><path d="M 38.910156 0.5625 C 17.753906 0.5625 0.605469 17.710938 0.605469 38.867188 C 0.605469 60.019531 17.753906 77.167969 38.910156 77.167969 C 60.0625 77.167969 77.210938 60.019531 77.210938 38.867188 C 77.210938 17.710938 60.0625 0.5625 38.910156 0.5625 Z M 38.910156 0.5625 " clip-rule="nonzero"/></clipPath><clipPath id="e132cfa882"><rect x="0" width="78" y="0" height="78"/></clipPath><clipPath id="5cc8e2d58d"><path d="M 588.605469 430.5625 L 665.070312 430.5625 L 665.070312 507.027344 L 588.605469 507.027344 Z M 588.605469 430.5625 " clip-rule="nonzero"/></clipPath><clipPath id="7292ce4def"><path d="M 626.90625 430.5625 C 605.753906 430.5625 588.605469 447.710938 588.605469 468.867188 C 588.605469 490.019531 605.753906 507.167969 626.90625 507.167969 C 648.0625 507.167969 665.210938 490.019531 665.210938 468.867188 C 665.210938 447.710938 648.0625 430.5625 626.90625 430.5625 Z M 626.90625 430.5625 " clip-rule="nonzero"/></clipPath><clipPath id="b92aa5edf8"><path d="M 665.210938 430.5625 L 741.816406 430.5625 L 741.816406 507.167969 L 665.210938 507.167969 Z M 665.210938 430.5625 " clip-rule="nonzero"/></clipPath><clipPath id="d3c6a11758"><path d="M 703.515625 430.5625 C 682.359375 430.5625 665.210938 447.710938 665.210938 468.867188 C 665.210938 490.019531 682.359375 507.167969 703.515625 507.167969 C 724.667969 507.167969 741.816406 490.019531 741.816406 468.867188 C 741.816406 447.710938 724.667969 430.5625 703.515625 430.5625 Z M 703.515625 430.5625 " clip-rule="nonzero"/></clipPath><clipPath id="78daeab482"><path d="M 0.210938 0.5625 L 76.816406 0.5625 L 76.816406 77.167969 L 0.210938 77.167969 Z M 0.210938 0.5625 " clip-rule="nonzero"/></clipPath><clipPath id="a52dfbc80b"><path d="M 38.515625 0.5625 C 17.359375 0.5625 0.210938 17.710938 0.210938 38.867188 C 0.210938 60.019531 17.359375 77.167969 38.515625 77.167969 C 59.667969 77.167969 76.816406 60.019531 76.816406 38.867188 C 76.816406 17.710938 59.667969 0.5625 38.515625 0.5625 Z M 38.515625 0.5625 " clip-rule="nonzero"/></clipPath><clipPath id="6acf72bc0c"><rect x="0" width="77" y="0" height="78"/></clipPath><clipPath id="2e173bffa9"><path d="M 665.210938 430.5625 L 741.675781 430.5625 L 741.675781 507.027344 L 665.210938 507.027344 Z M 665.210938 430.5625 " clip-rule="nonzero"/></clipPath><clipPath id="11d181386d"><path d="M 703.511719 430.5625 C 682.359375 430.5625 665.210938 447.710938 665.210938 468.867188 C 665.210938 490.019531 682.359375 507.167969 703.511719 507.167969 C 724.667969 507.167969 741.816406 490.019531 741.816406 468.867188 C 741.816406 447.710938 724.667969 430.5625 703.511719 430.5625 Z M 703.511719 430.5625 " clip-rule="nonzero"/></clipPath><clipPath id="8cc365f367"><path d="M 202 135 L 813 135 L 813 575.859375 L 202 575.859375 Z M 202 135 " clip-rule="nonzero"/></clipPath><clipPath id="09d4d1e3f5"><path d="M 223.675781 534.503906 L 804.257812 534.503906 L 804.257812 575.859375 L 223.675781 575.859375 Z M 223.675781 534.503906 " clip-rule="nonzero"/></clipPath><clipPath id="e589bef11d"><path d="M 244.351562 534.503906 L 783.558594 534.503906 C 794.976562 534.503906 804.234375 543.761719 804.234375 555.183594 C 804.234375 566.601562 794.976562 575.859375 783.558594 575.859375 L 244.351562 575.859375 C 232.933594 575.859375 223.675781 566.601562 223.675781 555.183594 C 223.675781 543.761719 232.933594 534.503906 244.351562 534.503906 Z M 244.351562 534.503906 " clip-rule="nonzero"/></clipPath><clipPath id="315a2ba542"><path d="M 0.675781 0.503906 L 581.257812 0.503906 L 581.257812 41.859375 L 0.675781 41.859375 Z M 0.675781 0.503906 " clip-rule="nonzero"/></clipPath><clipPath id="d83f4a4b3d"><path d="M 21.351562 0.503906 L 560.558594 0.503906 C 571.976562 0.503906 581.234375 9.761719 581.234375 21.183594 C 581.234375 32.601562 571.976562 41.859375 560.558594 41.859375 L 21.351562 41.859375 C 9.933594 41.859375 0.675781 32.601562 0.675781 21.183594 C 0.675781 9.761719 9.933594 0.503906 21.351562 0.503906 Z M 21.351562 0.503906 " clip-rule="nonzero"/></clipPath><clipPath id="68756576d3"><rect x="0" width="582" y="0" height="42"/></clipPath><clipPath id="4cdf8a7445"><path d="M 205.996094 534.34375 L 247.351562 534.34375 L 247.351562 575.859375 L 205.996094 575.859375 Z M 205.996094 534.34375 " clip-rule="nonzero"/></clipPath><clipPath id="5c01ec6106"><path d="M 205.996094 575.859375 C 205.996094 564.96875 210.40625 554.320312 218.109375 546.617188 C 225.808594 538.914062 236.460938 534.503906 247.351562 534.503906 L 247.351562 575.859375 Z M 205.996094 575.859375 " clip-rule="nonzero"/></clipPath><clipPath id="9f6cdeab84"><path d="M 0.996094 0.359375 L 42.351562 0.359375 L 42.351562 41.859375 L 0.996094 41.859375 Z M 0.996094 0.359375 " clip-rule="nonzero"/></clipPath><clipPath id="92a05ec2f0"><path d="M 0.996094 41.859375 C 0.996094 30.96875 5.40625 20.320312 13.109375 12.617188 C 20.808594 4.914062 31.460938 0.503906 42.351562 0.503906 L 42.351562 41.859375 Z M 0.996094 41.859375 " clip-rule="nonzero"/></clipPath><clipPath id="bba649c860"><rect x="0" width="43" y="0" height="42"/></clipPath><clipPath id="1ea7364ec8"><path d="M 783.550781 534.503906 L 825 534.503906 L 825 575.859375 L 783.550781 575.859375 Z M 783.550781 534.503906 " clip-rule="nonzero"/></clipPath><clipPath id="3b66535d7c"><path d="M 783.550781 534.503906 C 794.441406 534.503906 805.089844 538.914062 812.792969 546.617188 C 820.492188 554.320312 824.90625 564.96875 824.90625 575.859375 L 783.550781 575.859375 Z M 783.550781 534.503906 " clip-rule="nonzero"/></clipPath><clipPath id="bd44f7a1ef"><path d="M 0.550781 0.503906 L 41.957031 0.503906 L 41.957031 41.859375 L 0.550781 41.859375 Z M 0.550781 0.503906 " clip-rule="nonzero"/></clipPath><clipPath id="1460cbf5c1"><path d="M 0.550781 0.503906 C 11.441406 0.503906 22.089844 4.914062 29.792969 12.617188 C 37.492188 20.320312 41.90625 30.96875 41.90625 41.859375 L 0.550781 41.859375 Z M 0.550781 0.503906 " clip-rule="nonzero"/></clipPath><clipPath id="bdb6589358"><rect x="0" width="42" y="0" height="42"/></clipPath><mask id="f58159b2d2"><g filter="url(#ef6cb1606c)"><rect x="-102.45" width="1229.4" fill="#000000" y="-57.6" height="691.2" fill-opacity="0.2"/></g></mask><clipPath id="a45be4a66b"><path d="M 0.96875 0.863281 L 57.273438 0.863281 L 57.273438 57.167969 L 0.96875 57.167969 Z M 0.96875 0.863281 " clip-rule="nonzero"/></clipPath><clipPath id="9bc029277c"><path d="M 29.121094 0.863281 C 13.570312 0.863281 0.96875 13.46875 0.96875 29.015625 C 0.96875 44.566406 13.570312 57.167969 29.121094 57.167969 C 44.667969 57.167969 57.273438 44.566406 57.273438 29.015625 C 57.273438 13.46875 44.667969 0.863281 29.121094 0.863281 Z M 29.121094 0.863281 " clip-rule="nonzero"/></clipPath><clipPath id="cc1e99c2b7"><path d="M 0.96875 0.863281 L 57.273438 0.863281 L 57.273438 57.167969 L 0.96875 57.167969 Z M 0.96875 0.863281 " clip-rule="nonzero"/></clipPath><clipPath id="d5e5aefacb"><path d="M 29.121094 0.863281 C 13.570312 0.863281 0.96875 13.46875 0.96875 29.015625 C 0.96875 44.566406 13.570312 57.167969 29.121094 57.167969 C 44.667969 57.167969 57.273438 44.566406 57.273438 29.015625 C 57.273438 13.46875 44.667969 0.863281 29.121094 0.863281 Z M 29.121094 0.863281 " clip-rule="nonzero"/></clipPath><clipPath id="f9ea969cb2"><rect x="0" width="58" y="0" height="58"/></clipPath><clipPath id="47b8fc0a70"><rect x="0" width="58" y="0" height="58"/></clipPath><mask id="21610dd929"><g filter="url(#ef6cb1606c)"><rect x="-102.45" width="1229.4" fill="#000000" y="-57.6" height="691.2" fill-opacity="0.15"/></g></mask><clipPath id="f4cb183f8e"><path d="M 0.410156 0.972656 L 32.804688 0.972656 L 32.804688 33.363281 L 0.410156 33.363281 Z M 0.410156 0.972656 " clip-rule="nonzero"/></clipPath><clipPath id="1aee2e3ca3"><path d="M 16.609375 0.972656 C 7.664062 0.972656 0.410156 8.222656 0.410156 17.167969 C 0.410156 26.113281 7.664062 33.363281 16.609375 33.363281 C 25.550781 33.363281 32.804688 26.113281 32.804688 17.167969 C 32.804688 8.222656 25.550781 0.972656 16.609375 0.972656 Z M 16.609375 0.972656 " clip-rule="nonzero"/></clipPath><clipPath id="29db031541"><path d="M 0.410156 0.972656 L 32.804688 0.972656 L 32.804688 33.363281 L 0.410156 33.363281 Z M 0.410156 0.972656 " clip-rule="nonzero"/></clipPath><clipPath id="7837c12305"><path d="M 16.609375 0.972656 C 7.664062 0.972656 0.410156 8.222656 0.410156 17.167969 C 0.410156 26.113281 7.664062 33.363281 16.609375 33.363281 C 25.550781 33.363281 32.804688 26.113281 32.804688 17.167969 C 32.804688 8.222656 25.550781 0.972656 16.609375 0.972656 Z M 16.609375 0.972656 " clip-rule="nonzero"/></clipPath><clipPath id="3093b80633"><rect x="0" width="33" y="0" height="34"/></clipPath><clipPath id="c4ff737134"><rect x="0" width="33" y="0" height="34"/></clipPath><mask id="1a43e64200"><g filter="url(#ef6cb1606c)"><rect x="-102.45" width="1229.4" fill="#000000" y="-57.6" height="691.2" fill-opacity="0.15"/></g></mask><clipPath id="8503dad0c0"><path d="M 0.945312 0.707031 L 19.121094 0.707031 L 19.121094 18.878906 L 0.945312 18.878906 Z M 0.945312 0.707031 " clip-rule="nonzero"/></clipPath><clipPath id="08ce637d64"><path d="M 10.035156 0.707031 C 5.015625 0.707031 0.945312 4.777344 0.945312 9.792969 C 0.945312 14.8125 5.015625 18.878906 10.035156 18.878906 C 15.050781 18.878906 19.121094 14.8125 19.121094 9.792969 C 19.121094 4.777344 15.050781 0.707031 10.035156 0.707031 Z M 10.035156 0.707031 " clip-rule="nonzero"/></clipPath><clipPath id="9a8cf31222"><path d="M 0.945312 0.707031 L 19.121094 0.707031 L 19.121094 18.878906 L 0.945312 18.878906 Z M 0.945312 0.707031 " clip-rule="nonzero"/></clipPath><clipPath id="4f176e0832"><path d="M 10.035156 0.707031 C 5.015625 0.707031 0.945312 4.777344 0.945312 9.792969 C 0.945312 14.8125 5.015625 18.878906 10.035156 18.878906 C 15.050781 18.878906 19.121094 14.8125 19.121094 9.792969 C 19.121094 4.777344 15.050781 0.707031 10.035156 0.707031 Z M 10.035156 0.707031 " clip-rule="nonzero"/></clipPath><clipPath id="1673353ceb"><rect x="0" width="20" y="0" height="19"/></clipPath><clipPath id="88c44e4a0a"><rect x="0" width="20" y="0" height="19"/></clipPath><mask id="df7a7d73da"><g filter="url(#ef6cb1606c)"><rect x="-102.45" width="1229.4" fill="#000000" y="-57.6" height="691.2" fill-opacity="0.2"/></g></mask><clipPath id="b429f82fd3"><path d="M 0.632812 1.113281 L 56.9375 1.113281 L 56.9375 57.421875 L 0.632812 57.421875 Z M 0.632812 1.113281 " clip-rule="nonzero"/></clipPath><clipPath id="64695ae13c"><path d="M 28.785156 1.113281 C 13.234375 1.113281 0.632812 13.71875 0.632812 29.269531 C 0.632812 44.816406 13.234375 57.421875 28.785156 57.421875 C 44.332031 57.421875 56.9375 44.816406 56.9375 29.269531 C 56.9375 13.71875 44.332031 1.113281 28.785156 1.113281 Z M 28.785156 1.113281 " clip-rule="nonzero"/></clipPath><clipPath id="fcbf7de403"><path d="M 0.632812 0.113281 L 56.9375 0.113281 L 56.9375 56.421875 L 0.632812 56.421875 Z M 0.632812 0.113281 " clip-rule="nonzero"/></clipPath><clipPath id="5f1c7cdaa4"><path d="M 28.785156 0.113281 C 13.234375 0.113281 0.632812 12.71875 0.632812 28.269531 C 0.632812 43.816406 13.234375 56.421875 28.785156 56.421875 C 44.332031 56.421875 56.9375 43.816406 56.9375 28.269531 C 56.9375 12.71875 44.332031 0.113281 28.785156 0.113281 Z M 28.785156 0.113281 " clip-rule="nonzero"/></clipPath><clipPath id="c17d0bcddd"><rect x="0" width="57" y="0" height="57"/></clipPath><clipPath id="095198f700"><rect x="0" width="58" y="0" height="58"/></clipPath><mask id="c9a297eade"><g filter="url(#ef6cb1606c)"><rect x="-102.45" width="1229.4" fill="#000000" y="-57.6" height="691.2" fill-opacity="0.15"/></g></mask><clipPath id="adfd296f2c"><path d="M 0.0742188 0.222656 L 32.46875 0.222656 L 32.46875 32.613281 L 0.0742188 32.613281 Z M 0.0742188 0.222656 " clip-rule="nonzero"/></clipPath><clipPath id="62497d5b23"><path d="M 16.273438 0.222656 C 7.328125 0.222656 0.0742188 7.472656 0.0742188 16.417969 C 0.0742188 25.363281 7.328125 32.613281 16.273438 32.613281 C 25.214844 32.613281 32.46875 25.363281 32.46875 16.417969 C 32.46875 7.472656 25.214844 0.222656 16.273438 0.222656 Z M 16.273438 0.222656 " clip-rule="nonzero"/></clipPath><clipPath id="86bd8d2139"><path d="M 0.0742188 0.222656 L 32.46875 0.222656 L 32.46875 32.613281 L 0.0742188 32.613281 Z M 0.0742188 0.222656 " clip-rule="nonzero"/></clipPath><clipPath id="d45d49fa31"><path d="M 16.273438 0.222656 C 7.328125 0.222656 0.0742188 7.472656 0.0742188 16.417969 C 0.0742188 25.363281 7.328125 32.613281 16.273438 32.613281 C 25.214844 32.613281 32.46875 25.363281 32.46875 16.417969 C 32.46875 7.472656 25.214844 0.222656 16.273438 0.222656 Z M 16.273438 0.222656 " clip-rule="nonzero"/></clipPath><clipPath id="8cbb109147"><rect x="0" width="33" y="0" height="33"/></clipPath><clipPath id="e152755cb9"><rect x="0" width="33" y="0" height="33"/></clipPath><mask id="6ad7563123"><g filter="url(#ef6cb1606c)"><rect x="-102.45" width="1229.4" fill="#000000" y="-57.6" height="691.2" fill-opacity="0.15"/></g></mask><clipPath id="5fd68e10cd"><path d="M 0.609375 0.957031 L 18.785156 0.957031 L 18.785156 19.132812 L 0.609375 19.132812 Z M 0.609375 0.957031 " clip-rule="nonzero"/></clipPath><clipPath id="a137f2b134"><path d="M 9.699219 0.957031 C 4.679688 0.957031 0.609375 5.027344 0.609375 10.042969 C 0.609375 15.0625 4.679688 19.132812 9.699219 19.132812 C 14.714844 19.132812 18.785156 15.0625 18.785156 10.042969 C 18.785156 5.027344 14.714844 0.957031 9.699219 0.957031 Z M 9.699219 0.957031 " clip-rule="nonzero"/></clipPath><clipPath id="2c87aef41d"><path d="M 0.609375 0.957031 L 18.785156 0.957031 L 18.785156 19.132812 L 0.609375 19.132812 Z M 0.609375 0.957031 " clip-rule="nonzero"/></clipPath><clipPath id="0ee8049c9b"><path d="M 9.699219 0.957031 C 4.679688 0.957031 0.609375 5.027344 0.609375 10.042969 C 0.609375 15.0625 4.679688 19.132812 9.699219 19.132812 C 14.714844 19.132812 18.785156 15.0625 18.785156 10.042969 C 18.785156 5.027344 14.714844 0.957031 9.699219 0.957031 Z M 9.699219 0.957031 " clip-rule="nonzero"/></clipPath><clipPath id="7449ca7da5"><rect x="0" width="19" y="0" height="20"/></clipPath><clipPath id="7d268fc3b5"><rect x="0" width="19" y="0" height="20"/></clipPath><mask id="3ed7be7ff6"><g filter="url(#ef6cb1606c)"><rect x="-102.45" width="1229.4" fill="#000000" y="-57.6" height="691.2" fill-opacity="0.2"/></g></mask><clipPath id="485057f018"><path d="M 0.890625 1.113281 L 57.195312 1.113281 L 57.195312 57.421875 L 0.890625 57.421875 Z M 0.890625 1.113281 " clip-rule="nonzero"/></clipPath><clipPath id="3f8f3a279a"><path d="M 29.042969 1.113281 C 13.496094 1.113281 0.890625 13.71875 0.890625 29.269531 C 0.890625 44.816406 13.496094 57.421875 29.042969 57.421875 C 44.589844 57.421875 57.195312 44.816406 57.195312 29.269531 C 57.195312 13.71875 44.589844 1.113281 29.042969 1.113281 Z M 29.042969 1.113281 " clip-rule="nonzero"/></clipPath><clipPath id="3b2b37be95"><path d="M 0.890625 0.113281 L 57.195312 0.113281 L 57.195312 56.421875 L 0.890625 56.421875 Z M 0.890625 0.113281 " clip-rule="nonzero"/></clipPath><clipPath id="42f9737580"><path d="M 29.042969 0.113281 C 13.496094 0.113281 0.890625 12.71875 0.890625 28.269531 C 0.890625 43.816406 13.496094 56.421875 29.042969 56.421875 C 44.589844 56.421875 57.195312 43.816406 57.195312 28.269531 C 57.195312 12.71875 44.589844 0.113281 29.042969 0.113281 Z M 29.042969 0.113281 " clip-rule="nonzero"/></clipPath><clipPath id="21b0e76fa0"><rect x="0" width="58" y="0" height="57"/></clipPath><clipPath id="f0e8e36fdf"><rect x="0" width="58" y="0" height="58"/></clipPath><mask id="aca762a9e3"><g filter="url(#ef6cb1606c)"><rect x="-102.45" width="1229.4" fill="#000000" y="-57.6" height="691.2" fill-opacity="0.15"/></g></mask><clipPath id="e6c5f52659"><path d="M 0.335938 0.222656 L 32.726562 0.222656 L 32.726562 32.613281 L 0.335938 32.613281 Z M 0.335938 0.222656 " clip-rule="nonzero"/></clipPath><clipPath id="8b078ed212"><path d="M 16.53125 0.222656 C 7.585938 0.222656 0.335938 7.472656 0.335938 16.417969 C 0.335938 25.363281 7.585938 32.613281 16.53125 32.613281 C 25.476562 32.613281 32.726562 25.363281 32.726562 16.417969 C 32.726562 7.472656 25.476562 0.222656 16.53125 0.222656 Z M 16.53125 0.222656 " clip-rule="nonzero"/></clipPath><clipPath id="cca56440e6"><path d="M 0.335938 0.222656 L 32.726562 0.222656 L 32.726562 32.613281 L 0.335938 32.613281 Z M 0.335938 0.222656 " clip-rule="nonzero"/></clipPath><clipPath id="38f543c8b1"><path d="M 16.53125 0.222656 C 7.585938 0.222656 0.335938 7.472656 0.335938 16.417969 C 0.335938 25.363281 7.585938 32.613281 16.53125 32.613281 C 25.476562 32.613281 32.726562 25.363281 32.726562 16.417969 C 32.726562 7.472656 25.476562 0.222656 16.53125 0.222656 Z M 16.53125 0.222656 " clip-rule="nonzero"/></clipPath><clipPath id="163ee773d8"><rect x="0" width="33" y="0" height="33"/></clipPath><clipPath id="1f712d65d9"><rect x="0" width="33" y="0" height="33"/></clipPath><mask id="a0b1f5f219"><g filter="url(#ef6cb1606c)"><rect x="-102.45" width="1229.4" fill="#000000" y="-57.6" height="691.2" fill-opacity="0.15"/></g></mask><clipPath id="0773b0eceb"><path d="M 0.871094 0.957031 L 19.042969 0.957031 L 19.042969 19.132812 L 0.871094 19.132812 Z M 0.871094 0.957031 " clip-rule="nonzero"/></clipPath><clipPath id="d78a442cb8"><path d="M 9.957031 0.957031 C 4.9375 0.957031 0.871094 5.027344 0.871094 10.042969 C 0.871094 15.0625 4.9375 19.132812 9.957031 19.132812 C 14.976562 19.132812 19.042969 15.0625 19.042969 10.042969 C 19.042969 5.027344 14.976562 0.957031 9.957031 0.957031 Z M 9.957031 0.957031 " clip-rule="nonzero"/></clipPath><clipPath id="d48b93c5cb"><path d="M 0.871094 0.957031 L 19.042969 0.957031 L 19.042969 19.132812 L 0.871094 19.132812 Z M 0.871094 0.957031 " clip-rule="nonzero"/></clipPath><clipPath id="c3fd2d40e9"><path d="M 9.957031 0.957031 C 4.9375 0.957031 0.871094 5.027344 0.871094 10.042969 C 0.871094 15.0625 4.9375 19.132812 9.957031 19.132812 C 14.976562 19.132812 19.042969 15.0625 19.042969 10.042969 C 19.042969 5.027344 14.976562 0.957031 9.957031 0.957031 Z M 9.957031 0.957031 " clip-rule="nonzero"/></clipPath><clipPath id="671e695a76"><rect x="0" width="20" y="0" height="20"/></clipPath><clipPath id="fa3a7c76fa"><rect x="0" width="20" y="0" height="20"/></clipPath><mask id="18da007437"><g filter="url(#ef6cb1606c)"><rect x="-102.45" width="1229.4" fill="#000000" y="-57.6" height="691.2" fill-opacity="0.2"/></g></mask><clipPath id="6c4e3ae676"><path d="M 0.496094 1.113281 L 56.800781 1.113281 L 56.800781 57.421875 L 0.496094 57.421875 Z M 0.496094 1.113281 " clip-rule="nonzero"/></clipPath><clipPath id="ff5273b1b4"><path d="M 28.648438 1.113281 C 13.101562 1.113281 0.496094 13.71875 0.496094 29.269531 C 0.496094 44.816406 13.101562 57.421875 28.648438 57.421875 C 44.195312 57.421875 56.800781 44.816406 56.800781 29.269531 C 56.800781 13.71875 44.195312 1.113281 28.648438 1.113281 Z M 28.648438 1.113281 " clip-rule="nonzero"/></clipPath><clipPath id="12c8a30b98"><path d="M 0.496094 0.113281 L 56.800781 0.113281 L 56.800781 56.421875 L 0.496094 56.421875 Z M 0.496094 0.113281 " clip-rule="nonzero"/></clipPath><clipPath id="191211a7c3"><path d="M 28.648438 0.113281 C 13.101562 0.113281 0.496094 12.71875 0.496094 28.269531 C 0.496094 43.816406 13.101562 56.421875 28.648438 56.421875 C 44.195312 56.421875 56.800781 43.816406 56.800781 28.269531 C 56.800781 12.71875 44.195312 0.113281 28.648438 0.113281 Z M 28.648438 0.113281 " clip-rule="nonzero"/></clipPath><clipPath id="4968631750"><rect x="0" width="57" y="0" height="57"/></clipPath><clipPath id="e06a321f71"><rect x="0" width="57" y="0" height="58"/></clipPath><mask id="9f5d802d20"><g filter="url(#ef6cb1606c)"><rect x="-102.45" width="1229.4" fill="#000000" y="-57.6" height="691.2" fill-opacity="0.15"/></g></mask><clipPath id="485c18d4e0"><path d="M 0.941406 0.222656 L 33.332031 0.222656 L 33.332031 32.613281 L 0.941406 32.613281 Z M 0.941406 0.222656 " clip-rule="nonzero"/></clipPath><clipPath id="04000fd476"><path d="M 17.136719 0.222656 C 8.191406 0.222656 0.941406 7.472656 0.941406 16.417969 C 0.941406 25.363281 8.191406 32.613281 17.136719 32.613281 C 26.082031 32.613281 33.332031 25.363281 33.332031 16.417969 C 33.332031 7.472656 26.082031 0.222656 17.136719 0.222656 Z M 17.136719 0.222656 " clip-rule="nonzero"/></clipPath><clipPath id="0228aa3fb5"><path d="M 0.941406 0.222656 L 33.332031 0.222656 L 33.332031 32.613281 L 0.941406 32.613281 Z M 0.941406 0.222656 " clip-rule="nonzero"/></clipPath><clipPath id="157b16ae1a"><path d="M 17.136719 0.222656 C 8.191406 0.222656 0.941406 7.472656 0.941406 16.417969 C 0.941406 25.363281 8.191406 32.613281 17.136719 32.613281 C 26.082031 32.613281 33.332031 25.363281 33.332031 16.417969 C 33.332031 7.472656 26.082031 0.222656 17.136719 0.222656 Z M 17.136719 0.222656 " clip-rule="nonzero"/></clipPath><clipPath id="0ead9e5a6d"><rect x="0" width="34" y="0" height="33"/></clipPath><clipPath id="b5b1da4830"><rect x="0" width="34" y="0" height="33"/></clipPath><mask id="76838ad8ef"><g filter="url(#ef6cb1606c)"><rect x="-102.45" width="1229.4" fill="#000000" y="-57.6" height="691.2" fill-opacity="0.15"/></g></mask><clipPath id="54bfe0f262"><path d="M 0.476562 0.957031 L 18.648438 0.957031 L 18.648438 19.132812 L 0.476562 19.132812 Z M 0.476562 0.957031 " clip-rule="nonzero"/></clipPath><clipPath id="b9252a2d12"><path d="M 9.5625 0.957031 C 4.542969 0.957031 0.476562 5.027344 0.476562 10.042969 C 0.476562 15.0625 4.542969 19.132812 9.5625 19.132812 C 14.582031 19.132812 18.648438 15.0625 18.648438 10.042969 C 18.648438 5.027344 14.582031 0.957031 9.5625 0.957031 Z M 9.5625 0.957031 " clip-rule="nonzero"/></clipPath><clipPath id="081d8ce000"><path d="M 0.476562 0.957031 L 18.648438 0.957031 L 18.648438 19.132812 L 0.476562 19.132812 Z M 0.476562 0.957031 " clip-rule="nonzero"/></clipPath><clipPath id="b4049279bd"><path d="M 9.5625 0.957031 C 4.542969 0.957031 0.476562 5.027344 0.476562 10.042969 C 0.476562 15.0625 4.542969 19.132812 9.5625 19.132812 C 14.582031 19.132812 18.648438 15.0625 18.648438 10.042969 C 18.648438 5.027344 14.582031 0.957031 9.5625 0.957031 Z M 9.5625 0.957031 " clip-rule="nonzero"/></clipPath><clipPath id="719304b654"><rect x="0" width="19" y="0" height="20"/></clipPath><clipPath id="e5da6b1a04"><rect x="0" width="19" y="0" height="20"/></clipPath><mask id="85b2d486b2"><g filter="url(#ef6cb1606c)"><rect x="-102.45" width="1229.4" fill="#000000" y="-57.6" height="691.2" fill-opacity="0.2"/></g></mask><clipPath id="1e2f789cd4"><path d="M 1.101562 1.113281 L 57.40625 1.113281 L 57.40625 57.421875 L 1.101562 57.421875 Z M 1.101562 1.113281 " clip-rule="nonzero"/></clipPath><clipPath id="2a813e04b3"><path d="M 29.253906 1.113281 C 13.707031 1.113281 1.101562 13.71875 1.101562 29.269531 C 1.101562 44.816406 13.707031 57.421875 29.253906 57.421875 C 44.804688 57.421875 57.40625 44.816406 57.40625 29.269531 C 57.40625 13.71875 44.804688 1.113281 29.253906 1.113281 Z M 29.253906 1.113281 " clip-rule="nonzero"/></clipPath><clipPath id="ee44fe002e"><path d="M 0.101562 0.113281 L 56.40625 0.113281 L 56.40625 56.421875 L 0.101562 56.421875 Z M 0.101562 0.113281 " clip-rule="nonzero"/></clipPath><clipPath id="8432de082d"><path d="M 28.253906 0.113281 C 12.707031 0.113281 0.101562 12.71875 0.101562 28.269531 C 0.101562 43.816406 12.707031 56.421875 28.253906 56.421875 C 43.804688 56.421875 56.40625 43.816406 56.40625 28.269531 C 56.40625 12.71875 43.804688 0.113281 28.253906 0.113281 Z M 28.253906 0.113281 " clip-rule="nonzero"/></clipPath><clipPath id="81e4f25624"><rect x="0" width="57" y="0" height="57"/></clipPath><clipPath id="b35bbb2064"><rect x="0" width="58" y="0" height="58"/></clipPath><mask id="1c386ebfe5"><g filter="url(#ef6cb1606c)"><rect x="-102.45" width="1229.4" fill="#000000" y="-57.6" height="691.2" fill-opacity="0.15"/></g></mask><clipPath id="3b724c3da8"><path d="M 0.546875 0.222656 L 32.9375 0.222656 L 32.9375 32.613281 L 0.546875 32.613281 Z M 0.546875 0.222656 " clip-rule="nonzero"/></clipPath><clipPath id="02edae790b"><path d="M 16.742188 0.222656 C 7.796875 0.222656 0.546875 7.472656 0.546875 16.417969 C 0.546875 25.363281 7.796875 32.613281 16.742188 32.613281 C 25.6875 32.613281 32.9375 25.363281 32.9375 16.417969 C 32.9375 7.472656 25.6875 0.222656 16.742188 0.222656 Z M 16.742188 0.222656 " clip-rule="nonzero"/></clipPath><clipPath id="e4a95f2736"><path d="M 0.546875 0.222656 L 32.9375 0.222656 L 32.9375 32.613281 L 0.546875 32.613281 Z M 0.546875 0.222656 " clip-rule="nonzero"/></clipPath><clipPath id="a80fac7f53"><path d="M 16.742188 0.222656 C 7.796875 0.222656 0.546875 7.472656 0.546875 16.417969 C 0.546875 25.363281 7.796875 32.613281 16.742188 32.613281 C 25.6875 32.613281 32.9375 25.363281 32.9375 16.417969 C 32.9375 7.472656 25.6875 0.222656 16.742188 0.222656 Z M 16.742188 0.222656 " clip-rule="nonzero"/></clipPath><clipPath id="e41f87cae0"><rect x="0" width="33" y="0" height="33"/></clipPath><clipPath id="b3c8474d4c"><rect x="0" width="33" y="0" height="33"/></clipPath><mask id="c06f89139b"><g filter="url(#ef6cb1606c)"><rect x="-102.45" width="1229.4" fill="#000000" y="-57.6" height="691.2" fill-opacity="0.15"/></g></mask><clipPath id="e810740a57"><path d="M 1.082031 0.957031 L 19.253906 0.957031 L 19.253906 19.132812 L 1.082031 19.132812 Z M 1.082031 0.957031 " clip-rule="nonzero"/></clipPath><clipPath id="ee7a74b966"><path d="M 10.167969 0.957031 C 5.148438 0.957031 1.082031 5.027344 1.082031 10.042969 C 1.082031 15.0625 5.148438 19.132812 10.167969 19.132812 C 15.1875 19.132812 19.253906 15.0625 19.253906 10.042969 C 19.253906 5.027344 15.1875 0.957031 10.167969 0.957031 Z M 10.167969 0.957031 " clip-rule="nonzero"/></clipPath><clipPath id="53bfb4124d"><path d="M 0.0820312 0.957031 L 18.253906 0.957031 L 18.253906 19.132812 L 0.0820312 19.132812 Z M 0.0820312 0.957031 " clip-rule="nonzero"/></clipPath><clipPath id="a28d6c65c7"><path d="M 9.167969 0.957031 C 4.148438 0.957031 0.0820312 5.027344 0.0820312 10.042969 C 0.0820312 15.0625 4.148438 19.132812 9.167969 19.132812 C 14.1875 19.132812 18.253906 15.0625 18.253906 10.042969 C 18.253906 5.027344 14.1875 0.957031 9.167969 0.957031 Z M 9.167969 0.957031 " clip-rule="nonzero"/></clipPath><clipPath id="1d75b1fc3e"><rect x="0" width="19" y="0" height="20"/></clipPath><clipPath id="565ed771bf"><rect x="0" width="20" y="0" height="20"/></clipPath><mask id="c5aaad401a"><g filter="url(#ef6cb1606c)"><rect x="-102.45" width="1229.4" fill="#000000" y="-57.6" height="691.2" fill-opacity="0.2"/></g></mask><clipPath id="58ac683122"><path d="M 0.707031 1.113281 L 57.011719 1.113281 L 57.011719 57.421875 L 0.707031 57.421875 Z M 0.707031 1.113281 " clip-rule="nonzero"/></clipPath><clipPath id="fef4e4898c"><path d="M 28.859375 1.113281 C 13.3125 1.113281 0.707031 13.71875 0.707031 29.269531 C 0.707031 44.816406 13.3125 57.421875 28.859375 57.421875 C 44.410156 57.421875 57.011719 44.816406 57.011719 29.269531 C 57.011719 13.71875 44.410156 1.113281 28.859375 1.113281 Z M 28.859375 1.113281 " clip-rule="nonzero"/></clipPath><clipPath id="b833ee3cf7"><path d="M 0.707031 0.113281 L 57.011719 0.113281 L 57.011719 56.421875 L 0.707031 56.421875 Z M 0.707031 0.113281 " clip-rule="nonzero"/></clipPath><clipPath id="1ed89a2990"><path d="M 28.859375 0.113281 C 13.3125 0.113281 0.707031 12.71875 0.707031 28.269531 C 0.707031 43.816406 13.3125 56.421875 28.859375 56.421875 C 44.410156 56.421875 57.011719 43.816406 57.011719 28.269531 C 57.011719 12.71875 44.410156 0.113281 28.859375 0.113281 Z M 28.859375 0.113281 " clip-rule="nonzero"/></clipPath><clipPath id="2ed6509eaa"><rect x="0" width="58" y="0" height="57"/></clipPath><clipPath id="4496c3a23a"><rect x="0" width="58" y="0" height="58"/></clipPath><mask id="2440d89365"><g filter="url(#ef6cb1606c)"><rect x="-102.45" width="1229.4" fill="#000000" y="-57.6" height="691.2" fill-opacity="0.15"/></g></mask><clipPath id="ed759f7701"><path d="M 0.152344 0.222656 L 32.542969 0.222656 L 32.542969 32.613281 L 0.152344 32.613281 Z M 0.152344 0.222656 " clip-rule="nonzero"/></clipPath><clipPath id="a1480a29fe"><path d="M 16.347656 0.222656 C 7.402344 0.222656 0.152344 7.472656 0.152344 16.417969 C 0.152344 25.363281 7.402344 32.613281 16.347656 32.613281 C 25.292969 32.613281 32.542969 25.363281 32.542969 16.417969 C 32.542969 7.472656 25.292969 0.222656 16.347656 0.222656 Z M 16.347656 0.222656 " clip-rule="nonzero"/></clipPath><clipPath id="a1873398a6"><path d="M 0.152344 0.222656 L 32.542969 0.222656 L 32.542969 32.613281 L 0.152344 32.613281 Z M 0.152344 0.222656 " clip-rule="nonzero"/></clipPath><clipPath id="3164b8d6c1"><path d="M 16.347656 0.222656 C 7.402344 0.222656 0.152344 7.472656 0.152344 16.417969 C 0.152344 25.363281 7.402344 32.613281 16.347656 32.613281 C 25.292969 32.613281 32.542969 25.363281 32.542969 16.417969 C 32.542969 7.472656 25.292969 0.222656 16.347656 0.222656 Z M 16.347656 0.222656 " clip-rule="nonzero"/></clipPath><clipPath id="cdef5f534f"><rect x="0" width="33" y="0" height="33"/></clipPath><clipPath id="cd7574161e"><rect x="0" width="33" y="0" height="33"/></clipPath><mask id="8a571eaa91"><g filter="url(#ef6cb1606c)"><rect x="-102.45" width="1229.4" fill="#000000" y="-57.6" height="691.2" fill-opacity="0.15"/></g></mask><clipPath id="7eeacdc28e"><path d="M 0.6875 0.957031 L 18.859375 0.957031 L 18.859375 19.132812 L 0.6875 19.132812 Z M 0.6875 0.957031 " clip-rule="nonzero"/></clipPath><clipPath id="338d053726"><path d="M 9.773438 0.957031 C 4.753906 0.957031 0.6875 5.027344 0.6875 10.042969 C 0.6875 15.0625 4.753906 19.132812 9.773438 19.132812 C 14.792969 19.132812 18.859375 15.0625 18.859375 10.042969 C 18.859375 5.027344 14.792969 0.957031 9.773438 0.957031 Z M 9.773438 0.957031 " clip-rule="nonzero"/></clipPath><clipPath id="48bdf4fde5"><path d="M 0.6875 0.957031 L 18.859375 0.957031 L 18.859375 19.132812 L 0.6875 19.132812 Z M 0.6875 0.957031 " clip-rule="nonzero"/></clipPath><clipPath id="53cb46d844"><path d="M 9.773438 0.957031 C 4.753906 0.957031 0.6875 5.027344 0.6875 10.042969 C 0.6875 15.0625 4.753906 19.132812 9.773438 19.132812 C 14.792969 19.132812 18.859375 15.0625 18.859375 10.042969 C 18.859375 5.027344 14.792969 0.957031 9.773438 0.957031 Z M 9.773438 0.957031 " clip-rule="nonzero"/></clipPath><clipPath id="ef931e0ce6"><rect x="0" width="19" y="0" height="20"/></clipPath><clipPath id="8957cf045f"><rect x="0" width="19" y="0" height="20"/></clipPath><clipPath id="f1a2f05efb"><path d="M 214 541 L 813 541 L 813 575.859375 L 214 575.859375 Z M 214 541 " clip-rule="nonzero"/></clipPath><mask id="a451229993"><g filter="url(#ef6cb1606c)"><rect x="-102.45" width="1229.4" fill="#000000" y="-57.6" height="691.2" fill-opacity="0.1"/></g></mask><clipPath id="dd4addf8dd"><path d="M 0.695312 0.796875 L 598.484375 0.796875 L 598.484375 34.859375 L 0.695312 34.859375 Z M 0.695312 0.796875 " clip-rule="nonzero"/></clipPath><clipPath id="5940b240a1"><path d="M 17.980469 0.84375 L 578.304688 0.84375 L 578.304688 34.859375 L 17.980469 34.859375 Z M 17.980469 0.84375 " clip-rule="nonzero"/></clipPath><clipPath id="f60ea7a1ba"><path d="M 38.191406 0.84375 L 558.085938 0.84375 C 569.246094 0.84375 578.292969 9.890625 578.292969 21.050781 C 578.292969 32.210938 569.246094 41.261719 558.085938 41.261719 L 38.191406 41.261719 C 27.027344 41.261719 17.980469 32.210938 17.980469 21.050781 C 17.980469 9.890625 27.027344 0.84375 38.191406 0.84375 Z M 38.191406 0.84375 " clip-rule="nonzero"/></clipPath><clipPath id="9795ad322e"><path d="M 0.980469 0.84375 L 561.304688 0.84375 L 561.304688 34.859375 L 0.980469 34.859375 Z M 0.980469 0.84375 " clip-rule="nonzero"/></clipPath><clipPath id="738a2f5471"><path d="M 21.191406 0.84375 L 541.085938 0.84375 C 552.246094 0.84375 561.292969 9.890625 561.292969 21.050781 C 561.292969 32.210938 552.246094 41.261719 541.085938 41.261719 L 21.191406 41.261719 C 10.027344 41.261719 0.980469 32.210938 0.980469 21.050781 C 0.980469 9.890625 10.027344 0.84375 21.191406 0.84375 Z M 21.191406 0.84375 " clip-rule="nonzero"/></clipPath><clipPath id="6fbc0c1597"><rect x="0" width="562" y="0" height="35"/></clipPath><clipPath id="8e7badfae8"><path d="M 0.917969 0.84375 L 40.832031 0.84375 L 40.832031 34.859375 L 0.917969 34.859375 Z M 0.917969 0.84375 " clip-rule="nonzero"/></clipPath><clipPath id="6634644487"><path d="M 0.917969 41.261719 C 0.917969 30.617188 5.175781 20.207031 12.609375 12.679688 C 20.042969 5.152344 30.320312 0.84375 40.832031 0.84375 L 40.832031 41.261719 Z M 0.917969 41.261719 " clip-rule="nonzero"/></clipPath><clipPath id="b068be4b44"><path d="M 0.917969 0.84375 L 40.832031 0.84375 L 40.832031 34.859375 L 0.917969 34.859375 Z M 0.917969 0.84375 " clip-rule="nonzero"/></clipPath><clipPath id="15312bf23f"><path d="M 0.917969 41.261719 C 0.917969 30.617188 5.175781 20.207031 12.609375 12.679688 C 20.042969 5.152344 30.320312 0.84375 40.832031 0.84375 L 40.832031 41.261719 Z M 0.917969 41.261719 " clip-rule="nonzero"/></clipPath><clipPath id="e2e4c29d5c"><rect x="0" width="41" y="0" height="35"/></clipPath><clipPath id="cea80dd7f5"><path d="M 558.332031 0.84375 L 598.398438 0.84375 L 598.398438 34.859375 L 558.332031 34.859375 Z M 558.332031 0.84375 " clip-rule="nonzero"/></clipPath><clipPath id="6c1d143197"><path d="M 558.332031 0.84375 C 568.84375 0.84375 579.121094 5.15625 586.554688 12.679688 C 593.988281 20.207031 598.246094 30.617188 598.246094 41.261719 L 558.332031 41.261719 Z M 558.332031 0.84375 " clip-rule="nonzero"/></clipPath><clipPath id="c8ebd91561"><path d="M 0.332031 0.84375 L 40.398438 0.84375 L 40.398438 34.859375 L 0.332031 34.859375 Z M 0.332031 0.84375 " clip-rule="nonzero"/></clipPath><clipPath id="397cd90235"><path d="M 0.332031 0.84375 C 10.84375 0.84375 21.121094 5.15625 28.554688 12.679688 C 35.988281 20.207031 40.246094 30.617188 40.246094 41.261719 L 0.332031 41.261719 Z M 0.332031 0.84375 " clip-rule="nonzero"/></clipPath><clipPath id="fa05bfe1ea"><rect x="0" width="41" y="0" height="35"/></clipPath><clipPath id="d0e6777016"><rect x="0" width="599" y="0" height="35"/></clipPath><clipPath id="77cf73616b"><rect x="0" width="599" y="0" height="35"/></clipPath><clipPath id="54248cf82e"><path d="M 224 549 L 800 549 L 800 575.859375 L 224 575.859375 Z M 224 549 " clip-rule="nonzero"/></clipPath><mask id="c692c37acd"><g filter="url(#ef6cb1606c)"><rect x="-102.45" width="1229.4" fill="#000000" y="-57.6" height="691.2" fill-opacity="0.07"/></g></mask><clipPath id="a67ea16dcd"><path d="M 0.289062 0.472656 L 575.53125 0.472656 L 575.53125 26.859375 L 0.289062 26.859375 Z M 0.289062 0.472656 " clip-rule="nonzero"/></clipPath><clipPath id="bc5aaf1d81"><path d="M 16.929688 0.574219 L 556.304688 0.574219 L 556.304688 26.859375 L 16.929688 26.859375 Z M 16.929688 0.574219 " clip-rule="nonzero"/></clipPath><clipPath id="04c44ab94d"><path d="M 36.140625 0.574219 L 537.074219 0.574219 C 547.683594 0.574219 556.28125 9.175781 556.28125 19.785156 C 556.28125 30.394531 547.683594 38.992188 537.074219 38.992188 L 36.140625 38.992188 C 25.53125 38.992188 16.929688 30.394531 16.929688 19.785156 C 16.929688 9.175781 25.53125 0.574219 36.140625 0.574219 Z M 36.140625 0.574219 " clip-rule="nonzero"/></clipPath><clipPath id="3a2c1ceaba"><path d="M 0.929688 0.574219 L 540.304688 0.574219 L 540.304688 26.859375 L 0.929688 26.859375 Z M 0.929688 0.574219 " clip-rule="nonzero"/></clipPath><clipPath id="294661bc88"><path d="M 20.140625 0.574219 L 521.074219 0.574219 C 531.683594 0.574219 540.28125 9.175781 540.28125 19.785156 C 540.28125 30.394531 531.683594 38.992188 521.074219 38.992188 L 20.140625 38.992188 C 9.53125 38.992188 0.929688 30.394531 0.929688 19.785156 C 0.929688 9.175781 9.53125 0.574219 20.140625 0.574219 Z M 20.140625 0.574219 " clip-rule="nonzero"/></clipPath><clipPath id="3be4166ab1"><rect x="0" width="541" y="0" height="27"/></clipPath><clipPath id="ee3e00be37"><path d="M 0.507812 0.472656 L 38.925781 0.472656 L 38.925781 26.859375 L 0.507812 26.859375 Z M 0.507812 0.472656 " clip-rule="nonzero"/></clipPath><clipPath id="b4c0790c00"><path d="M 0.507812 38.992188 C 0.507812 28.875 4.605469 18.980469 11.761719 11.828125 C 18.914062 4.671875 28.808594 0.574219 38.925781 0.574219 L 38.925781 38.992188 Z M 0.507812 38.992188 " clip-rule="nonzero"/></clipPath><clipPath id="96e63d4365"><path d="M 0.507812 0.472656 L 38.925781 0.472656 L 38.925781 26.859375 L 0.507812 26.859375 Z M 0.507812 0.472656 " clip-rule="nonzero"/></clipPath><clipPath id="9be4b9435b"><path d="M 0.507812 38.992188 C 0.507812 28.875 4.605469 18.980469 11.761719 11.828125 C 18.914062 4.671875 28.808594 0.574219 38.925781 0.574219 L 38.925781 38.992188 Z M 0.507812 38.992188 " clip-rule="nonzero"/></clipPath><clipPath id="38c05f48d4"><rect x="0" width="39" y="0" height="27"/></clipPath><clipPath id="7e4a0c8d9e"><path d="M 537.066406 0.574219 L 575.53125 0.574219 L 575.53125 26.859375 L 537.066406 26.859375 Z M 537.066406 0.574219 " clip-rule="nonzero"/></clipPath><clipPath id="ce4771f992"><path d="M 537.066406 0.574219 C 547.183594 0.574219 557.078125 4.671875 564.234375 11.828125 C 571.386719 18.980469 575.484375 28.875 575.484375 38.992188 L 537.066406 38.992188 Z M 537.066406 0.574219 " clip-rule="nonzero"/></clipPath><clipPath id="932cbccf59"><path d="M 0.0664062 0.574219 L 38.53125 0.574219 L 38.53125 26.859375 L 0.0664062 26.859375 Z M 0.0664062 0.574219 " clip-rule="nonzero"/></clipPath><clipPath id="bdf9c90e98"><path d="M 0.0664062 0.574219 C 10.183594 0.574219 20.078125 4.671875 27.234375 11.828125 C 34.386719 18.980469 38.484375 28.875 38.484375 38.992188 L 0.0664062 38.992188 Z M 0.0664062 0.574219 " clip-rule="nonzero"/></clipPath><clipPath id="102ec96166"><rect x="0" width="39" y="0" height="27"/></clipPath><clipPath id="0b519f83e7"><rect x="0" width="576" y="0" height="27"/></clipPath><clipPath id="cb6bfb2c85"><rect x="0" width="576" y="0" height="27"/></clipPath></defs><g clip-path="url(#6ab07cb62b)"><path fill="#ffffff" d="M 0 0.140625 L 1024 0.140625 L 1024 575.859375 L 0 575.859375 Z M 0 0.140625 " fill-opacity="1" fill-rule="nonzero"/><path fill="#f2f0ef" d="M 0 0.140625 L 1024 0.140625 L 1024 575.859375 L 0 575.859375 Z M 0 0.140625 " fill-opacity="1" fill-rule="nonzero"/></g><g clip-path="url(#9afcbbb536)"><g clip-path="url(#6e2d83aa59)"><g transform="matrix(1, 0, 0, 1, 282, 430)"><g clip-path="url(#c26804d287)"><g clip-path="url(#cdd5298e17)"><g clip-path="url(#f2c45b4df4)"><path fill="#7a0000" d="M 0.183594 0.5625 L 76.789062 0.5625 L 76.789062 77.167969 L 0.183594 77.167969 Z M 0.183594 0.5625 " fill-opacity="1" fill-rule="nonzero"/></g></g></g></g></g></g><g clip-path="url(#035d21a990)"><g clip-path="url(#0dcf0c7463)"><path stroke-linecap="butt" transform="matrix(0.749634, 0, 0, 0.749634, 282.182983, 430.563961)" fill="none" stroke-linejoin="miter" d="M 51.093449 -0.00194858 C 22.876558 -0.00194858 0.000814968 22.873795 0.000814968 51.095896 C 0.000814968 79.312787 22.876558 102.18853 51.093449 102.18853 C 79.310339 102.18853 102.186082 79.312787 102.186082 51.095896 C 102.186082 22.873795 79.310339 -0.00194858 51.093449 -0.00194858 Z M 51.093449 -0.00194858 " stroke="#3d0000" stroke-width="8" stroke-opacity="1" stroke-miterlimit="4"/></g></g><g clip-path="url(#456dc2ad68)"><g clip-path="url(#fd2a174f03)"><g transform="matrix(1, 0, 0, 1, 358, 430)"><g clip-path="url(#9c07333413)"><g clip-path="url(#b024b83f26)"><g clip-path="url(#f26a9cf9b6)"><path fill="#cc4e00" d="M 0.789062 0.5625 L 77.394531 0.5625 L 77.394531 77.167969 L 0.789062 77.167969 Z M 0.789062 0.5625 " fill-opacity="1" fill-rule="nonzero"/></g></g></g></g></g></g><g clip-path="url(#b327704864)"><g clip-path="url(#ef50f87b0c)"><path stroke-linecap="butt" transform="matrix(0.749634, 0, 0, 0.749634, 358.788681, 430.563961)" fill="none" stroke-linejoin="miter" d="M 51.093143 -0.00194858 C 22.876252 -0.00194858 0.000509238 22.873795 0.000509238 51.095896 C 0.000509238 79.312787 22.876252 102.18853 51.093143 102.18853 C 79.310033 102.18853 102.185777 79.312787 102.185777 51.095896 C 102.185777 22.873795 79.310033 -0.00194858 51.093143 -0.00194858 Z M 51.093143 -0.00194858 " stroke="#7a2f00" stroke-width="8" stroke-opacity="1" stroke-miterlimit="4"/></g></g><g clip-path="url(#99edeeb494)"><g clip-path="url(#cf6abfb7f3)"><g transform="matrix(1, 0, 0, 1, 435, 430)"><g clip-path="url(#af21cb3d6e)"><g clip-path="url(#c6f1a92236)"><g clip-path="url(#39e72b4d83)"><path fill="#cca300" d="M 0.394531 0.5625 L 77 0.5625 L 77 77.167969 L 0.394531 77.167969 Z M 0.394531 0.5625 " fill-opacity="1" fill-rule="nonzero"/></g></g></g></g></g></g><g clip-path="url(#8c39f50faa)"><g clip-path="url(#7c6bb57ac4)"><path stroke-linecap="butt" transform="matrix(0.749634, 0, 0, 0.749634, 435.394403, 430.563961)" fill="none" stroke-linejoin="miter" d="M 51.092805 -0.00194858 C 22.875915 -0.00194858 0.000171508 22.873795 0.000171508 51.095896 C 0.000171508 79.312787 22.875915 102.18853 51.092805 102.18853 C 79.309696 102.18853 102.185439 79.312787 102.185439 51.095896 C 102.185439 22.873795 79.309696 -0.00194858 51.092805 -0.00194858 Z M 51.092805 -0.00194858 " stroke="#7a6200" stroke-width="8" stroke-opacity="1" stroke-miterlimit="4"/></g></g><g clip-path="url(#d48ba781a8)"><g clip-path="url(#38e8c6908c)"><g transform="matrix(1, 0, 0, 1, 512, 430)"><g clip-path="url(#7f22f3721e)"><g clip-path="url(#1e951395fe)"><g clip-path="url(#8faebf54b1)"><path fill="#457a00" d="M 0 0.5625 L 76.605469 0.5625 L 76.605469 77.167969 L 0 77.167969 Z M 0 0.5625 " fill-opacity="1" fill-rule="nonzero"/></g></g></g></g></g></g><g clip-path="url(#26053459af)"><g clip-path="url(#7a4ef0d191)"><path stroke-linecap="butt" transform="matrix(0.749634, 0, 0, 0.749634, 512.000101, 430.563961)" fill="none" stroke-linejoin="miter" d="M 51.092499 -0.00194858 C 22.875609 -0.00194858 -0.000134223 22.873795 -0.000134223 51.095896 C -0.000134223 79.312787 22.875609 102.18853 51.092499 102.18853 C 79.314601 102.18853 102.185133 79.312787 102.185133 51.095896 C 102.185133 22.873795 79.314601 -0.00194858 51.092499 -0.00194858 Z M 51.092499 -0.00194858 " stroke="#233d00" stroke-width="8" stroke-opacity="1" stroke-miterlimit="4"/></g></g><g clip-path="url(#f7da14f32a)"><g clip-path="url(#e722c1637a)"><g transform="matrix(1, 0, 0, 1, 588, 430)"><g clip-path="url(#e132cfa882)"><g clip-path="url(#f39f0294a2)"><g clip-path="url(#b46db99368)"><path fill="#004e7a" d="M 0.605469 0.5625 L 77.210938 0.5625 L 77.210938 77.167969 L 0.605469 77.167969 Z M 0.605469 0.5625 " fill-opacity="1" fill-rule="nonzero"/></g></g></g></g></g></g><g clip-path="url(#5cc8e2d58d)"><g clip-path="url(#7292ce4def)"><path stroke-linecap="butt" transform="matrix(0.749634, 0, 0, 0.749634, 588.605799, 430.563961)" fill="none" stroke-linejoin="miter" d="M 51.092194 -0.00194858 C 22.875303 -0.00194858 -0.000439953 22.873795 -0.000439953 51.095896 C -0.000439953 79.312787 22.875303 102.18853 51.092194 102.18853 C 79.314295 102.18853 102.190038 79.312787 102.190038 51.095896 C 102.190038 22.873795 79.314295 -0.00194858 51.092194 -0.00194858 Z M 51.092194 -0.00194858 " stroke="#00273d" stroke-width="8" stroke-opacity="1" stroke-miterlimit="4"/></g></g><g clip-path="url(#b92aa5edf8)"><g clip-path="url(#d3c6a11758)"><g transform="matrix(1, 0, 0, 1, 665, 430)"><g clip-path="url(#6acf72bc0c)"><g clip-path="url(#78daeab482)"><g clip-path="url(#a52dfbc80b)"><path fill="#401268" d="M 0.210938 0.5625 L 76.816406 0.5625 L 76.816406 77.167969 L 0.210938 77.167969 Z M 0.210938 0.5625 " fill-opacity="1" fill-rule="nonzero"/></g></g></g></g></g></g><g clip-path="url(#2e173bffa9)"><g clip-path="url(#11d181386d)"><path stroke-linecap="butt" transform="matrix(0.749634, 0, 0, 0.749634, 665.211496, 430.563961)" fill="none" stroke-linejoin="miter" d="M 51.091888 -0.00194858 C 22.874998 -0.00194858 -0.000745683 22.873795 -0.000745683 51.095896 C -0.000745683 79.312787 22.874998 102.18853 51.091888 102.18853 C 79.313989 102.18853 102.189733 79.312787 102.189733 51.095896 C 102.189733 22.873795 79.313989 -0.00194858 51.091888 -0.00194858 Z M 51.091888 -0.00194858 " stroke="#200934" stroke-width="8" stroke-opacity="1" stroke-miterlimit="4"/></g></g><g clip-path="url(#8cc365f367)"><path stroke-linecap="butt" transform="matrix(0.749634, 0, 0, 0.749634, 232.046853, 162.683366)" fill="none" stroke-linejoin="miter" d="M 0.0000286856 528.112108 L 10.338406 528.112108 C 16.049525 528.112108 20.676782 523.47964 20.676782 517.773731 L 20.676782 27.498094 C 20.676782 14.246837 31.421608 3.502012 44.678075 3.502012 L 710.435154 3.502012 C 723.691621 3.502012 734.436446 14.246837 734.436446 27.498094 L 734.436446 523.589068 " stroke="#3b3432" stroke-width="7" stroke-opacity="1" stroke-miterlimit="4"/></g><path stroke-linecap="butt" transform="matrix(0, -0.749634, 0.749634, 0, 395.591117, 430.562809)" fill="none" stroke-linejoin="miter" d="M 0.000412579 1.999277 L 354.50148 1.999277 " stroke="#3b3432" stroke-width="4" stroke-opacity="1" stroke-miterlimit="4"/><path stroke-linecap="butt" transform="matrix(0, -0.749634, 0.749634, 0, 473.6961, 430.562809)" fill="none" stroke-linejoin="miter" d="M 0.000412579 1.999925 L 354.50148 1.999925 " stroke="#3b3432" stroke-width="4" stroke-opacity="1" stroke-miterlimit="4"/><path stroke-linecap="butt" transform="matrix(0, -0.749634, 0.749634, 0, 550.301846, 430.562809)" fill="none" stroke-linejoin="miter" d="M 0.000412579 1.999556 L 354.50148 1.999556 " stroke="#3b3432" stroke-width="4" stroke-opacity="1" stroke-miterlimit="4"/><path stroke-linecap="butt" transform="matrix(0, -0.749634, 0.749634, 0, 623.837499, 430.562809)" fill="none" stroke-linejoin="miter" d="M 0.000412579 1.998894 L 354.50148 1.998894 " stroke="#3b3432" stroke-width="4" stroke-opacity="1" stroke-miterlimit="4"/><path stroke-linecap="butt" transform="matrix(0, -0.749634, 0.749634, 0, 320.556197, 430.562809)" fill="none" stroke-linejoin="miter" d="M 0.000412579 1.998963 L 354.50148 1.998963 " stroke="#3b3432" stroke-width="4" stroke-opacity="1" stroke-miterlimit="4"/><path stroke-linecap="butt" transform="matrix(0, -0.749634, 0.749634, 0, 703.441709, 430.562809)" fill="none" stroke-linejoin="miter" d="M 0.000412579 2.000572 L 354.50148 2.000572 " stroke="#3b3432" stroke-width="4" stroke-opacity="1" stroke-miterlimit="4"/><g clip-path="url(#09d4d1e3f5)"><g clip-path="url(#e589bef11d)"><g transform="matrix(1, 0, 0, 1, 223, 534)"><g clip-path="url(#68756576d3)"><g clip-path="url(#315a2ba542)"><g clip-path="url(#d83f4a4b3d)"><path fill="#3b3430" d="M 0.675781 0.503906 L 581.257812 0.503906 L 581.257812 41.859375 L 0.675781 41.859375 Z M 0.675781 0.503906 " fill-opacity="1" fill-rule="nonzero"/></g></g></g></g></g></g><g clip-path="url(#4cdf8a7445)"><g clip-path="url(#5c01ec6106)"><g transform="matrix(1, 0, 0, 1, 205, 534)"><g clip-path="url(#bba649c860)"><g clip-path="url(#9f6cdeab84)"><g clip-path="url(#92a05ec2f0)"><path fill="#3b3431" d="M 0.996094 0.503906 L 42.351562 0.503906 L 42.351562 41.859375 L 0.996094 41.859375 Z M 0.996094 0.503906 " fill-opacity="1" fill-rule="nonzero"/></g></g></g></g></g></g><g clip-path="url(#1ea7364ec8)"><g clip-path="url(#3b66535d7c)"><g transform="matrix(1, 0, 0, 1, 783, 534)"><g clip-path="url(#bdb6589358)"><g clip-path="url(#bd44f7a1ef)"><g clip-path="url(#1460cbf5c1)"><path fill="#3b3431" d="M 41.90625 0.503906 L 41.90625 41.859375 L 0.550781 41.859375 L 0.550781 0.503906 Z M 41.90625 0.503906 " fill-opacity="1" fill-rule="nonzero"/></g></g></g></g></g></g><g fill="#3b3430" fill-opacity="1"><g transform="translate(247.245861, 142.433976)"><g><path d="M 4.109375 0 L 4.109375 -37.78125 L 20.671875 -37.78125 C 23.046875 -37.78125 25.203125 -37.265625 27.140625 -36.234375 C 29.085938 -35.210938 30.632812 -33.773438 31.78125 -31.921875 C 32.9375 -30.066406 33.515625 -27.898438 33.515625 -25.421875 C 33.515625 -22.898438 32.875 -20.675781 31.59375 -18.75 C 30.320312 -16.820312 28.601562 -15.394531 26.4375 -14.46875 L 30.5 -6.265625 C 30.78125 -5.679688 31.09375 -5.253906 31.4375 -4.984375 C 31.78125 -4.722656 32.273438 -4.59375 32.921875 -4.59375 L 35.625 -4.59375 L 35.625 0 L 32.109375 0 C 30.703125 0 29.46875 -0.359375 28.40625 -1.078125 C 27.351562 -1.796875 26.484375 -2.769531 25.796875 -4 L 21.265625 -13.21875 C 20.898438 -13.1875 20.507812 -13.160156 20.09375 -13.140625 C 19.6875 -13.117188 19.265625 -13.109375 18.828125 -13.109375 L 9.28125 -13.109375 L 9.28125 0 Z M 9.28125 -17.703125 L 19.96875 -17.703125 C 21.507812 -17.703125 22.921875 -18.003906 24.203125 -18.609375 C 25.484375 -19.222656 26.488281 -20.101562 27.21875 -21.25 C 27.957031 -22.40625 28.328125 -23.796875 28.328125 -25.421875 C 28.328125 -27.078125 27.945312 -28.476562 27.1875 -29.625 C 26.4375 -30.78125 25.429688 -31.660156 24.171875 -32.265625 C 22.910156 -32.878906 21.523438 -33.1875 20.015625 -33.1875 L 9.28125 -33.1875 Z M 9.28125 -17.703125 "/></g></g></g><g fill="#3b3430" fill-opacity="1"><g transform="translate(282.760543, 142.433976)"><g><path d="M 17.921875 0 C 14.898438 0 12.21875 -0.566406 9.875 -1.703125 C 7.539062 -2.835938 5.710938 -4.4375 4.390625 -6.5 C 3.078125 -8.570312 2.421875 -10.992188 2.421875 -13.765625 C 2.421875 -16.492188 2.976562 -18.945312 4.09375 -21.125 C 5.21875 -23.300781 6.769531 -25.019531 8.75 -26.28125 C 10.726562 -27.539062 13.03125 -28.171875 15.65625 -28.171875 C 18.5 -28.171875 20.863281 -27.554688 22.75 -26.328125 C 24.632812 -25.109375 26.046875 -23.460938 26.984375 -21.390625 C 27.921875 -19.328125 28.390625 -17.019531 28.390625 -14.46875 C 28.390625 -14.070312 28.378906 -13.65625 28.359375 -13.21875 C 28.335938 -12.789062 28.289062 -12.414062 28.21875 -12.09375 L 7.71875 -12.09375 C 7.894531 -10.394531 8.453125 -8.960938 9.390625 -7.796875 C 10.328125 -6.628906 11.523438 -5.75 12.984375 -5.15625 C 14.441406 -4.5625 16.050781 -4.265625 17.8125 -4.265625 L 24.984375 -4.265625 L 24.984375 0 Z M 7.65625 -15.59375 L 23.375 -15.59375 C 23.375 -16.28125 23.300781 -17.007812 23.15625 -17.78125 C 23.007812 -18.550781 22.753906 -19.304688 22.390625 -20.046875 C 22.035156 -20.785156 21.5625 -21.453125 20.96875 -22.046875 C 20.375 -22.640625 19.632812 -23.113281 18.75 -23.46875 C 17.875 -23.832031 16.84375 -24.015625 15.65625 -24.015625 C 14.394531 -24.015625 13.285156 -23.769531 12.328125 -23.28125 C 11.378906 -22.800781 10.5625 -22.15625 9.875 -21.34375 C 9.1875 -20.53125 8.660156 -19.617188 8.296875 -18.609375 C 7.941406 -17.609375 7.726562 -16.601562 7.65625 -15.59375 Z M 7.65625 -15.59375 "/></g></g></g><g fill="#3b3430" fill-opacity="1"><g transform="translate(313.525534, 142.433976)"><g><path d="M 3.9375 0 L 3.9375 -16.5625 C 3.9375 -18.6875 4.421875 -20.628906 5.390625 -22.390625 C 6.367188 -24.160156 7.773438 -25.566406 9.609375 -26.609375 C 11.441406 -27.648438 13.65625 -28.171875 16.25 -28.171875 C 17.507812 -28.171875 18.765625 -28 20.015625 -27.65625 C 21.273438 -27.3125 22.445312 -26.734375 23.53125 -25.921875 C 24.613281 -25.117188 25.476562 -24.035156 26.125 -22.671875 L 26.171875 -22.671875 C 26.890625 -24.035156 27.789062 -25.117188 28.875 -25.921875 C 29.957031 -26.734375 31.125 -27.3125 32.375 -27.65625 C 33.632812 -28 34.914062 -28.171875 36.21875 -28.171875 C 38.769531 -28.171875 40.960938 -27.648438 42.796875 -26.609375 C 44.628906 -25.566406 46.03125 -24.160156 47 -22.390625 C 47.976562 -20.628906 48.46875 -18.6875 48.46875 -16.5625 L 48.46875 0 L 43.5 0 L 43.5 -16.5625 C 43.5 -17.9375 43.175781 -19.179688 42.53125 -20.296875 C 41.882812 -21.410156 41.007812 -22.289062 39.90625 -22.9375 C 38.8125 -23.582031 37.5625 -23.90625 36.15625 -23.90625 C 34.789062 -23.90625 33.53125 -23.570312 32.375 -22.90625 C 31.226562 -22.238281 30.320312 -21.359375 29.65625 -20.265625 C 28.988281 -19.171875 28.65625 -17.9375 28.65625 -16.5625 L 28.65625 0 L 23.6875 0 L 23.6875 -16.5625 C 23.6875 -17.9375 23.351562 -19.171875 22.6875 -20.265625 C 22.03125 -21.359375 21.132812 -22.238281 20 -22.90625 C 18.863281 -23.570312 17.59375 -23.90625 16.1875 -23.90625 C 14.820312 -23.90625 13.585938 -23.582031 12.484375 -22.9375 C 11.390625 -22.289062 10.519531 -21.410156 9.875 -20.296875 C 9.226562 -19.179688 8.90625 -17.9375 8.90625 -16.5625 L 8.90625 0 Z M 3.9375 0 "/></g></g></g><g fill="#3b3430" fill-opacity="1"><g transform="translate(365.933979, 142.433976)"><g><path d="M 3.9375 0 L 3.9375 -27.53125 L 8.953125 -27.53125 L 8.953125 0 Z M 6.484375 -31.90625 C 5.578125 -31.90625 4.789062 -32.238281 4.125 -32.90625 C 3.46875 -33.570312 3.140625 -34.351562 3.140625 -35.25 C 3.140625 -36.144531 3.46875 -36.925781 4.125 -37.59375 C 4.789062 -38.257812 5.578125 -38.59375 6.484375 -38.59375 C 7.378906 -38.59375 8.160156 -38.257812 8.828125 -37.59375 C 9.492188 -36.925781 9.828125 -36.144531 9.828125 -35.25 C 9.828125 -34.351562 9.492188 -33.570312 8.828125 -32.90625 C 8.160156 -32.238281 7.378906 -31.90625 6.484375 -31.90625 Z M 6.484375 -31.90625 "/></g></g></g><g fill="#3b3430" fill-opacity="1"><g transform="translate(378.779711, 142.433976)"><g><path d="M 3.9375 0 L 3.9375 -15.921875 C 3.9375 -18.367188 4.484375 -20.507812 5.578125 -22.34375 C 6.679688 -24.175781 8.203125 -25.601562 10.140625 -26.625 C 12.085938 -27.65625 14.300781 -28.171875 16.78125 -28.171875 C 19.300781 -28.171875 21.523438 -27.65625 23.453125 -26.625 C 25.378906 -25.601562 26.890625 -24.175781 27.984375 -22.34375 C 29.078125 -20.507812 29.625 -18.367188 29.625 -15.921875 L 29.625 0 L 24.65625 0 L 24.65625 -15.859375 C 24.65625 -17.515625 24.285156 -18.945312 23.546875 -20.15625 C 22.816406 -21.363281 21.847656 -22.289062 20.640625 -22.9375 C 19.429688 -23.582031 18.144531 -23.90625 16.78125 -23.90625 C 15.414062 -23.90625 14.128906 -23.582031 12.921875 -22.9375 C 11.722656 -22.289062 10.753906 -21.363281 10.015625 -20.15625 C 9.273438 -18.945312 8.90625 -17.515625 8.90625 -15.859375 L 8.90625 0 Z M 3.9375 0 "/></g></g></g><g fill="#3b3430" fill-opacity="1"><g transform="translate(412.351334, 142.433976)"><g><path d="M 8.09375 10.953125 L 8.09375 6.6875 L 21.59375 6.6875 C 22.914062 6.6875 23.945312 6.289062 24.6875 5.5 C 25.425781 4.707031 25.796875 3.664062 25.796875 2.375 L 25.796875 -5.1875 L 25.6875 -5.1875 C 25 -4.132812 24.171875 -3.195312 23.203125 -2.375 C 22.234375 -1.550781 21.117188 -0.894531 19.859375 -0.40625 C 18.597656 0.0820312 17.175781 0.328125 15.59375 0.328125 C 13.007812 0.328125 10.726562 -0.273438 8.75 -1.484375 C 6.769531 -2.691406 5.21875 -4.363281 4.09375 -6.5 C 2.976562 -8.644531 2.421875 -11.101562 2.421875 -13.875 C 2.421875 -16.570312 2.976562 -19 4.09375 -21.15625 C 5.21875 -23.3125 6.832031 -25.019531 8.9375 -26.28125 C 11.039062 -27.539062 13.582031 -28.171875 16.5625 -28.171875 C 19.445312 -28.171875 21.945312 -27.554688 24.0625 -26.328125 C 26.1875 -25.109375 27.832031 -23.410156 29 -21.234375 C 30.175781 -19.054688 30.765625 -16.507812 30.765625 -13.59375 L 30.765625 2.703125 C 30.765625 5.210938 30.023438 7.210938 28.546875 8.703125 C 27.078125 10.203125 25.0625 10.953125 22.5 10.953125 Z M 16.515625 -3.9375 C 18.347656 -3.9375 19.957031 -4.367188 21.34375 -5.234375 C 22.726562 -6.097656 23.804688 -7.273438 24.578125 -8.765625 C 25.359375 -10.265625 25.75 -11.945312 25.75 -13.8125 C 25.75 -15.71875 25.367188 -17.425781 24.609375 -18.9375 C 23.847656 -20.445312 22.785156 -21.644531 21.421875 -22.53125 C 20.054688 -23.414062 18.421875 -23.859375 16.515625 -23.859375 C 14.640625 -23.859375 13.023438 -23.414062 11.671875 -22.53125 C 10.328125 -21.644531 9.285156 -20.4375 8.546875 -18.90625 C 7.816406 -17.382812 7.453125 -15.671875 7.453125 -13.765625 C 7.453125 -11.960938 7.816406 -10.3125 8.546875 -8.8125 C 9.285156 -7.320312 10.328125 -6.132812 11.671875 -5.25 C 13.023438 -4.375 14.640625 -3.9375 16.515625 -3.9375 Z M 16.515625 -3.9375 "/></g></g></g><g fill="#3b3430" fill-opacity="1"><g transform="translate(446.894487, 142.433976)"><g><path d="M 13.328125 0 C 10.878906 0 8.960938 -0.695312 7.578125 -2.09375 C 6.191406 -3.5 5.5 -5.410156 5.5 -7.828125 L 5.5 -34.4375 L 10.46875 -34.4375 L 10.46875 -8.15625 C 10.46875 -6.96875 10.800781 -6.019531 11.46875 -5.3125 C 12.132812 -4.613281 13.0625 -4.265625 14.25 -4.265625 L 19.8125 -4.265625 L 19.8125 0 Z M 0.75 -23.265625 L 0.75 -27.53125 L 19.921875 -27.53125 L 19.921875 -23.265625 Z M 0.75 -23.265625 "/></g></g></g><g fill="#3b3430" fill-opacity="1"><g transform="translate(467.998192, 142.433976)"><g><path d="M 16.890625 0.640625 C 14.085938 0.640625 11.601562 0.00390625 9.4375 -1.265625 C 7.28125 -2.546875 5.570312 -4.273438 4.3125 -6.453125 C 3.050781 -8.628906 2.421875 -11.066406 2.421875 -13.765625 C 2.421875 -16.460938 3.050781 -18.898438 4.3125 -21.078125 C 5.570312 -23.253906 7.28125 -24.976562 9.4375 -26.25 C 11.601562 -27.53125 14.085938 -28.171875 16.890625 -28.171875 C 19.703125 -28.171875 22.191406 -27.53125 24.359375 -26.25 C 26.535156 -24.976562 28.242188 -23.257812 29.484375 -21.09375 C 30.734375 -18.9375 31.359375 -16.492188 31.359375 -13.765625 C 31.359375 -11.066406 30.734375 -8.628906 29.484375 -6.453125 C 28.242188 -4.273438 26.535156 -2.546875 24.359375 -1.265625 C 22.191406 0.00390625 19.703125 0.640625 16.890625 0.640625 Z M 16.890625 -3.609375 C 18.796875 -3.609375 20.453125 -4.054688 21.859375 -4.953125 C 23.265625 -5.859375 24.363281 -7.078125 25.15625 -8.609375 C 25.945312 -10.140625 26.34375 -11.859375 26.34375 -13.765625 C 26.34375 -15.671875 25.945312 -17.382812 25.15625 -18.90625 C 24.363281 -20.4375 23.265625 -21.648438 21.859375 -22.546875 C 20.453125 -23.453125 18.796875 -23.90625 16.890625 -23.90625 C 15.015625 -23.90625 13.367188 -23.453125 11.953125 -22.546875 C 10.535156 -21.648438 9.429688 -20.4375 8.640625 -18.90625 C 7.847656 -17.382812 7.453125 -15.671875 7.453125 -13.765625 C 7.453125 -11.859375 7.847656 -10.140625 8.640625 -8.609375 C 9.429688 -7.078125 10.535156 -5.859375 11.953125 -4.953125 C 13.367188 -4.054688 15.015625 -3.609375 16.890625 -3.609375 Z M 16.890625 -3.609375 "/></g></g></g><g fill="#3b3430" fill-opacity="1"><g transform="translate(501.785717, 142.433976)"><g><path d="M 3.9375 0 L 3.9375 -15.921875 C 3.9375 -18.367188 4.484375 -20.507812 5.578125 -22.34375 C 6.679688 -24.175781 8.203125 -25.601562 10.140625 -26.625 C 12.085938 -27.65625 14.300781 -28.171875 16.78125 -28.171875 C 19.300781 -28.171875 21.523438 -27.65625 23.453125 -26.625 C 25.378906 -25.601562 26.890625 -24.175781 27.984375 -22.34375 C 29.078125 -20.507812 29.625 -18.367188 29.625 -15.921875 L 29.625 0 L 24.65625 0 L 24.65625 -15.859375 C 24.65625 -17.515625 24.285156 -18.945312 23.546875 -20.15625 C 22.816406 -21.363281 21.847656 -22.289062 20.640625 -22.9375 C 19.429688 -23.582031 18.144531 -23.90625 16.78125 -23.90625 C 15.414062 -23.90625 14.128906 -23.582031 12.921875 -22.9375 C 11.722656 -22.289062 10.753906 -21.363281 10.015625 -20.15625 C 9.273438 -18.945312 8.90625 -17.515625 8.90625 -15.859375 L 8.90625 0 Z M 3.9375 0 "/></g></g></g><g fill="#3b3430" fill-opacity="1"><g transform="translate(535.357351, 142.433976)"><g/></g></g><g fill="#3b3430" fill-opacity="1"><g transform="translate(549.66036, 142.433976)"><g><path d="M 18.1875 0.640625 C 15.382812 0.640625 12.894531 0.0546875 10.71875 -1.109375 C 8.539062 -2.273438 6.835938 -3.945312 5.609375 -6.125 C 4.390625 -8.300781 3.78125 -10.882812 3.78125 -13.875 L 3.78125 -37.78125 L 8.953125 -37.78125 L 8.953125 -13.546875 C 8.953125 -11.785156 9.320312 -10.175781 10.0625 -8.71875 C 10.800781 -7.257812 11.863281 -6.085938 13.25 -5.203125 C 14.632812 -4.328125 16.28125 -3.890625 18.1875 -3.890625 C 20.0625 -3.890625 21.691406 -4.328125 23.078125 -5.203125 C 24.460938 -6.085938 25.53125 -7.257812 26.28125 -8.71875 C 27.039062 -10.175781 27.421875 -11.785156 27.421875 -13.546875 L 27.421875 -37.78125 L 32.59375 -37.78125 L 32.59375 -13.546875 C 32.59375 -11.785156 32.960938 -10.175781 33.703125 -8.71875 C 34.441406 -7.257812 35.503906 -6.085938 36.890625 -5.203125 C 38.273438 -4.328125 39.921875 -3.890625 41.828125 -3.890625 C 43.691406 -3.890625 45.316406 -4.328125 46.703125 -5.203125 C 48.085938 -6.085938 49.148438 -7.257812 49.890625 -8.71875 C 50.628906 -10.175781 51 -11.785156 51 -13.546875 L 51 -37.78125 L 56.1875 -37.78125 L 56.1875 -13.875 C 56.1875 -10.882812 55.570312 -8.300781 54.34375 -6.125 C 53.125 -3.945312 51.429688 -2.273438 49.265625 -1.109375 C 47.109375 0.0546875 44.628906 0.640625 41.828125 0.640625 C 40.140625 0.640625 38.53125 0.398438 37 -0.078125 C 35.46875 -0.566406 34.109375 -1.320312 32.921875 -2.34375 C 31.734375 -3.375 30.757812 -4.644531 30 -6.15625 C 29.28125 -4.644531 28.304688 -3.382812 27.078125 -2.375 C 25.859375 -1.363281 24.484375 -0.609375 22.953125 -0.109375 C 21.429688 0.390625 19.84375 0.640625 18.1875 0.640625 Z M 18.1875 0.640625 "/></g></g></g><g fill="#3b3430" fill-opacity="1"><g transform="translate(609.625141, 142.433976)"><g><path d="M 3.9375 0 L 3.9375 -27.53125 L 8.953125 -27.53125 L 8.953125 0 Z M 6.484375 -31.90625 C 5.578125 -31.90625 4.789062 -32.238281 4.125 -32.90625 C 3.46875 -33.570312 3.140625 -34.351562 3.140625 -35.25 C 3.140625 -36.144531 3.46875 -36.925781 4.125 -37.59375 C 4.789062 -38.257812 5.578125 -38.59375 6.484375 -38.59375 C 7.378906 -38.59375 8.160156 -38.257812 8.828125 -37.59375 C 9.492188 -36.925781 9.828125 -36.144531 9.828125 -35.25 C 9.828125 -34.351562 9.492188 -33.570312 8.828125 -32.90625 C 8.160156 -32.238281 7.378906 -31.90625 6.484375 -31.90625 Z M 6.484375 -31.90625 "/></g></g></g><g fill="#3b3430" fill-opacity="1"><g transform="translate(622.470861, 142.433976)"><g><path d="M 3.9375 0 L 3.9375 -39.390625 L 8.90625 -39.390625 L 8.90625 0 Z M 3.9375 0 "/></g></g></g><g fill="#3b3430" fill-opacity="1"><g transform="translate(635.316581, 142.433976)"><g><path d="M 3.9375 0 L 3.9375 -39.390625 L 8.90625 -39.390625 L 8.90625 0 Z M 3.9375 0 "/></g></g></g><g fill="#3b3430" fill-opacity="1"><g transform="translate(648.1623, 142.433976)"><g><path d="M 3.9375 0 L 3.9375 -27.53125 L 8.953125 -27.53125 L 8.953125 0 Z M 6.484375 -31.90625 C 5.578125 -31.90625 4.789062 -32.238281 4.125 -32.90625 C 3.46875 -33.570312 3.140625 -34.351562 3.140625 -35.25 C 3.140625 -36.144531 3.46875 -36.925781 4.125 -37.59375 C 4.789062 -38.257812 5.578125 -38.59375 6.484375 -38.59375 C 7.378906 -38.59375 8.160156 -38.257812 8.828125 -37.59375 C 9.492188 -36.925781 9.828125 -36.144531 9.828125 -35.25 C 9.828125 -34.351562 9.492188 -33.570312 8.828125 -32.90625 C 8.160156 -32.238281 7.378906 -31.90625 6.484375 -31.90625 Z M 6.484375 -31.90625 "/></g></g></g><g fill="#3b3430" fill-opacity="1"><g transform="translate(661.008066, 142.433976)"><g><path d="M 15.375 0.640625 C 12.71875 0.640625 10.414062 0.00390625 8.46875 -1.265625 C 6.53125 -2.546875 5.035156 -4.28125 3.984375 -6.46875 C 2.941406 -8.664062 2.421875 -11.097656 2.421875 -13.765625 C 2.421875 -16.460938 2.992188 -18.898438 4.140625 -21.078125 C 5.296875 -23.253906 6.953125 -24.976562 9.109375 -26.25 C 11.273438 -27.53125 13.867188 -28.171875 16.890625 -28.171875 C 19.804688 -28.171875 22.304688 -27.539062 24.390625 -26.28125 C 26.484375 -25.019531 28.09375 -23.3125 29.21875 -21.15625 C 30.351562 -19 30.921875 -16.585938 30.921875 -13.921875 L 30.921875 0 L 25.90625 0 L 25.90625 -5.609375 L 25.796875 -5.609375 C 25.253906 -4.566406 24.523438 -3.566406 23.609375 -2.609375 C 22.691406 -1.660156 21.550781 -0.878906 20.1875 -0.265625 C 18.820312 0.335938 17.21875 0.640625 15.375 0.640625 Z M 16.671875 -3.609375 C 18.472656 -3.609375 20.066406 -4.050781 21.453125 -4.9375 C 22.835938 -5.820312 23.914062 -7.046875 24.6875 -8.609375 C 25.457031 -10.171875 25.84375 -11.925781 25.84375 -13.875 C 25.84375 -15.78125 25.472656 -17.488281 24.734375 -19 C 24.003906 -20.507812 22.953125 -21.703125 21.578125 -22.578125 C 20.210938 -23.460938 18.613281 -23.90625 16.78125 -23.90625 C 14.84375 -23.90625 13.179688 -23.453125 11.796875 -22.546875 C 10.410156 -21.648438 9.347656 -20.4375 8.609375 -18.90625 C 7.867188 -17.382812 7.5 -15.648438 7.5 -13.703125 C 7.5 -11.835938 7.859375 -10.140625 8.578125 -8.609375 C 9.296875 -7.078125 10.335938 -5.859375 11.703125 -4.953125 C 13.078125 -4.054688 14.734375 -3.609375 16.671875 -3.609375 Z M 16.671875 -3.609375 "/></g></g></g><g fill="#3b3430" fill-opacity="1"><g transform="translate(695.875066, 142.433976)"><g><path d="M 3.9375 0 L 3.9375 -16.5625 C 3.9375 -18.6875 4.421875 -20.628906 5.390625 -22.390625 C 6.367188 -24.160156 7.773438 -25.566406 9.609375 -26.609375 C 11.441406 -27.648438 13.65625 -28.171875 16.25 -28.171875 C 17.507812 -28.171875 18.765625 -28 20.015625 -27.65625 C 21.273438 -27.3125 22.445312 -26.734375 23.53125 -25.921875 C 24.613281 -25.117188 25.476562 -24.035156 26.125 -22.671875 L 26.171875 -22.671875 C 26.890625 -24.035156 27.789062 -25.117188 28.875 -25.921875 C 29.957031 -26.734375 31.125 -27.3125 32.375 -27.65625 C 33.632812 -28 34.914062 -28.171875 36.21875 -28.171875 C 38.769531 -28.171875 40.960938 -27.648438 42.796875 -26.609375 C 44.628906 -25.566406 46.03125 -24.160156 47 -22.390625 C 47.976562 -20.628906 48.46875 -18.6875 48.46875 -16.5625 L 48.46875 0 L 43.5 0 L 43.5 -16.5625 C 43.5 -17.9375 43.175781 -19.179688 42.53125 -20.296875 C 41.882812 -21.410156 41.007812 -22.289062 39.90625 -22.9375 C 38.8125 -23.582031 37.5625 -23.90625 36.15625 -23.90625 C 34.789062 -23.90625 33.53125 -23.570312 32.375 -22.90625 C 31.226562 -22.238281 30.320312 -21.359375 29.65625 -20.265625 C 28.988281 -19.171875 28.65625 -17.9375 28.65625 -16.5625 L 28.65625 0 L 23.6875 0 L 23.6875 -16.5625 C 23.6875 -17.9375 23.351562 -19.171875 22.6875 -20.265625 C 22.03125 -21.359375 21.132812 -22.238281 20 -22.90625 C 18.863281 -23.570312 17.59375 -23.90625 16.1875 -23.90625 C 14.820312 -23.90625 13.585938 -23.582031 12.484375 -22.9375 C 11.390625 -22.289062 10.519531 -21.410156 9.875 -20.296875 C 9.226562 -19.179688 8.90625 -17.9375 8.90625 -16.5625 L 8.90625 0 Z M 3.9375 0 "/></g></g></g><g fill="#3b3430" fill-opacity="1"><g transform="translate(748.283476, 142.433976)"><g><path d="M 3.5625 0 L 3.5625 -4.265625 L 16.734375 -4.265625 C 17.597656 -4.265625 18.34375 -4.453125 18.96875 -4.828125 C 19.601562 -5.203125 20.082031 -5.695312 20.40625 -6.3125 C 20.726562 -6.925781 20.890625 -7.570312 20.890625 -8.25 C 20.890625 -8.90625 20.742188 -9.507812 20.453125 -10.0625 C 20.160156 -10.625 19.71875 -11.070312 19.125 -11.40625 C 18.53125 -11.75 17.820312 -11.921875 17 -11.921875 L 11.4375 -11.921875 C 9.675781 -11.921875 8.140625 -12.21875 6.828125 -12.8125 C 5.515625 -13.40625 4.488281 -14.273438 3.75 -15.421875 C 3.007812 -16.578125 2.640625 -17.984375 2.640625 -19.640625 C 2.640625 -21.046875 2.976562 -22.34375 3.65625 -23.53125 C 4.34375 -24.71875 5.296875 -25.679688 6.515625 -26.421875 C 7.742188 -27.160156 9.148438 -27.53125 10.734375 -27.53125 L 23.421875 -27.53125 L 23.421875 -23.265625 L 11.21875 -23.265625 C 10.101562 -23.265625 9.222656 -22.921875 8.578125 -22.234375 C 7.929688 -21.546875 7.609375 -20.738281 7.609375 -19.8125 C 7.609375 -18.90625 7.941406 -18.117188 8.609375 -17.453125 C 9.273438 -16.785156 10.21875 -16.453125 11.4375 -16.453125 L 16.734375 -16.453125 C 18.710938 -16.453125 20.375 -16.140625 21.71875 -15.515625 C 23.070312 -14.890625 24.097656 -13.984375 24.796875 -12.796875 C 25.492188 -11.609375 25.84375 -10.148438 25.84375 -8.421875 C 25.84375 -6.941406 25.484375 -5.5625 24.765625 -4.28125 C 24.046875 -3.007812 23.046875 -1.976562 21.765625 -1.1875 C 20.492188 -0.394531 19.015625 0 17.328125 0 Z M 3.5625 0 "/></g></g></g><g mask="url(#f58159b2d2)"><g transform="matrix(1, 0, 0, 1, 289, 438)"><g clip-path="url(#47b8fc0a70)"><g clip-path="url(#a45be4a66b)"><g clip-path="url(#9bc029277c)"><g transform="matrix(1, 0, 0, 1, 0, -0.000000000000056843)"><g clip-path="url(#f9ea969cb2)"><g clip-path="url(#cc1e99c2b7)"><g clip-path="url(#d5e5aefacb)"><path fill="#f2f0ef" d="M 0.96875 0.863281 L 57.273438 0.863281 L 57.273438 57.167969 L 0.96875 57.167969 Z M 0.96875 0.863281 " fill-opacity="1" fill-rule="nonzero"/></g></g></g></g></g></g></g></g></g><g mask="url(#21610dd929)"><g transform="matrix(1, 0, 0, 1, 296, 443)"><g clip-path="url(#c4ff737134)"><g clip-path="url(#f4cb183f8e)"><g clip-path="url(#1aee2e3ca3)"><g transform="matrix(1, 0, 0, 1, 0, -0.000000000000056843)"><g clip-path="url(#3093b80633)"><g clip-path="url(#29db031541)"><g clip-path="url(#7837c12305)"><path fill="#f2f0ef" d="M 0.410156 0.972656 L 32.804688 0.972656 L 32.804688 33.363281 L 0.410156 33.363281 Z M 0.410156 0.972656 " fill-opacity="1" fill-rule="nonzero"/></g></g></g></g></g></g></g></g></g><g mask="url(#1a43e64200)"><g transform="matrix(1, 0, 0, 1, 299, 447)"><g clip-path="url(#88c44e4a0a)"><g clip-path="url(#8503dad0c0)"><g clip-path="url(#08ce637d64)"><g transform="matrix(1, 0, 0, 1, 0, -0.000000000000056843)"><g clip-path="url(#1673353ceb)"><g clip-path="url(#9a8cf31222)"><g clip-path="url(#4f176e0832)"><path fill="#f2f0ef" d="M 0.945312 0.707031 L 19.121094 0.707031 L 19.121094 18.878906 L 0.945312 18.878906 Z M 0.945312 0.707031 " fill-opacity="1" fill-rule="nonzero"/></g></g></g></g></g></g></g></g></g><g mask="url(#df7a7d73da)"><g transform="matrix(1, 0, 0, 1, 366, 437)"><g clip-path="url(#095198f700)"><g clip-path="url(#b429f82fd3)"><g clip-path="url(#64695ae13c)"><g transform="matrix(1, 0, 0, 1, 0, 1)"><g clip-path="url(#c17d0bcddd)"><g clip-path="url(#fcbf7de403)"><g clip-path="url(#5f1c7cdaa4)"><path fill="#f2f0ef" d="M 0.632812 0.113281 L 56.9375 0.113281 L 56.9375 56.421875 L 0.632812 56.421875 Z M 0.632812 0.113281 " fill-opacity="1" fill-rule="nonzero"/></g></g></g></g></g></g></g></g></g><g mask="url(#c9a297eade)"><g transform="matrix(1, 0, 0, 1, 373, 443)"><g clip-path="url(#e152755cb9)"><g clip-path="url(#adfd296f2c)"><g clip-path="url(#62497d5b23)"><g transform="matrix(1, 0, 0, 1, 0, -0.000000000000056843)"><g clip-path="url(#8cbb109147)"><g clip-path="url(#86bd8d2139)"><g clip-path="url(#d45d49fa31)"><path fill="#f2f0ef" d="M 0.0742188 0.222656 L 32.46875 0.222656 L 32.46875 32.613281 L 0.0742188 32.613281 Z M 0.0742188 0.222656 " fill-opacity="1" fill-rule="nonzero"/></g></g></g></g></g></g></g></g></g><g mask="url(#6ad7563123)"><g transform="matrix(1, 0, 0, 1, 376, 446)"><g clip-path="url(#7d268fc3b5)"><g clip-path="url(#5fd68e10cd)"><g clip-path="url(#a137f2b134)"><g transform="matrix(1, 0, 0, 1, 0, -0.000000000000056843)"><g clip-path="url(#7449ca7da5)"><g clip-path="url(#2c87aef41d)"><g clip-path="url(#0ee8049c9b)"><path fill="#f2f0ef" d="M 0.609375 0.957031 L 18.785156 0.957031 L 18.785156 19.132812 L 0.609375 19.132812 Z M 0.609375 0.957031 " fill-opacity="1" fill-rule="nonzero"/></g></g></g></g></g></g></g></g></g><g mask="url(#3ed7be7ff6)"><g transform="matrix(1, 0, 0, 1, 442, 437)"><g clip-path="url(#f0e8e36fdf)"><g clip-path="url(#485057f018)"><g clip-path="url(#3f8f3a279a)"><g transform="matrix(1, 0, 0, 1, 0, 1)"><g clip-path="url(#21b0e76fa0)"><g clip-path="url(#3b2b37be95)"><g clip-path="url(#42f9737580)"><path fill="#f2f0ef" d="M 0.890625 0.113281 L 57.195312 0.113281 L 57.195312 56.421875 L 0.890625 56.421875 Z M 0.890625 0.113281 " fill-opacity="1" fill-rule="nonzero"/></g></g></g></g></g></g></g></g></g><g mask="url(#aca762a9e3)"><g transform="matrix(1, 0, 0, 1, 449, 443)"><g clip-path="url(#1f712d65d9)"><g clip-path="url(#e6c5f52659)"><g clip-path="url(#8b078ed212)"><g transform="matrix(1, 0, 0, 1, 0, -0.000000000000056843)"><g clip-path="url(#163ee773d8)"><g clip-path="url(#cca56440e6)"><g clip-path="url(#38f543c8b1)"><path fill="#f2f0ef" d="M 0.335938 0.222656 L 32.726562 0.222656 L 32.726562 32.613281 L 0.335938 32.613281 Z M 0.335938 0.222656 " fill-opacity="1" fill-rule="nonzero"/></g></g></g></g></g></g></g></g></g><g mask="url(#a0b1f5f219)"><g transform="matrix(1, 0, 0, 1, 452, 446)"><g clip-path="url(#fa3a7c76fa)"><g clip-path="url(#0773b0eceb)"><g clip-path="url(#d78a442cb8)"><g transform="matrix(1, 0, 0, 1, 0, -0.000000000000056843)"><g clip-path="url(#671e695a76)"><g clip-path="url(#d48b93c5cb)"><g clip-path="url(#c3fd2d40e9)"><path fill="#f2f0ef" d="M 0.871094 0.957031 L 19.042969 0.957031 L 19.042969 19.132812 L 0.871094 19.132812 Z M 0.871094 0.957031 " fill-opacity="1" fill-rule="nonzero"/></g></g></g></g></g></g></g></g></g><g mask="url(#18da007437)"><g transform="matrix(1, 0, 0, 1, 519, 437)"><g clip-path="url(#e06a321f71)"><g clip-path="url(#6c4e3ae676)"><g clip-path="url(#ff5273b1b4)"><g transform="matrix(1, 0, 0, 1, 0, 1)"><g clip-path="url(#4968631750)"><g clip-path="url(#12c8a30b98)"><g clip-path="url(#191211a7c3)"><path fill="#f2f0ef" d="M 0.496094 0.113281 L 56.800781 0.113281 L 56.800781 56.421875 L 0.496094 56.421875 Z M 0.496094 0.113281 " fill-opacity="1" fill-rule="nonzero"/></g></g></g></g></g></g></g></g></g><g mask="url(#9f5d802d20)"><g transform="matrix(1, 0, 0, 1, 525, 443)"><g clip-path="url(#b5b1da4830)"><g clip-path="url(#485c18d4e0)"><g clip-path="url(#04000fd476)"><g transform="matrix(1, 0, 0, 1, 0, -0.000000000000056843)"><g clip-path="url(#0ead9e5a6d)"><g clip-path="url(#0228aa3fb5)"><g clip-path="url(#157b16ae1a)"><path fill="#f2f0ef" d="M 0.941406 0.222656 L 33.332031 0.222656 L 33.332031 32.613281 L 0.941406 32.613281 Z M 0.941406 0.222656 " fill-opacity="1" fill-rule="nonzero"/></g></g></g></g></g></g></g></g></g><g mask="url(#76838ad8ef)"><g transform="matrix(1, 0, 0, 1, 529, 446)"><g clip-path="url(#e5da6b1a04)"><g clip-path="url(#54bfe0f262)"><g clip-path="url(#b9252a2d12)"><g transform="matrix(1, 0, 0, 1, 0, -0.000000000000056843)"><g clip-path="url(#719304b654)"><g clip-path="url(#081d8ce000)"><g clip-path="url(#b4049279bd)"><path fill="#f2f0ef" d="M 0.476562 0.957031 L 18.648438 0.957031 L 18.648438 19.132812 L 0.476562 19.132812 Z M 0.476562 0.957031 " fill-opacity="1" fill-rule="nonzero"/></g></g></g></g></g></g></g></g></g><g mask="url(#85b2d486b2)"><g transform="matrix(1, 0, 0, 1, 595, 437)"><g clip-path="url(#b35bbb2064)"><g clip-path="url(#1e2f789cd4)"><g clip-path="url(#2a813e04b3)"><g transform="matrix(1, 0, 0, 1, 1, 1)"><g clip-path="url(#81e4f25624)"><g clip-path="url(#ee44fe002e)"><g clip-path="url(#8432de082d)"><path fill="#f2f0ef" d="M 0.101562 0.113281 L 56.40625 0.113281 L 56.40625 56.421875 L 0.101562 56.421875 Z M 0.101562 0.113281 " fill-opacity="1" fill-rule="nonzero"/></g></g></g></g></g></g></g></g></g><g mask="url(#1c386ebfe5)"><g transform="matrix(1, 0, 0, 1, 602, 443)"><g clip-path="url(#b3c8474d4c)"><g clip-path="url(#3b724c3da8)"><g clip-path="url(#02edae790b)"><g transform="matrix(1, 0, 0, 1, 0, -0.000000000000056843)"><g clip-path="url(#e41f87cae0)"><g clip-path="url(#e4a95f2736)"><g clip-path="url(#a80fac7f53)"><path fill="#f2f0ef" d="M 0.546875 0.222656 L 32.9375 0.222656 L 32.9375 32.613281 L 0.546875 32.613281 Z M 0.546875 0.222656 " fill-opacity="1" fill-rule="nonzero"/></g></g></g></g></g></g></g></g></g><g mask="url(#c06f89139b)"><g transform="matrix(1, 0, 0, 1, 605, 446)"><g clip-path="url(#565ed771bf)"><g clip-path="url(#e810740a57)"><g clip-path="url(#ee7a74b966)"><g transform="matrix(1, 0, 0, 1, 1, -0.000000000000056843)"><g clip-path="url(#1d75b1fc3e)"><g clip-path="url(#53bfb4124d)"><g clip-path="url(#a28d6c65c7)"><path fill="#f2f0ef" d="M 0.0820312 0.957031 L 18.253906 0.957031 L 18.253906 19.132812 L 0.0820312 19.132812 Z M 0.0820312 0.957031 " fill-opacity="1" fill-rule="nonzero"/></g></g></g></g></g></g></g></g></g><g mask="url(#c5aaad401a)"><g transform="matrix(1, 0, 0, 1, 672, 437)"><g clip-path="url(#4496c3a23a)"><g clip-path="url(#58ac683122)"><g clip-path="url(#fef4e4898c)"><g transform="matrix(1, 0, 0, 1, 0, 1)"><g clip-path="url(#2ed6509eaa)"><g clip-path="url(#b833ee3cf7)"><g clip-path="url(#1ed89a2990)"><path fill="#f2f0ef" d="M 0.707031 0.113281 L 57.011719 0.113281 L 57.011719 56.421875 L 0.707031 56.421875 Z M 0.707031 0.113281 " fill-opacity="1" fill-rule="nonzero"/></g></g></g></g></g></g></g></g></g><g mask="url(#2440d89365)"><g transform="matrix(1, 0, 0, 1, 679, 443)"><g clip-path="url(#cd7574161e)"><g clip-path="url(#ed759f7701)"><g clip-path="url(#a1480a29fe)"><g transform="matrix(1, 0, 0, 1, 0, -0.000000000000056843)"><g clip-path="url(#cdef5f534f)"><g clip-path="url(#a1873398a6)"><g clip-path="url(#3164b8d6c1)"><path fill="#f2f0ef" d="M 0.152344 0.222656 L 32.542969 0.222656 L 32.542969 32.613281 L 0.152344 32.613281 Z M 0.152344 0.222656 " fill-opacity="1" fill-rule="nonzero"/></g></g></g></g></g></g></g></g></g><g mask="url(#8a571eaa91)"><g transform="matrix(1, 0, 0, 1, 682, 446)"><g clip-path="url(#8957cf045f)"><g clip-path="url(#7eeacdc28e)"><g clip-path="url(#338d053726)"><g transform="matrix(1, 0, 0, 1, 0, -0.000000000000056843)"><g clip-path="url(#ef931e0ce6)"><g clip-path="url(#48bdf4fde5)"><g clip-path="url(#53cb46d844)"><path fill="#f2f0ef" d="M 0.6875 0.957031 L 18.859375 0.957031 L 18.859375 19.132812 L 0.6875 19.132812 Z M 0.6875 0.957031 " fill-opacity="1" fill-rule="nonzero"/></g></g></g></g></g></g></g></g></g><g clip-path="url(#f1a2f05efb)"><g mask="url(#a451229993)"><g transform="matrix(1, 0, 0, 1, 214, 541)"><g clip-path="url(#77cf73616b)"><g clip-path="url(#dd4addf8dd)"><g><g clip-path="url(#d0e6777016)"><g clip-path="url(#5940b240a1)"><g clip-path="url(#f60ea7a1ba)"><g transform="matrix(1, 0, 0, 1, 17, 0)"><g clip-path="url(#6fbc0c1597)"><g clip-path="url(#9795ad322e)"><g clip-path="url(#738a2f5471)"><path fill="#f2f0ef" d="M 0.980469 0.84375 L 561.304688 0.84375 L 561.304688 41.261719 L 0.980469 41.261719 Z M 0.980469 0.84375 " fill-opacity="1" fill-rule="nonzero"/></g></g></g></g></g></g><g clip-path="url(#8e7badfae8)"><g clip-path="url(#6634644487)"><g><g clip-path="url(#e2e4c29d5c)"><g clip-path="url(#b068be4b44)"><g clip-path="url(#15312bf23f)"><path fill="#f2f0ef" d="M 0.917969 0.84375 L 40.832031 0.84375 L 40.832031 41.222656 L 0.917969 41.222656 Z M 0.917969 0.84375 " fill-opacity="1" fill-rule="nonzero"/></g></g></g></g></g></g><g clip-path="url(#cea80dd7f5)"><g clip-path="url(#6c1d143197)"><g transform="matrix(1, 0, 0, 1, 558, 0)"><g clip-path="url(#fa05bfe1ea)"><g clip-path="url(#c8ebd91561)"><g clip-path="url(#397cd90235)"><path fill="#f2f0ef" d="M 40.246094 0.84375 L 40.246094 41.222656 L 0.332031 41.222656 L 0.332031 0.84375 Z M 40.246094 0.84375 " fill-opacity="1" fill-rule="nonzero"/></g></g></g></g></g></g></g></g></g></g></g></g></g><g clip-path="url(#54248cf82e)"><g mask="url(#c692c37acd)"><g transform="matrix(1, 0, 0, 1, 224, 549)"><g clip-path="url(#cb6bfb2c85)"><g clip-path="url(#a67ea16dcd)"><g transform="matrix(1, 0, 0, 1, 0, -0.000000000000113687)"><g clip-path="url(#0b519f83e7)"><g clip-path="url(#bc5aaf1d81)"><g clip-path="url(#04c44ab94d)"><g transform="matrix(1, 0, 0, 1, 16, -0.000000000000113687)"><g clip-path="url(#3be4166ab1)"><g clip-path="url(#3a2c1ceaba)"><g clip-path="url(#294661bc88)"><path fill="#f2f0ef" d="M 0.929688 0.574219 L 540.304688 0.574219 L 540.304688 38.992188 L 0.929688 38.992188 Z M 0.929688 0.574219 " fill-opacity="1" fill-rule="nonzero"/></g></g></g></g></g></g><g clip-path="url(#ee3e00be37)"><g clip-path="url(#b4c0790c00)"><g transform="matrix(1, 0, 0, 1, 0, -0.000000000000113687)"><g clip-path="url(#38c05f48d4)"><g clip-path="url(#96e63d4365)"><g clip-path="url(#9be4b9435b)"><path fill="#f2f0ef" d="M 0.507812 0.574219 L 38.925781 0.574219 L 38.925781 38.992188 L 0.507812 38.992188 Z M 0.507812 0.574219 " fill-opacity="1" fill-rule="nonzero"/></g></g></g></g></g></g><g clip-path="url(#7e4a0c8d9e)"><g clip-path="url(#ce4771f992)"><g transform="matrix(1, 0, 0, 1, 537, -0.000000000000113687)"><g clip-path="url(#102ec96166)"><g clip-path="url(#932cbccf59)"><g clip-path="url(#bdf9c90e98)"><path fill="#f2f0ef" d="M 38.484375 0.574219 L 38.484375 38.992188 L 0.0664062 38.992188 L 0.0664062 0.574219 Z M 38.484375 0.574219 " fill-opacity="1" fill-rule="nonzero"/></g></g></g></g></g></g></g></g></g></g></g></g></g></svg>