<svg xmlns="http://www.w3.org/2000/svg" xmlns:xlink="http://www.w3.org/1999/xlink" width="1366" zoomAndPan="magnify" viewBox="0 0 1024.5 576" height="768" preserveAspectRatio="xMidYMid meet" version="1.0"><defs><filter x="0%" y="0%" width="100%" height="100%" id="32b71c0c6e"><feColorMatrix values="0 0 0 0 1 0 0 0 0 1 0 0 0 0 1 0 0 0 1 0" color-interpolation-filters="sRGB"/></filter><g/><clipPath id="df2ec19f59"><path d="M 0 0.140625 L 1024 0.140625 L 1024 575.859375 L 0 575.859375 Z M 0 0.140625 " clip-rule="nonzero"/></clipPath><clipPath id="22c49f3aa9"><path d="M 202 135 L 813 135 L 813 575.859375 L 202 575.859375 Z M 202 135 " clip-rule="nonzero"/></clipPath><clipPath id="51a0080bf7"><path d="M 223.675781 534.503906 L 804.257812 534.503906 L 804.257812 575.859375 L 223.675781 575.859375 Z M 223.675781 534.503906 " clip-rule="nonzero"/></clipPath><clipPath id="e2103d9ca0"><path d="M 244.351562 534.503906 L 783.558594 534.503906 C 794.976562 534.503906 804.234375 543.761719 804.234375 555.183594 C 804.234375 566.601562 794.976562 575.859375 783.558594 575.859375 L 244.351562 575.859375 C 232.933594 575.859375 223.675781 566.601562 223.675781 555.183594 C 223.675781 543.761719 232.933594 534.503906 244.351562 534.503906 Z M 244.351562 534.503906 " clip-rule="nonzero"/></clipPath><clipPath id="c96a47059c"><path d="M 0.675781 0.503906 L 581.257812 0.503906 L 581.257812 41.859375 L 0.675781 41.859375 Z M 0.675781 0.503906 " clip-rule="nonzero"/></clipPath><clipPath id="b555461a73"><path d="M 21.351562 0.503906 L 560.558594 0.503906 C 571.976562 0.503906 581.234375 9.761719 581.234375 21.183594 C 581.234375 32.601562 571.976562 41.859375 560.558594 41.859375 L 21.351562 41.859375 C 9.933594 41.859375 0.675781 32.601562 0.675781 21.183594 C 0.675781 9.761719 9.933594 0.503906 21.351562 0.503906 Z M 21.351562 0.503906 " clip-rule="nonzero"/></clipPath><clipPath id="d55430720c"><rect x="0" width="582" y="0" height="42"/></clipPath><clipPath id="ab46f459d2"><path d="M 205.996094 534.34375 L 247.351562 534.34375 L 247.351562 575.859375 L 205.996094 575.859375 Z M 205.996094 534.34375 " clip-rule="nonzero"/></clipPath><clipPath id="e5fcb6cfc8"><path d="M 205.996094 575.859375 C 205.996094 564.96875 210.40625 554.320312 218.109375 546.617188 C 225.808594 538.914062 236.460938 534.503906 247.351562 534.503906 L 247.351562 575.859375 Z M 205.996094 575.859375 " clip-rule="nonzero"/></clipPath><clipPath id="f0cb07664f"><path d="M 0.996094 0.359375 L 42.351562 0.359375 L 42.351562 41.859375 L 0.996094 41.859375 Z M 0.996094 0.359375 " clip-rule="nonzero"/></clipPath><clipPath id="85c61f8fec"><path d="M 0.996094 41.859375 C 0.996094 30.96875 5.40625 20.320312 13.109375 12.617188 C 20.808594 4.914062 31.460938 0.503906 42.351562 0.503906 L 42.351562 41.859375 Z M 0.996094 41.859375 " clip-rule="nonzero"/></clipPath><clipPath id="490c900c97"><rect x="0" width="43" y="0" height="42"/></clipPath><clipPath id="3c7c464bda"><path d="M 783.550781 534.503906 L 825 534.503906 L 825 575.859375 L 783.550781 575.859375 Z M 783.550781 534.503906 " clip-rule="nonzero"/></clipPath><clipPath id="477db55e19"><path d="M 783.550781 534.503906 C 794.441406 534.503906 805.089844 538.914062 812.792969 546.617188 C 820.492188 554.320312 824.90625 564.96875 824.90625 575.859375 L 783.550781 575.859375 Z M 783.550781 534.503906 " clip-rule="nonzero"/></clipPath><clipPath id="ad8210aad8"><path d="M 0.550781 0.503906 L 41.957031 0.503906 L 41.957031 41.859375 L 0.550781 41.859375 Z M 0.550781 0.503906 " clip-rule="nonzero"/></clipPath><clipPath id="6b12c2965a"><path d="M 0.550781 0.503906 C 11.441406 0.503906 22.089844 4.914062 29.792969 12.617188 C 37.492188 20.320312 41.90625 30.96875 41.90625 41.859375 L 0.550781 41.859375 Z M 0.550781 0.503906 " clip-rule="nonzero"/></clipPath><clipPath id="35d2d34433"><rect x="0" width="42" y="0" height="42"/></clipPath><clipPath id="df72b8d746"><path d="M 214 541 L 813 541 L 813 575.859375 L 214 575.859375 Z M 214 541 " clip-rule="nonzero"/></clipPath><mask id="2cd29333c4"><g filter="url(#32b71c0c6e)"><rect x="-102.45" width="1229.4" fill="#000000" y="-57.6" height="691.2" fill-opacity="0.1"/></g></mask><clipPath id="cdefc0e42e"><path d="M 0.695312 0.796875 L 598.484375 0.796875 L 598.484375 34.859375 L 0.695312 34.859375 Z M 0.695312 0.796875 " clip-rule="nonzero"/></clipPath><clipPath id="27ed66778a"><path d="M 17.980469 0.84375 L 578.304688 0.84375 L 578.304688 34.859375 L 17.980469 34.859375 Z M 17.980469 0.84375 " clip-rule="nonzero"/></clipPath><clipPath id="3ed8f39736"><path d="M 38.191406 0.84375 L 558.085938 0.84375 C 569.246094 0.84375 578.292969 9.890625 578.292969 21.050781 C 578.292969 32.210938 569.246094 41.261719 558.085938 41.261719 L 38.191406 41.261719 C 27.027344 41.261719 17.980469 32.210938 17.980469 21.050781 C 17.980469 9.890625 27.027344 0.84375 38.191406 0.84375 Z M 38.191406 0.84375 " clip-rule="nonzero"/></clipPath><clipPath id="b35bca3f1e"><path d="M 0.980469 0.84375 L 561.304688 0.84375 L 561.304688 34.859375 L 0.980469 34.859375 Z M 0.980469 0.84375 " clip-rule="nonzero"/></clipPath><clipPath id="c6abd2fdb4"><path d="M 21.191406 0.84375 L 541.085938 0.84375 C 552.246094 0.84375 561.292969 9.890625 561.292969 21.050781 C 561.292969 32.210938 552.246094 41.261719 541.085938 41.261719 L 21.191406 41.261719 C 10.027344 41.261719 0.980469 32.210938 0.980469 21.050781 C 0.980469 9.890625 10.027344 0.84375 21.191406 0.84375 Z M 21.191406 0.84375 " clip-rule="nonzero"/></clipPath><clipPath id="c94943c208"><rect x="0" width="562" y="0" height="35"/></clipPath><clipPath id="9dc51e62fa"><path d="M 0.917969 0.84375 L 40.832031 0.84375 L 40.832031 34.859375 L 0.917969 34.859375 Z M 0.917969 0.84375 " clip-rule="nonzero"/></clipPath><clipPath id="c3f17b89a1"><path d="M 0.917969 41.261719 C 0.917969 30.617188 5.175781 20.207031 12.609375 12.679688 C 20.042969 5.152344 30.320312 0.84375 40.832031 0.84375 L 40.832031 41.261719 Z M 0.917969 41.261719 " clip-rule="nonzero"/></clipPath><clipPath id="6dee8d8e80"><path d="M 0.917969 0.84375 L 40.832031 0.84375 L 40.832031 34.859375 L 0.917969 34.859375 Z M 0.917969 0.84375 " clip-rule="nonzero"/></clipPath><clipPath id="5073673c36"><path d="M 0.917969 41.261719 C 0.917969 30.617188 5.175781 20.207031 12.609375 12.679688 C 20.042969 5.152344 30.320312 0.84375 40.832031 0.84375 L 40.832031 41.261719 Z M 0.917969 41.261719 " clip-rule="nonzero"/></clipPath><clipPath id="1782141142"><rect x="0" width="41" y="0" height="35"/></clipPath><clipPath id="9e5cbf80f6"><path d="M 558.332031 0.84375 L 598.398438 0.84375 L 598.398438 34.859375 L 558.332031 34.859375 Z M 558.332031 0.84375 " clip-rule="nonzero"/></clipPath><clipPath id="7c3c5d77ac"><path d="M 558.332031 0.84375 C 568.84375 0.84375 579.121094 5.15625 586.554688 12.679688 C 593.988281 20.207031 598.246094 30.617188 598.246094 41.261719 L 558.332031 41.261719 Z M 558.332031 0.84375 " clip-rule="nonzero"/></clipPath><clipPath id="50e5699e67"><path d="M 0.332031 0.84375 L 40.398438 0.84375 L 40.398438 34.859375 L 0.332031 34.859375 Z M 0.332031 0.84375 " clip-rule="nonzero"/></clipPath><clipPath id="c625d01928"><path d="M 0.332031 0.84375 C 10.84375 0.84375 21.121094 5.15625 28.554688 12.679688 C 35.988281 20.207031 40.246094 30.617188 40.246094 41.261719 L 0.332031 41.261719 Z M 0.332031 0.84375 " clip-rule="nonzero"/></clipPath><clipPath id="bcb0fc0e45"><rect x="0" width="41" y="0" height="35"/></clipPath><clipPath id="db9b021431"><rect x="0" width="599" y="0" height="35"/></clipPath><clipPath id="80d3eafe55"><rect x="0" width="599" y="0" height="35"/></clipPath><clipPath id="141020e230"><path d="M 224 549 L 800 549 L 800 575.859375 L 224 575.859375 Z M 224 549 " clip-rule="nonzero"/></clipPath><mask id="a54f5f4c0a"><g filter="url(#32b71c0c6e)"><rect x="-102.45" width="1229.4" fill="#000000" y="-57.6" height="691.2" fill-opacity="0.07"/></g></mask><clipPath id="57bbb9cbfa"><path d="M 0.289062 0.472656 L 575.53125 0.472656 L 575.53125 26.859375 L 0.289062 26.859375 Z M 0.289062 0.472656 " clip-rule="nonzero"/></clipPath><clipPath id="f9c7960439"><path d="M 16.929688 0.574219 L 556.304688 0.574219 L 556.304688 26.859375 L 16.929688 26.859375 Z M 16.929688 0.574219 " clip-rule="nonzero"/></clipPath><clipPath id="7085d98229"><path d="M 36.140625 0.574219 L 537.074219 0.574219 C 547.683594 0.574219 556.28125 9.175781 556.28125 19.785156 C 556.28125 30.394531 547.683594 38.992188 537.074219 38.992188 L 36.140625 38.992188 C 25.53125 38.992188 16.929688 30.394531 16.929688 19.785156 C 16.929688 9.175781 25.53125 0.574219 36.140625 0.574219 Z M 36.140625 0.574219 " clip-rule="nonzero"/></clipPath><clipPath id="de2d721091"><path d="M 0.929688 0.574219 L 540.304688 0.574219 L 540.304688 26.859375 L 0.929688 26.859375 Z M 0.929688 0.574219 " clip-rule="nonzero"/></clipPath><clipPath id="12403a6ba3"><path d="M 20.140625 0.574219 L 521.074219 0.574219 C 531.683594 0.574219 540.28125 9.175781 540.28125 19.785156 C 540.28125 30.394531 531.683594 38.992188 521.074219 38.992188 L 20.140625 38.992188 C 9.53125 38.992188 0.929688 30.394531 0.929688 19.785156 C 0.929688 9.175781 9.53125 0.574219 20.140625 0.574219 Z M 20.140625 0.574219 " clip-rule="nonzero"/></clipPath><clipPath id="2c41cd070b"><rect x="0" width="541" y="0" height="27"/></clipPath><clipPath id="f7fb93d559"><path d="M 0.507812 0.472656 L 38.925781 0.472656 L 38.925781 26.859375 L 0.507812 26.859375 Z M 0.507812 0.472656 " clip-rule="nonzero"/></clipPath><clipPath id="5015c2d9d9"><path d="M 0.507812 38.992188 C 0.507812 28.875 4.605469 18.980469 11.761719 11.828125 C 18.914062 4.671875 28.808594 0.574219 38.925781 0.574219 L 38.925781 38.992188 Z M 0.507812 38.992188 " clip-rule="nonzero"/></clipPath><clipPath id="1e41177996"><path d="M 0.507812 0.472656 L 38.925781 0.472656 L 38.925781 26.859375 L 0.507812 26.859375 Z M 0.507812 0.472656 " clip-rule="nonzero"/></clipPath><clipPath id="f37f5ddf6e"><path d="M 0.507812 38.992188 C 0.507812 28.875 4.605469 18.980469 11.761719 11.828125 C 18.914062 4.671875 28.808594 0.574219 38.925781 0.574219 L 38.925781 38.992188 Z M 0.507812 38.992188 " clip-rule="nonzero"/></clipPath><clipPath id="588ca55b39"><rect x="0" width="39" y="0" height="27"/></clipPath><clipPath id="11596747fe"><path d="M 537.066406 0.574219 L 575.53125 0.574219 L 575.53125 26.859375 L 537.066406 26.859375 Z M 537.066406 0.574219 " clip-rule="nonzero"/></clipPath><clipPath id="f4647ca03e"><path d="M 537.066406 0.574219 C 547.183594 0.574219 557.078125 4.671875 564.234375 11.828125 C 571.386719 18.980469 575.484375 28.875 575.484375 38.992188 L 537.066406 38.992188 Z M 537.066406 0.574219 " clip-rule="nonzero"/></clipPath><clipPath id="9d3d3e2f41"><path d="M 0.0664062 0.574219 L 38.53125 0.574219 L 38.53125 26.859375 L 0.0664062 26.859375 Z M 0.0664062 0.574219 " clip-rule="nonzero"/></clipPath><clipPath id="bab23ccdd9"><path d="M 0.0664062 0.574219 C 10.183594 0.574219 20.078125 4.671875 27.234375 11.828125 C 34.386719 18.980469 38.484375 28.875 38.484375 38.992188 L 0.0664062 38.992188 Z M 0.0664062 0.574219 " clip-rule="nonzero"/></clipPath><clipPath id="7c9d0245ec"><rect x="0" width="39" y="0" height="27"/></clipPath><clipPath id="1366570103"><rect x="0" width="576" y="0" height="27"/></clipPath><clipPath id="b026bf9c84"><rect x="0" width="576" y="0" height="27"/></clipPath></defs><g clip-path="url(#df2ec19f59)"><path fill="#ffffff" d="M 0 0.140625 L 1024 0.140625 L 1024 575.859375 L 0 575.859375 Z M 0 0.140625 " fill-opacity="1" fill-rule="nonzero"/><path fill="#f2f0ef" d="M 0 0.140625 L 1024 0.140625 L 1024 575.859375 L 0 575.859375 Z M 0 0.140625 " fill-opacity="1" fill-rule="nonzero"/></g><g clip-path="url(#22c49f3aa9)"><path stroke-linecap="butt" transform="matrix(0.749634, 0, 0, 0.749634, 232.046853, 162.683366)" fill="none" stroke-linejoin="miter" d="M 0.0000286856 528.112108 L 10.338406 528.112108 C 16.049525 528.112108 20.676782 523.47964 20.676782 517.773731 L 20.676782 27.498094 C 20.676782 14.246837 31.421608 3.502012 44.678075 3.502012 L 710.435154 3.502012 C 723.691621 3.502012 734.436446 14.246837 734.436446 27.498094 L 734.436446 523.589068 " stroke="#3b3432" stroke-width="7" stroke-opacity="1" stroke-miterlimit="4"/></g><g clip-path="url(#51a0080bf7)"><g clip-path="url(#e2103d9ca0)"><g transform="matrix(1, 0, 0, 1, 223, 534)"><g clip-path="url(#d55430720c)"><g clip-path="url(#c96a47059c)"><g clip-path="url(#b555461a73)"><path fill="#3b3430" d="M 0.675781 0.503906 L 581.257812 0.503906 L 581.257812 41.859375 L 0.675781 41.859375 Z M 0.675781 0.503906 " fill-opacity="1" fill-rule="nonzero"/></g></g></g></g></g></g><g clip-path="url(#ab46f459d2)"><g clip-path="url(#e5fcb6cfc8)"><g transform="matrix(1, 0, 0, 1, 205, 534)"><g clip-path="url(#490c900c97)"><g clip-path="url(#f0cb07664f)"><g clip-path="url(#85c61f8fec)"><path fill="#3b3431" d="M 0.996094 0.503906 L 42.351562 0.503906 L 42.351562 41.859375 L 0.996094 41.859375 Z M 0.996094 0.503906 " fill-opacity="1" fill-rule="nonzero"/></g></g></g></g></g></g><g clip-path="url(#3c7c464bda)"><g clip-path="url(#477db55e19)"><g transform="matrix(1, 0, 0, 1, 783, 534)"><g clip-path="url(#35d2d34433)"><g clip-path="url(#ad8210aad8)"><g clip-path="url(#6b12c2965a)"><path fill="#3b3431" d="M 41.90625 0.503906 L 41.90625 41.859375 L 0.550781 41.859375 L 0.550781 0.503906 Z M 41.90625 0.503906 " fill-opacity="1" fill-rule="nonzero"/></g></g></g></g></g></g><g fill="#3b3430" fill-opacity="1"><g transform="translate(247.245861, 142.433976)"><g><path d="M 4.109375 0 L 4.109375 -37.78125 L 20.671875 -37.78125 C 23.046875 -37.78125 25.203125 -37.265625 27.140625 -36.234375 C 29.085938 -35.210938 30.632812 -33.773438 31.78125 -31.921875 C 32.9375 -30.066406 33.515625 -27.898438 33.515625 -25.421875 C 33.515625 -22.898438 32.875 -20.675781 31.59375 -18.75 C 30.320312 -16.820312 28.601562 -15.394531 26.4375 -14.46875 L 30.5 -6.265625 C 30.78125 -5.679688 31.09375 -5.253906 31.4375 -4.984375 C 31.78125 -4.722656 32.273438 -4.59375 32.921875 -4.59375 L 35.625 -4.59375 L 35.625 0 L 32.109375 0 C 30.703125 0 29.46875 -0.359375 28.40625 -1.078125 C 27.351562 -1.796875 26.484375 -2.769531 25.796875 -4 L 21.265625 -13.21875 C 20.898438 -13.1875 20.507812 -13.160156 20.09375 -13.140625 C 19.6875 -13.117188 19.265625 -13.109375 18.828125 -13.109375 L 9.28125 -13.109375 L 9.28125 0 Z M 9.28125 -17.703125 L 19.96875 -17.703125 C 21.507812 -17.703125 22.921875 -18.003906 24.203125 -18.609375 C 25.484375 -19.222656 26.488281 -20.101562 27.21875 -21.25 C 27.957031 -22.40625 28.328125 -23.796875 28.328125 -25.421875 C 28.328125 -27.078125 27.945312 -28.476562 27.1875 -29.625 C 26.4375 -30.78125 25.429688 -31.660156 24.171875 -32.265625 C 22.910156 -32.878906 21.523438 -33.1875 20.015625 -33.1875 L 9.28125 -33.1875 Z M 9.28125 -17.703125 "/></g></g></g><g fill="#3b3430" fill-opacity="1"><g transform="translate(282.760543, 142.433976)"><g><path d="M 17.921875 0 C 14.898438 0 12.21875 -0.566406 9.875 -1.703125 C 7.539062 -2.835938 5.710938 -4.4375 4.390625 -6.5 C 3.078125 -8.570312 2.421875 -10.992188 2.421875 -13.765625 C 2.421875 -16.492188 2.976562 -18.945312 4.09375 -21.125 C 5.21875 -23.300781 6.769531 -25.019531 8.75 -26.28125 C 10.726562 -27.539062 13.03125 -28.171875 15.65625 -28.171875 C 18.5 -28.171875 20.863281 -27.554688 22.75 -26.328125 C 24.632812 -25.109375 26.046875 -23.460938 26.984375 -21.390625 C 27.921875 -19.328125 28.390625 -17.019531 28.390625 -14.46875 C 28.390625 -14.070312 28.378906 -13.65625 28.359375 -13.21875 C 28.335938 -12.789062 28.289062 -12.414062 28.21875 -12.09375 L 7.71875 -12.09375 C 7.894531 -10.394531 8.453125 -8.960938 9.390625 -7.796875 C 10.328125 -6.628906 11.523438 -5.75 12.984375 -5.15625 C 14.441406 -4.5625 16.050781 -4.265625 17.8125 -4.265625 L 24.984375 -4.265625 L 24.984375 0 Z M 7.65625 -15.59375 L 23.375 -15.59375 C 23.375 -16.28125 23.300781 -17.007812 23.15625 -17.78125 C 23.007812 -18.550781 22.753906 -19.304688 22.390625 -20.046875 C 22.035156 -20.785156 21.5625 -21.453125 20.96875 -22.046875 C 20.375 -22.640625 19.632812 -23.113281 18.75 -23.46875 C 17.875 -23.832031 16.84375 -24.015625 15.65625 -24.015625 C 14.394531 -24.015625 13.285156 -23.769531 12.328125 -23.28125 C 11.378906 -22.800781 10.5625 -22.15625 9.875 -21.34375 C 9.1875 -20.53125 8.660156 -19.617188 8.296875 -18.609375 C 7.941406 -17.609375 7.726562 -16.601562 7.65625 -15.59375 Z M 7.65625 -15.59375 "/></g></g></g><g fill="#3b3430" fill-opacity="1"><g transform="translate(313.525534, 142.433976)"><g><path d="M 3.9375 0 L 3.9375 -16.5625 C 3.9375 -18.6875 4.421875 -20.628906 5.390625 -22.390625 C 6.367188 -24.160156 7.773438 -25.566406 9.609375 -26.609375 C 11.441406 -27.648438 13.65625 -28.171875 16.25 -28.171875 C 17.507812 -28.171875 18.765625 -28 20.015625 -27.65625 C 21.273438 -27.3125 22.445312 -26.734375 23.53125 -25.921875 C 24.613281 -25.117188 25.476562 -24.035156 26.125 -22.671875 L 26.171875 -22.671875 C 26.890625 -24.035156 27.789062 -25.117188 28.875 -25.921875 C 29.957031 -26.734375 31.125 -27.3125 32.375 -27.65625 C 33.632812 -28 34.914062 -28.171875 36.21875 -28.171875 C 38.769531 -28.171875 40.960938 -27.648438 42.796875 -26.609375 C 44.628906 -25.566406 46.03125 -24.160156 47 -22.390625 C 47.976562 -20.628906 48.46875 -18.6875 48.46875 -16.5625 L 48.46875 0 L 43.5 0 L 43.5 -16.5625 C 43.5 -17.9375 43.175781 -19.179688 42.53125 -20.296875 C 41.882812 -21.410156 41.007812 -22.289062 39.90625 -22.9375 C 38.8125 -23.582031 37.5625 -23.90625 36.15625 -23.90625 C 34.789062 -23.90625 33.53125 -23.570312 32.375 -22.90625 C 31.226562 -22.238281 30.320312 -21.359375 29.65625 -20.265625 C 28.988281 -19.171875 28.65625 -17.9375 28.65625 -16.5625 L 28.65625 0 L 23.6875 0 L 23.6875 -16.5625 C 23.6875 -17.9375 23.351562 -19.171875 22.6875 -20.265625 C 22.03125 -21.359375 21.132812 -22.238281 20 -22.90625 C 18.863281 -23.570312 17.59375 -23.90625 16.1875 -23.90625 C 14.820312 -23.90625 13.585938 -23.582031 12.484375 -22.9375 C 11.390625 -22.289062 10.519531 -21.410156 9.875 -20.296875 C 9.226562 -19.179688 8.90625 -17.9375 8.90625 -16.5625 L 8.90625 0 Z M 3.9375 0 "/></g></g></g><g fill="#3b3430" fill-opacity="1"><g transform="translate(365.933979, 142.433976)"><g><path d="M 3.9375 0 L 3.9375 -27.53125 L 8.953125 -27.53125 L 8.953125 0 Z M 6.484375 -31.90625 C 5.578125 -31.90625 4.789062 -32.238281 4.125 -32.90625 C 3.46875 -33.570312 3.140625 -34.351562 3.140625 -35.25 C 3.140625 -36.144531 3.46875 -36.925781 4.125 -37.59375 C 4.789062 -38.257812 5.578125 -38.59375 6.484375 -38.59375 C 7.378906 -38.59375 8.160156 -38.257812 8.828125 -37.59375 C 9.492188 -36.925781 9.828125 -36.144531 9.828125 -35.25 C 9.828125 -34.351562 9.492188 -33.570312 8.828125 -32.90625 C 8.160156 -32.238281 7.378906 -31.90625 6.484375 -31.90625 Z M 6.484375 -31.90625 "/></g></g></g><g fill="#3b3430" fill-opacity="1"><g transform="translate(378.779711, 142.433976)"><g><path d="M 3.9375 0 L 3.9375 -15.921875 C 3.9375 -18.367188 4.484375 -20.507812 5.578125 -22.34375 C 6.679688 -24.175781 8.203125 -25.601562 10.140625 -26.625 C 12.085938 -27.65625 14.300781 -28.171875 16.78125 -28.171875 C 19.300781 -28.171875 21.523438 -27.65625 23.453125 -26.625 C 25.378906 -25.601562 26.890625 -24.175781 27.984375 -22.34375 C 29.078125 -20.507812 29.625 -18.367188 29.625 -15.921875 L 29.625 0 L 24.65625 0 L 24.65625 -15.859375 C 24.65625 -17.515625 24.285156 -18.945312 23.546875 -20.15625 C 22.816406 -21.363281 21.847656 -22.289062 20.640625 -22.9375 C 19.429688 -23.582031 18.144531 -23.90625 16.78125 -23.90625 C 15.414062 -23.90625 14.128906 -23.582031 12.921875 -22.9375 C 11.722656 -22.289062 10.753906 -21.363281 10.015625 -20.15625 C 9.273438 -18.945312 8.90625 -17.515625 8.90625 -15.859375 L 8.90625 0 Z M 3.9375 0 "/></g></g></g><g fill="#3b3430" fill-opacity="1"><g transform="translate(412.351334, 142.433976)"><g><path d="M 8.09375 10.953125 L 8.09375 6.6875 L 21.59375 6.6875 C 22.914062 6.6875 23.945312 6.289062 24.6875 5.5 C 25.425781 4.707031 25.796875 3.664062 25.796875 2.375 L 25.796875 -5.1875 L 25.6875 -5.1875 C 25 -4.132812 24.171875 -3.195312 23.203125 -2.375 C 22.234375 -1.550781 21.117188 -0.894531 19.859375 -0.40625 C 18.597656 0.0820312 17.175781 0.328125 15.59375 0.328125 C 13.007812 0.328125 10.726562 -0.273438 8.75 -1.484375 C 6.769531 -2.691406 5.21875 -4.363281 4.09375 -6.5 C 2.976562 -8.644531 2.421875 -11.101562 2.421875 -13.875 C 2.421875 -16.570312 2.976562 -19 4.09375 -21.15625 C 5.21875 -23.3125 6.832031 -25.019531 8.9375 -26.28125 C 11.039062 -27.539062 13.582031 -28.171875 16.5625 -28.171875 C 19.445312 -28.171875 21.945312 -27.554688 24.0625 -26.328125 C 26.1875 -25.109375 27.832031 -23.410156 29 -21.234375 C 30.175781 -19.054688 30.765625 -16.507812 30.765625 -13.59375 L 30.765625 2.703125 C 30.765625 5.210938 30.023438 7.210938 28.546875 8.703125 C 27.078125 10.203125 25.0625 10.953125 22.5 10.953125 Z M 16.515625 -3.9375 C 18.347656 -3.9375 19.957031 -4.367188 21.34375 -5.234375 C 22.726562 -6.097656 23.804688 -7.273438 24.578125 -8.765625 C 25.359375 -10.265625 25.75 -11.945312 25.75 -13.8125 C 25.75 -15.71875 25.367188 -17.425781 24.609375 -18.9375 C 23.847656 -20.445312 22.785156 -21.644531 21.421875 -22.53125 C 20.054688 -23.414062 18.421875 -23.859375 16.515625 -23.859375 C 14.640625 -23.859375 13.023438 -23.414062 11.671875 -22.53125 C 10.328125 -21.644531 9.285156 -20.4375 8.546875 -18.90625 C 7.816406 -17.382812 7.453125 -15.671875 7.453125 -13.765625 C 7.453125 -11.960938 7.816406 -10.3125 8.546875 -8.8125 C 9.285156 -7.320312 10.328125 -6.132812 11.671875 -5.25 C 13.023438 -4.375 14.640625 -3.9375 16.515625 -3.9375 Z M 16.515625 -3.9375 "/></g></g></g><g fill="#3b3430" fill-opacity="1"><g transform="translate(446.894487, 142.433976)"><g><path d="M 13.328125 0 C 10.878906 0 8.960938 -0.695312 7.578125 -2.09375 C 6.191406 -3.5 5.5 -5.410156 5.5 -7.828125 L 5.5 -34.4375 L 10.46875 -34.4375 L 10.46875 -8.15625 C 10.46875 -6.96875 10.800781 -6.019531 11.46875 -5.3125 C 12.132812 -4.613281 13.0625 -4.265625 14.25 -4.265625 L 19.8125 -4.265625 L 19.8125 0 Z M 0.75 -23.265625 L 0.75 -27.53125 L 19.921875 -27.53125 L 19.921875 -23.265625 Z M 0.75 -23.265625 "/></g></g></g><g fill="#3b3430" fill-opacity="1"><g transform="translate(467.998192, 142.433976)"><g><path d="M 16.890625 0.640625 C 14.085938 0.640625 11.601562 0.00390625 9.4375 -1.265625 C 7.28125 -2.546875 5.570312 -4.273438 4.3125 -6.453125 C 3.050781 -8.628906 2.421875 -11.066406 2.421875 -13.765625 C 2.421875 -16.460938 3.050781 -18.898438 4.3125 -21.078125 C 5.570312 -23.253906 7.28125 -24.976562 9.4375 -26.25 C 11.601562 -27.53125 14.085938 -28.171875 16.890625 -28.171875 C 19.703125 -28.171875 22.191406 -27.53125 24.359375 -26.25 C 26.535156 -24.976562 28.242188 -23.257812 29.484375 -21.09375 C 30.734375 -18.9375 31.359375 -16.492188 31.359375 -13.765625 C 31.359375 -11.066406 30.734375 -8.628906 29.484375 -6.453125 C 28.242188 -4.273438 26.535156 -2.546875 24.359375 -1.265625 C 22.191406 0.00390625 19.703125 0.640625 16.890625 0.640625 Z M 16.890625 -3.609375 C 18.796875 -3.609375 20.453125 -4.054688 21.859375 -4.953125 C 23.265625 -5.859375 24.363281 -7.078125 25.15625 -8.609375 C 25.945312 -10.140625 26.34375 -11.859375 26.34375 -13.765625 C 26.34375 -15.671875 25.945312 -17.382812 25.15625 -18.90625 C 24.363281 -20.4375 23.265625 -21.648438 21.859375 -22.546875 C 20.453125 -23.453125 18.796875 -23.90625 16.890625 -23.90625 C 15.015625 -23.90625 13.367188 -23.453125 11.953125 -22.546875 C 10.535156 -21.648438 9.429688 -20.4375 8.640625 -18.90625 C 7.847656 -17.382812 7.453125 -15.671875 7.453125 -13.765625 C 7.453125 -11.859375 7.847656 -10.140625 8.640625 -8.609375 C 9.429688 -7.078125 10.535156 -5.859375 11.953125 -4.953125 C 13.367188 -4.054688 15.015625 -3.609375 16.890625 -3.609375 Z M 16.890625 -3.609375 "/></g></g></g><g fill="#3b3430" fill-opacity="1"><g transform="translate(501.785717, 142.433976)"><g><path d="M 3.9375 0 L 3.9375 -15.921875 C 3.9375 -18.367188 4.484375 -20.507812 5.578125 -22.34375 C 6.679688 -24.175781 8.203125 -25.601562 10.140625 -26.625 C 12.085938 -27.65625 14.300781 -28.171875 16.78125 -28.171875 C 19.300781 -28.171875 21.523438 -27.65625 23.453125 -26.625 C 25.378906 -25.601562 26.890625 -24.175781 27.984375 -22.34375 C 29.078125 -20.507812 29.625 -18.367188 29.625 -15.921875 L 29.625 0 L 24.65625 0 L 24.65625 -15.859375 C 24.65625 -17.515625 24.285156 -18.945312 23.546875 -20.15625 C 22.816406 -21.363281 21.847656 -22.289062 20.640625 -22.9375 C 19.429688 -23.582031 18.144531 -23.90625 16.78125 -23.90625 C 15.414062 -23.90625 14.128906 -23.582031 12.921875 -22.9375 C 11.722656 -22.289062 10.753906 -21.363281 10.015625 -20.15625 C 9.273438 -18.945312 8.90625 -17.515625 8.90625 -15.859375 L 8.90625 0 Z M 3.9375 0 "/></g></g></g><g fill="#3b3430" fill-opacity="1"><g transform="translate(535.357351, 142.433976)"><g/></g></g><g fill="#3b3430" fill-opacity="1"><g transform="translate(549.66036, 142.433976)"><g><path d="M 18.1875 0.640625 C 15.382812 0.640625 12.894531 0.0546875 10.71875 -1.109375 C 8.539062 -2.273438 6.835938 -3.945312 5.609375 -6.125 C 4.390625 -8.300781 3.78125 -10.882812 3.78125 -13.875 L 3.78125 -37.78125 L 8.953125 -37.78125 L 8.953125 -13.546875 C 8.953125 -11.785156 9.320312 -10.175781 10.0625 -8.71875 C 10.800781 -7.257812 11.863281 -6.085938 13.25 -5.203125 C 14.632812 -4.328125 16.28125 -3.890625 18.1875 -3.890625 C 20.0625 -3.890625 21.691406 -4.328125 23.078125 -5.203125 C 24.460938 -6.085938 25.53125 -7.257812 26.28125 -8.71875 C 27.039062 -10.175781 27.421875 -11.785156 27.421875 -13.546875 L 27.421875 -37.78125 L 32.59375 -37.78125 L 32.59375 -13.546875 C 32.59375 -11.785156 32.960938 -10.175781 33.703125 -8.71875 C 34.441406 -7.257812 35.503906 -6.085938 36.890625 -5.203125 C 38.273438 -4.328125 39.921875 -3.890625 41.828125 -3.890625 C 43.691406 -3.890625 45.316406 -4.328125 46.703125 -5.203125 C 48.085938 -6.085938 49.148438 -7.257812 49.890625 -8.71875 C 50.628906 -10.175781 51 -11.785156 51 -13.546875 L 51 -37.78125 L 56.1875 -37.78125 L 56.1875 -13.875 C 56.1875 -10.882812 55.570312 -8.300781 54.34375 -6.125 C 53.125 -3.945312 51.429688 -2.273438 49.265625 -1.109375 C 47.109375 0.0546875 44.628906 0.640625 41.828125 0.640625 C 40.140625 0.640625 38.53125 0.398438 37 -0.078125 C 35.46875 -0.566406 34.109375 -1.320312 32.921875 -2.34375 C 31.734375 -3.375 30.757812 -4.644531 30 -6.15625 C 29.28125 -4.644531 28.304688 -3.382812 27.078125 -2.375 C 25.859375 -1.363281 24.484375 -0.609375 22.953125 -0.109375 C 21.429688 0.390625 19.84375 0.640625 18.1875 0.640625 Z M 18.1875 0.640625 "/></g></g></g><g fill="#3b3430" fill-opacity="1"><g transform="translate(609.625141, 142.433976)"><g><path d="M 3.9375 0 L 3.9375 -27.53125 L 8.953125 -27.53125 L 8.953125 0 Z M 6.484375 -31.90625 C 5.578125 -31.90625 4.789062 -32.238281 4.125 -32.90625 C 3.46875 -33.570312 3.140625 -34.351562 3.140625 -35.25 C 3.140625 -36.144531 3.46875 -36.925781 4.125 -37.59375 C 4.789062 -38.257812 5.578125 -38.59375 6.484375 -38.59375 C 7.378906 -38.59375 8.160156 -38.257812 8.828125 -37.59375 C 9.492188 -36.925781 9.828125 -36.144531 9.828125 -35.25 C 9.828125 -34.351562 9.492188 -33.570312 8.828125 -32.90625 C 8.160156 -32.238281 7.378906 -31.90625 6.484375 -31.90625 Z M 6.484375 -31.90625 "/></g></g></g><g fill="#3b3430" fill-opacity="1"><g transform="translate(622.470861, 142.433976)"><g><path d="M 3.9375 0 L 3.9375 -39.390625 L 8.90625 -39.390625 L 8.90625 0 Z M 3.9375 0 "/></g></g></g><g fill="#3b3430" fill-opacity="1"><g transform="translate(635.316581, 142.433976)"><g><path d="M 3.9375 0 L 3.9375 -39.390625 L 8.90625 -39.390625 L 8.90625 0 Z M 3.9375 0 "/></g></g></g><g fill="#3b3430" fill-opacity="1"><g transform="translate(648.1623, 142.433976)"><g><path d="M 3.9375 0 L 3.9375 -27.53125 L 8.953125 -27.53125 L 8.953125 0 Z M 6.484375 -31.90625 C 5.578125 -31.90625 4.789062 -32.238281 4.125 -32.90625 C 3.46875 -33.570312 3.140625 -34.351562 3.140625 -35.25 C 3.140625 -36.144531 3.46875 -36.925781 4.125 -37.59375 C 4.789062 -38.257812 5.578125 -38.59375 6.484375 -38.59375 C 7.378906 -38.59375 8.160156 -38.257812 8.828125 -37.59375 C 9.492188 -36.925781 9.828125 -36.144531 9.828125 -35.25 C 9.828125 -34.351562 9.492188 -33.570312 8.828125 -32.90625 C 8.160156 -32.238281 7.378906 -31.90625 6.484375 -31.90625 Z M 6.484375 -31.90625 "/></g></g></g><g fill="#3b3430" fill-opacity="1"><g transform="translate(661.008066, 142.433976)"><g><path d="M 15.375 0.640625 C 12.71875 0.640625 10.414062 0.00390625 8.46875 -1.265625 C 6.53125 -2.546875 5.035156 -4.28125 3.984375 -6.46875 C 2.941406 -8.664062 2.421875 -11.097656 2.421875 -13.765625 C 2.421875 -16.460938 2.992188 -18.898438 4.140625 -21.078125 C 5.296875 -23.253906 6.953125 -24.976562 9.109375 -26.25 C 11.273438 -27.53125 13.867188 -28.171875 16.890625 -28.171875 C 19.804688 -28.171875 22.304688 -27.539062 24.390625 -26.28125 C 26.484375 -25.019531 28.09375 -23.3125 29.21875 -21.15625 C 30.351562 -19 30.921875 -16.585938 30.921875 -13.921875 L 30.921875 0 L 25.90625 0 L 25.90625 -5.609375 L 25.796875 -5.609375 C 25.253906 -4.566406 24.523438 -3.566406 23.609375 -2.609375 C 22.691406 -1.660156 21.550781 -0.878906 20.1875 -0.265625 C 18.820312 0.335938 17.21875 0.640625 15.375 0.640625 Z M 16.671875 -3.609375 C 18.472656 -3.609375 20.066406 -4.050781 21.453125 -4.9375 C 22.835938 -5.820312 23.914062 -7.046875 24.6875 -8.609375 C 25.457031 -10.171875 25.84375 -11.925781 25.84375 -13.875 C 25.84375 -15.78125 25.472656 -17.488281 24.734375 -19 C 24.003906 -20.507812 22.953125 -21.703125 21.578125 -22.578125 C 20.210938 -23.460938 18.613281 -23.90625 16.78125 -23.90625 C 14.84375 -23.90625 13.179688 -23.453125 11.796875 -22.546875 C 10.410156 -21.648438 9.347656 -20.4375 8.609375 -18.90625 C 7.867188 -17.382812 7.5 -15.648438 7.5 -13.703125 C 7.5 -11.835938 7.859375 -10.140625 8.578125 -8.609375 C 9.296875 -7.078125 10.335938 -5.859375 11.703125 -4.953125 C 13.078125 -4.054688 14.734375 -3.609375 16.671875 -3.609375 Z M 16.671875 -3.609375 "/></g></g></g><g fill="#3b3430" fill-opacity="1"><g transform="translate(695.875066, 142.433976)"><g><path d="M 3.9375 0 L 3.9375 -16.5625 C 3.9375 -18.6875 4.421875 -20.628906 5.390625 -22.390625 C 6.367188 -24.160156 7.773438 -25.566406 9.609375 -26.609375 C 11.441406 -27.648438 13.65625 -28.171875 16.25 -28.171875 C 17.507812 -28.171875 18.765625 -28 20.015625 -27.65625 C 21.273438 -27.3125 22.445312 -26.734375 23.53125 -25.921875 C 24.613281 -25.117188 25.476562 -24.035156 26.125 -22.671875 L 26.171875 -22.671875 C 26.890625 -24.035156 27.789062 -25.117188 28.875 -25.921875 C 29.957031 -26.734375 31.125 -27.3125 32.375 -27.65625 C 33.632812 -28 34.914062 -28.171875 36.21875 -28.171875 C 38.769531 -28.171875 40.960938 -27.648438 42.796875 -26.609375 C 44.628906 -25.566406 46.03125 -24.160156 47 -22.390625 C 47.976562 -20.628906 48.46875 -18.6875 48.46875 -16.5625 L 48.46875 0 L 43.5 0 L 43.5 -16.5625 C 43.5 -17.9375 43.175781 -19.179688 42.53125 -20.296875 C 41.882812 -21.410156 41.007812 -22.289062 39.90625 -22.9375 C 38.8125 -23.582031 37.5625 -23.90625 36.15625 -23.90625 C 34.789062 -23.90625 33.53125 -23.570312 32.375 -22.90625 C 31.226562 -22.238281 30.320312 -21.359375 29.65625 -20.265625 C 28.988281 -19.171875 28.65625 -17.9375 28.65625 -16.5625 L 28.65625 0 L 23.6875 0 L 23.6875 -16.5625 C 23.6875 -17.9375 23.351562 -19.171875 22.6875 -20.265625 C 22.03125 -21.359375 21.132812 -22.238281 20 -22.90625 C 18.863281 -23.570312 17.59375 -23.90625 16.1875 -23.90625 C 14.820312 -23.90625 13.585938 -23.582031 12.484375 -22.9375 C 11.390625 -22.289062 10.519531 -21.410156 9.875 -20.296875 C 9.226562 -19.179688 8.90625 -17.9375 8.90625 -16.5625 L 8.90625 0 Z M 3.9375 0 "/></g></g></g><g fill="#3b3430" fill-opacity="1"><g transform="translate(748.283476, 142.433976)"><g><path d="M 3.5625 0 L 3.5625 -4.265625 L 16.734375 -4.265625 C 17.597656 -4.265625 18.34375 -4.453125 18.96875 -4.828125 C 19.601562 -5.203125 20.082031 -5.695312 20.40625 -6.3125 C 20.726562 -6.925781 20.890625 -7.570312 20.890625 -8.25 C 20.890625 -8.90625 20.742188 -9.507812 20.453125 -10.0625 C 20.160156 -10.625 19.71875 -11.070312 19.125 -11.40625 C 18.53125 -11.75 17.820312 -11.921875 17 -11.921875 L 11.4375 -11.921875 C 9.675781 -11.921875 8.140625 -12.21875 6.828125 -12.8125 C 5.515625 -13.40625 4.488281 -14.273438 3.75 -15.421875 C 3.007812 -16.578125 2.640625 -17.984375 2.640625 -19.640625 C 2.640625 -21.046875 2.976562 -22.34375 3.65625 -23.53125 C 4.34375 -24.71875 5.296875 -25.679688 6.515625 -26.421875 C 7.742188 -27.160156 9.148438 -27.53125 10.734375 -27.53125 L 23.421875 -27.53125 L 23.421875 -23.265625 L 11.21875 -23.265625 C 10.101562 -23.265625 9.222656 -22.921875 8.578125 -22.234375 C 7.929688 -21.546875 7.609375 -20.738281 7.609375 -19.8125 C 7.609375 -18.90625 7.941406 -18.117188 8.609375 -17.453125 C 9.273438 -16.785156 10.21875 -16.453125 11.4375 -16.453125 L 16.734375 -16.453125 C 18.710938 -16.453125 20.375 -16.140625 21.71875 -15.515625 C 23.070312 -14.890625 24.097656 -13.984375 24.796875 -12.796875 C 25.492188 -11.609375 25.84375 -10.148438 25.84375 -8.421875 C 25.84375 -6.941406 25.484375 -5.5625 24.765625 -4.28125 C 24.046875 -3.007812 23.046875 -1.976562 21.765625 -1.1875 C 20.492188 -0.394531 19.015625 0 17.328125 0 Z M 3.5625 0 "/></g></g></g><g clip-path="url(#df72b8d746)"><g mask="url(#2cd29333c4)"><g transform="matrix(1, 0, 0, 1, 214, 541)"><g clip-path="url(#80d3eafe55)"><g clip-path="url(#cdefc0e42e)"><g><g clip-path="url(#db9b021431)"><g clip-path="url(#27ed66778a)"><g clip-path="url(#3ed8f39736)"><g transform="matrix(1, 0, 0, 1, 17, 0)"><g clip-path="url(#c94943c208)"><g clip-path="url(#b35bca3f1e)"><g clip-path="url(#c6abd2fdb4)"><path fill="#f2f0ef" d="M 0.980469 0.84375 L 561.304688 0.84375 L 561.304688 41.261719 L 0.980469 41.261719 Z M 0.980469 0.84375 " fill-opacity="1" fill-rule="nonzero"/></g></g></g></g></g></g><g clip-path="url(#9dc51e62fa)"><g clip-path="url(#c3f17b89a1)"><g><g clip-path="url(#1782141142)"><g clip-path="url(#6dee8d8e80)"><g clip-path="url(#5073673c36)"><path fill="#f2f0ef" d="M 0.917969 0.84375 L 40.832031 0.84375 L 40.832031 41.222656 L 0.917969 41.222656 Z M 0.917969 0.84375 " fill-opacity="1" fill-rule="nonzero"/></g></g></g></g></g></g><g clip-path="url(#9e5cbf80f6)"><g clip-path="url(#7c3c5d77ac)"><g transform="matrix(1, 0, 0, 1, 558, 0)"><g clip-path="url(#bcb0fc0e45)"><g clip-path="url(#50e5699e67)"><g clip-path="url(#c625d01928)"><path fill="#f2f0ef" d="M 40.246094 0.84375 L 40.246094 41.222656 L 0.332031 41.222656 L 0.332031 0.84375 Z M 40.246094 0.84375 " fill-opacity="1" fill-rule="nonzero"/></g></g></g></g></g></g></g></g></g></g></g></g></g><g clip-path="url(#141020e230)"><g mask="url(#a54f5f4c0a)"><g transform="matrix(1, 0, 0, 1, 224, 549)"><g clip-path="url(#b026bf9c84)"><g clip-path="url(#57bbb9cbfa)"><g transform="matrix(1, 0, 0, 1, 0, -0.000000000000113687)"><g clip-path="url(#1366570103)"><g clip-path="url(#f9c7960439)"><g clip-path="url(#7085d98229)"><g transform="matrix(1, 0, 0, 1, 16, -0.000000000000113687)"><g clip-path="url(#2c41cd070b)"><g clip-path="url(#de2d721091)"><g clip-path="url(#12403a6ba3)"><path fill="#f2f0ef" d="M 0.929688 0.574219 L 540.304688 0.574219 L 540.304688 38.992188 L 0.929688 38.992188 Z M 0.929688 0.574219 " fill-opacity="1" fill-rule="nonzero"/></g></g></g></g></g></g><g clip-path="url(#f7fb93d559)"><g clip-path="url(#5015c2d9d9)"><g transform="matrix(1, 0, 0, 1, 0, -0.000000000000113687)"><g clip-path="url(#588ca55b39)"><g clip-path="url(#1e41177996)"><g clip-path="url(#f37f5ddf6e)"><path fill="#f2f0ef" d="M 0.507812 0.574219 L 38.925781 0.574219 L 38.925781 38.992188 L 0.507812 38.992188 Z M 0.507812 0.574219 " fill-opacity="1" fill-rule="nonzero"/></g></g></g></g></g></g><g clip-path="url(#11596747fe)"><g clip-path="url(#f4647ca03e)"><g transform="matrix(1, 0, 0, 1, 537, -0.000000000000113687)"><g clip-path="url(#7c9d0245ec)"><g clip-path="url(#9d3d3e2f41)"><g clip-path="url(#bab23ccdd9)"><path fill="#f2f0ef" d="M 38.484375 0.574219 L 38.484375 38.992188 L 0.0664062 38.992188 L 0.0664062 0.574219 Z M 38.484375 0.574219 " fill-opacity="1" fill-rule="nonzero"/></g></g></g></g></g></g></g></g></g></g></g></g></g></svg>