<svg xmlns="http://www.w3.org/2000/svg" xmlns:xlink="http://www.w3.org/1999/xlink" width="1366" zoomAndPan="magnify" viewBox="0 0 1024.5 576" height="768" preserveAspectRatio="xMidYMid meet" version="1.0"><defs><filter x="0%" y="0%" width="100%" height="100%" id="75f4f1b995"><feColorMatrix values="0 0 0 0 1 0 0 0 0 1 0 0 0 0 1 0 0 0 1 0" color-interpolation-filters="sRGB"/></filter><clipPath id="5473b6e3fa"><path d="M 588.605469 430.5625 L 665.210938 430.5625 L 665.210938 507.167969 L 588.605469 507.167969 Z M 588.605469 430.5625 " clip-rule="nonzero"/></clipPath><clipPath id="6cd72f9f27"><path d="M 626.910156 430.5625 C 605.753906 430.5625 588.605469 447.710938 588.605469 468.867188 C 588.605469 490.019531 605.753906 507.167969 626.910156 507.167969 C 648.0625 507.167969 665.210938 490.019531 665.210938 468.867188 C 665.210938 447.710938 648.0625 430.5625 626.910156 430.5625 Z M 626.910156 430.5625 " clip-rule="nonzero"/></clipPath><clipPath id="c25a82c91d"><path d="M 0.605469 0.5625 L 77.210938 0.5625 L 77.210938 77.167969 L 0.605469 77.167969 Z M 0.605469 0.5625 " clip-rule="nonzero"/></clipPath><clipPath id="af383ba7ee"><path d="M 38.910156 0.5625 C 17.753906 0.5625 0.605469 17.710938 0.605469 38.867188 C 0.605469 60.019531 17.753906 77.167969 38.910156 77.167969 C 60.0625 77.167969 77.210938 60.019531 77.210938 38.867188 C 77.210938 17.710938 60.0625 0.5625 38.910156 0.5625 Z M 38.910156 0.5625 " clip-rule="nonzero"/></clipPath><clipPath id="a168018b66"><rect x="0" width="78" y="0" height="78"/></clipPath><clipPath id="4f2c512058"><path d="M 588.605469 430.5625 L 665.070312 430.5625 L 665.070312 507.027344 L 588.605469 507.027344 Z M 588.605469 430.5625 " clip-rule="nonzero"/></clipPath><clipPath id="1bf5457081"><path d="M 626.90625 430.5625 C 605.753906 430.5625 588.605469 447.710938 588.605469 468.867188 C 588.605469 490.019531 605.753906 507.167969 626.90625 507.167969 C 648.0625 507.167969 665.210938 490.019531 665.210938 468.867188 C 665.210938 447.710938 648.0625 430.5625 626.90625 430.5625 Z M 626.90625 430.5625 " clip-rule="nonzero"/></clipPath><mask id="d587fdef4d"><g filter="url(#75f4f1b995)"><rect x="-102.45" width="1229.4" fill="#000000" y="-57.6" height="691.2" fill-opacity="0.2"/></g></mask><clipPath id="74e7385dfe"><path d="M 1.101562 1.113281 L 57.40625 1.113281 L 57.40625 57.421875 L 1.101562 57.421875 Z M 1.101562 1.113281 " clip-rule="nonzero"/></clipPath><clipPath id="ab1e7164e2"><path d="M 29.253906 1.113281 C 13.707031 1.113281 1.101562 13.71875 1.101562 29.269531 C 1.101562 44.816406 13.707031 57.421875 29.253906 57.421875 C 44.804688 57.421875 57.40625 44.816406 57.40625 29.269531 C 57.40625 13.71875 44.804688 1.113281 29.253906 1.113281 Z M 29.253906 1.113281 " clip-rule="nonzero"/></clipPath><clipPath id="fa838fd147"><path d="M 0.101562 0.113281 L 56.40625 0.113281 L 56.40625 56.421875 L 0.101562 56.421875 Z M 0.101562 0.113281 " clip-rule="nonzero"/></clipPath><clipPath id="bcd39b5612"><path d="M 28.253906 0.113281 C 12.707031 0.113281 0.101562 12.71875 0.101562 28.269531 C 0.101562 43.816406 12.707031 56.421875 28.253906 56.421875 C 43.804688 56.421875 56.40625 43.816406 56.40625 28.269531 C 56.40625 12.71875 43.804688 0.113281 28.253906 0.113281 Z M 28.253906 0.113281 " clip-rule="nonzero"/></clipPath><clipPath id="0c46643462"><rect x="0" width="57" y="0" height="57"/></clipPath><clipPath id="b10ecabe24"><rect x="0" width="58" y="0" height="58"/></clipPath><mask id="a1d230f7b6"><g filter="url(#75f4f1b995)"><rect x="-102.45" width="1229.4" fill="#000000" y="-57.6" height="691.2" fill-opacity="0.15"/></g></mask><clipPath id="8576414bfe"><path d="M 0.546875 0.222656 L 32.9375 0.222656 L 32.9375 32.613281 L 0.546875 32.613281 Z M 0.546875 0.222656 " clip-rule="nonzero"/></clipPath><clipPath id="513c9c30f0"><path d="M 16.742188 0.222656 C 7.796875 0.222656 0.546875 7.472656 0.546875 16.417969 C 0.546875 25.363281 7.796875 32.613281 16.742188 32.613281 C 25.6875 32.613281 32.9375 25.363281 32.9375 16.417969 C 32.9375 7.472656 25.6875 0.222656 16.742188 0.222656 Z M 16.742188 0.222656 " clip-rule="nonzero"/></clipPath><clipPath id="baf2e0303f"><path d="M 0.546875 0.222656 L 32.9375 0.222656 L 32.9375 32.613281 L 0.546875 32.613281 Z M 0.546875 0.222656 " clip-rule="nonzero"/></clipPath><clipPath id="76ac897fa0"><path d="M 16.742188 0.222656 C 7.796875 0.222656 0.546875 7.472656 0.546875 16.417969 C 0.546875 25.363281 7.796875 32.613281 16.742188 32.613281 C 25.6875 32.613281 32.9375 25.363281 32.9375 16.417969 C 32.9375 7.472656 25.6875 0.222656 16.742188 0.222656 Z M 16.742188 0.222656 " clip-rule="nonzero"/></clipPath><clipPath id="a6454ce956"><rect x="0" width="33" y="0" height="33"/></clipPath><clipPath id="f5111f0646"><rect x="0" width="33" y="0" height="33"/></clipPath><mask id="83d8271dd0"><g filter="url(#75f4f1b995)"><rect x="-102.45" width="1229.4" fill="#000000" y="-57.6" height="691.2" fill-opacity="0.15"/></g></mask><clipPath id="7257f034fe"><path d="M 1.082031 0.957031 L 19.253906 0.957031 L 19.253906 19.132812 L 1.082031 19.132812 Z M 1.082031 0.957031 " clip-rule="nonzero"/></clipPath><clipPath id="0f072f29ac"><path d="M 10.167969 0.957031 C 5.148438 0.957031 1.082031 5.027344 1.082031 10.042969 C 1.082031 15.0625 5.148438 19.132812 10.167969 19.132812 C 15.1875 19.132812 19.253906 15.0625 19.253906 10.042969 C 19.253906 5.027344 15.1875 0.957031 10.167969 0.957031 Z M 10.167969 0.957031 " clip-rule="nonzero"/></clipPath><clipPath id="0196082609"><path d="M 0.0820312 0.957031 L 18.253906 0.957031 L 18.253906 19.132812 L 0.0820312 19.132812 Z M 0.0820312 0.957031 " clip-rule="nonzero"/></clipPath><clipPath id="50eb4b6ca3"><path d="M 9.167969 0.957031 C 4.148438 0.957031 0.0820312 5.027344 0.0820312 10.042969 C 0.0820312 15.0625 4.148438 19.132812 9.167969 19.132812 C 14.1875 19.132812 18.253906 15.0625 18.253906 10.042969 C 18.253906 5.027344 14.1875 0.957031 9.167969 0.957031 Z M 9.167969 0.957031 " clip-rule="nonzero"/></clipPath><clipPath id="0b2bdb4530"><rect x="0" width="19" y="0" height="20"/></clipPath><clipPath id="1e4a90d72e"><rect x="0" width="20" y="0" height="20"/></clipPath></defs><g clip-path="url(#5473b6e3fa)"><g clip-path="url(#6cd72f9f27)"><g transform="matrix(1, 0, 0, 1, 588, 430)"><g clip-path="url(#a168018b66)"><g clip-path="url(#c25a82c91d)"><g clip-path="url(#af383ba7ee)"><path fill="#004e7a" d="M 0.605469 0.5625 L 77.210938 0.5625 L 77.210938 77.167969 L 0.605469 77.167969 Z M 0.605469 0.5625 " fill-opacity="1" fill-rule="nonzero"/></g></g></g></g></g></g><g clip-path="url(#4f2c512058)"><g clip-path="url(#1bf5457081)"><path stroke-linecap="butt" transform="matrix(0.749634, 0, 0, 0.749634, 588.605799, 430.563961)" fill="none" stroke-linejoin="miter" d="M 51.092194 -0.00194858 C 22.875303 -0.00194858 -0.000439953 22.873795 -0.000439953 51.095896 C -0.000439953 79.312787 22.875303 102.18853 51.092194 102.18853 C 79.314295 102.18853 102.190038 79.312787 102.190038 51.095896 C 102.190038 22.873795 79.314295 -0.00194858 51.092194 -0.00194858 Z M 51.092194 -0.00194858 " stroke="#00273d" stroke-width="8" stroke-opacity="1" stroke-miterlimit="4"/></g></g><path stroke-linecap="butt" transform="matrix(0, -0.749634, 0.749634, 0, 623.837499, 430.562809)" fill="none" stroke-linejoin="miter" d="M 0.000412579 1.998894 L 354.50148 1.998894 " stroke="#3b3432" stroke-width="4" stroke-opacity="1" stroke-miterlimit="4"/><g mask="url(#d587fdef4d)"><g transform="matrix(1, 0, 0, 1, 595, 437)"><g clip-path="url(#b10ecabe24)"><g clip-path="url(#74e7385dfe)"><g clip-path="url(#ab1e7164e2)"><g transform="matrix(1, 0, 0, 1, 1, 1)"><g clip-path="url(#0c46643462)"><g clip-path="url(#fa838fd147)"><g clip-path="url(#bcd39b5612)"><path fill="#f2f0ef" d="M 0.101562 0.113281 L 56.40625 0.113281 L 56.40625 56.421875 L 0.101562 56.421875 Z M 0.101562 0.113281 " fill-opacity="1" fill-rule="nonzero"/></g></g></g></g></g></g></g></g></g><g mask="url(#a1d230f7b6)"><g transform="matrix(1, 0, 0, 1, 602, 443)"><g clip-path="url(#f5111f0646)"><g clip-path="url(#8576414bfe)"><g clip-path="url(#513c9c30f0)"><g transform="matrix(1, 0, 0, 1, 0, -0.000000000000056843)"><g clip-path="url(#a6454ce956)"><g clip-path="url(#baf2e0303f)"><g clip-path="url(#76ac897fa0)"><path fill="#f2f0ef" d="M 0.546875 0.222656 L 32.9375 0.222656 L 32.9375 32.613281 L 0.546875 32.613281 Z M 0.546875 0.222656 " fill-opacity="1" fill-rule="nonzero"/></g></g></g></g></g></g></g></g></g><g mask="url(#83d8271dd0)"><g transform="matrix(1, 0, 0, 1, 605, 446)"><g clip-path="url(#1e4a90d72e)"><g clip-path="url(#7257f034fe)"><g clip-path="url(#0f072f29ac)"><g transform="matrix(1, 0, 0, 1, 1, -0.000000000000056843)"><g clip-path="url(#0b2bdb4530)"><g clip-path="url(#0196082609)"><g clip-path="url(#50eb4b6ca3)"><path fill="#f2f0ef" d="M 0.0820312 0.957031 L 18.253906 0.957031 L 18.253906 19.132812 L 0.0820312 19.132812 Z M 0.0820312 0.957031 " fill-opacity="1" fill-rule="nonzero"/></g></g></g></g></g></g></g></g></g></svg>