<svg xmlns="http://www.w3.org/2000/svg" xmlns:xlink="http://www.w3.org/1999/xlink" width="1366" zoomAndPan="magnify" viewBox="0 0 1024.5 576" height="768" preserveAspectRatio="xMidYMid meet" version="1.0"><defs><filter x="0%" y="0%" width="100%" height="100%" id="e9dd39a2d2"><feColorMatrix values="0 0 0 0 1 0 0 0 0 1 0 0 0 0 1 0 0 0 1 0" color-interpolation-filters="sRGB"/></filter><clipPath id="bbb6fcdec0"><path d="M 512 430.5625 L 588.605469 430.5625 L 588.605469 507.167969 L 512 507.167969 Z M 512 430.5625 " clip-rule="nonzero"/></clipPath><clipPath id="bc84ccc501"><path d="M 550.304688 430.5625 C 529.148438 430.5625 512 447.710938 512 468.867188 C 512 490.019531 529.148438 507.167969 550.304688 507.167969 C 571.457031 507.167969 588.605469 490.019531 588.605469 468.867188 C 588.605469 447.710938 571.457031 430.5625 550.304688 430.5625 Z M 550.304688 430.5625 " clip-rule="nonzero"/></clipPath><clipPath id="12a204e8d2"><path d="M 0 0.5625 L 76.605469 0.5625 L 76.605469 77.167969 L 0 77.167969 Z M 0 0.5625 " clip-rule="nonzero"/></clipPath><clipPath id="ac055b8437"><path d="M 38.304688 0.5625 C 17.148438 0.5625 0 17.710938 0 38.867188 C 0 60.019531 17.148438 77.167969 38.304688 77.167969 C 59.457031 77.167969 76.605469 60.019531 76.605469 38.867188 C 76.605469 17.710938 59.457031 0.5625 38.304688 0.5625 Z M 38.304688 0.5625 " clip-rule="nonzero"/></clipPath><clipPath id="6d1d195124"><rect x="0" width="77" y="0" height="78"/></clipPath><clipPath id="b762573da8"><path d="M 512 430.5625 L 588.460938 430.5625 L 588.460938 507.027344 L 512 507.027344 Z M 512 430.5625 " clip-rule="nonzero"/></clipPath><clipPath id="1ecab02dcb"><path d="M 550.300781 430.5625 C 529.148438 430.5625 512 447.710938 512 468.867188 C 512 490.019531 529.148438 507.167969 550.300781 507.167969 C 571.457031 507.167969 588.601562 490.019531 588.601562 468.867188 C 588.601562 447.710938 571.457031 430.5625 550.300781 430.5625 Z M 550.300781 430.5625 " clip-rule="nonzero"/></clipPath><mask id="7ec88d3aa1"><g filter="url(#e9dd39a2d2)"><rect x="-102.45" width="1229.4" fill="#000000" y="-57.6" height="691.2" fill-opacity="0.2"/></g></mask><clipPath id="d6428bbd13"><path d="M 0.496094 1.113281 L 56.800781 1.113281 L 56.800781 57.421875 L 0.496094 57.421875 Z M 0.496094 1.113281 " clip-rule="nonzero"/></clipPath><clipPath id="c7eb036cec"><path d="M 28.648438 1.113281 C 13.101562 1.113281 0.496094 13.71875 0.496094 29.269531 C 0.496094 44.816406 13.101562 57.421875 28.648438 57.421875 C 44.195312 57.421875 56.800781 44.816406 56.800781 29.269531 C 56.800781 13.71875 44.195312 1.113281 28.648438 1.113281 Z M 28.648438 1.113281 " clip-rule="nonzero"/></clipPath><clipPath id="081fc6c1fa"><path d="M 0.496094 0.113281 L 56.800781 0.113281 L 56.800781 56.421875 L 0.496094 56.421875 Z M 0.496094 0.113281 " clip-rule="nonzero"/></clipPath><clipPath id="72f9eb430b"><path d="M 28.648438 0.113281 C 13.101562 0.113281 0.496094 12.71875 0.496094 28.269531 C 0.496094 43.816406 13.101562 56.421875 28.648438 56.421875 C 44.195312 56.421875 56.800781 43.816406 56.800781 28.269531 C 56.800781 12.71875 44.195312 0.113281 28.648438 0.113281 Z M 28.648438 0.113281 " clip-rule="nonzero"/></clipPath><clipPath id="a66ec33b45"><rect x="0" width="57" y="0" height="57"/></clipPath><clipPath id="4e05c3e88c"><rect x="0" width="57" y="0" height="58"/></clipPath><mask id="0d61361877"><g filter="url(#e9dd39a2d2)"><rect x="-102.45" width="1229.4" fill="#000000" y="-57.6" height="691.2" fill-opacity="0.15"/></g></mask><clipPath id="f376c6b8b2"><path d="M 0.941406 0.222656 L 33.332031 0.222656 L 33.332031 32.613281 L 0.941406 32.613281 Z M 0.941406 0.222656 " clip-rule="nonzero"/></clipPath><clipPath id="47584cc5b8"><path d="M 17.136719 0.222656 C 8.191406 0.222656 0.941406 7.472656 0.941406 16.417969 C 0.941406 25.363281 8.191406 32.613281 17.136719 32.613281 C 26.082031 32.613281 33.332031 25.363281 33.332031 16.417969 C 33.332031 7.472656 26.082031 0.222656 17.136719 0.222656 Z M 17.136719 0.222656 " clip-rule="nonzero"/></clipPath><clipPath id="8286906e1e"><path d="M 0.941406 0.222656 L 33.332031 0.222656 L 33.332031 32.613281 L 0.941406 32.613281 Z M 0.941406 0.222656 " clip-rule="nonzero"/></clipPath><clipPath id="5141147361"><path d="M 17.136719 0.222656 C 8.191406 0.222656 0.941406 7.472656 0.941406 16.417969 C 0.941406 25.363281 8.191406 32.613281 17.136719 32.613281 C 26.082031 32.613281 33.332031 25.363281 33.332031 16.417969 C 33.332031 7.472656 26.082031 0.222656 17.136719 0.222656 Z M 17.136719 0.222656 " clip-rule="nonzero"/></clipPath><clipPath id="adf4cbd550"><rect x="0" width="34" y="0" height="33"/></clipPath><clipPath id="22a4f52bd1"><rect x="0" width="34" y="0" height="33"/></clipPath><mask id="ea9e7d5076"><g filter="url(#e9dd39a2d2)"><rect x="-102.45" width="1229.4" fill="#000000" y="-57.6" height="691.2" fill-opacity="0.15"/></g></mask><clipPath id="aabb05d054"><path d="M 0.476562 0.957031 L 18.648438 0.957031 L 18.648438 19.132812 L 0.476562 19.132812 Z M 0.476562 0.957031 " clip-rule="nonzero"/></clipPath><clipPath id="df33d7f762"><path d="M 9.5625 0.957031 C 4.542969 0.957031 0.476562 5.027344 0.476562 10.042969 C 0.476562 15.0625 4.542969 19.132812 9.5625 19.132812 C 14.582031 19.132812 18.648438 15.0625 18.648438 10.042969 C 18.648438 5.027344 14.582031 0.957031 9.5625 0.957031 Z M 9.5625 0.957031 " clip-rule="nonzero"/></clipPath><clipPath id="d81b6b0159"><path d="M 0.476562 0.957031 L 18.648438 0.957031 L 18.648438 19.132812 L 0.476562 19.132812 Z M 0.476562 0.957031 " clip-rule="nonzero"/></clipPath><clipPath id="75029bcead"><path d="M 9.5625 0.957031 C 4.542969 0.957031 0.476562 5.027344 0.476562 10.042969 C 0.476562 15.0625 4.542969 19.132812 9.5625 19.132812 C 14.582031 19.132812 18.648438 15.0625 18.648438 10.042969 C 18.648438 5.027344 14.582031 0.957031 9.5625 0.957031 Z M 9.5625 0.957031 " clip-rule="nonzero"/></clipPath><clipPath id="d71343ad3f"><rect x="0" width="19" y="0" height="20"/></clipPath><clipPath id="90d1c77d61"><rect x="0" width="19" y="0" height="20"/></clipPath></defs><g clip-path="url(#bbb6fcdec0)"><g clip-path="url(#bc84ccc501)"><g transform="matrix(1, 0, 0, 1, 512, 430)"><g clip-path="url(#6d1d195124)"><g clip-path="url(#12a204e8d2)"><g clip-path="url(#ac055b8437)"><path fill="#457a00" d="M 0 0.5625 L 76.605469 0.5625 L 76.605469 77.167969 L 0 77.167969 Z M 0 0.5625 " fill-opacity="1" fill-rule="nonzero"/></g></g></g></g></g></g><g clip-path="url(#b762573da8)"><g clip-path="url(#1ecab02dcb)"><path stroke-linecap="butt" transform="matrix(0.749634, 0, 0, 0.749634, 512.000101, 430.563961)" fill="none" stroke-linejoin="miter" d="M 51.092499 -0.00194858 C 22.875609 -0.00194858 -0.000134223 22.873795 -0.000134223 51.095896 C -0.000134223 79.312787 22.875609 102.18853 51.092499 102.18853 C 79.314601 102.18853 102.185133 79.312787 102.185133 51.095896 C 102.185133 22.873795 79.314601 -0.00194858 51.092499 -0.00194858 Z M 51.092499 -0.00194858 " stroke="#233d00" stroke-width="8" stroke-opacity="1" stroke-miterlimit="4"/></g></g><path stroke-linecap="butt" transform="matrix(0, -0.749634, 0.749634, 0, 550.301846, 430.562809)" fill="none" stroke-linejoin="miter" d="M 0.000412579 1.999556 L 354.50148 1.999556 " stroke="#3b3432" stroke-width="4" stroke-opacity="1" stroke-miterlimit="4"/><g mask="url(#7ec88d3aa1)"><g transform="matrix(1, 0, 0, 1, 519, 437)"><g clip-path="url(#4e05c3e88c)"><g clip-path="url(#d6428bbd13)"><g clip-path="url(#c7eb036cec)"><g transform="matrix(1, 0, 0, 1, 0, 1)"><g clip-path="url(#a66ec33b45)"><g clip-path="url(#081fc6c1fa)"><g clip-path="url(#72f9eb430b)"><path fill="#f2f0ef" d="M 0.496094 0.113281 L 56.800781 0.113281 L 56.800781 56.421875 L 0.496094 56.421875 Z M 0.496094 0.113281 " fill-opacity="1" fill-rule="nonzero"/></g></g></g></g></g></g></g></g></g><g mask="url(#0d61361877)"><g transform="matrix(1, 0, 0, 1, 525, 443)"><g clip-path="url(#22a4f52bd1)"><g clip-path="url(#f376c6b8b2)"><g clip-path="url(#47584cc5b8)"><g transform="matrix(1, 0, 0, 1, 0, -0.000000000000056843)"><g clip-path="url(#adf4cbd550)"><g clip-path="url(#8286906e1e)"><g clip-path="url(#5141147361)"><path fill="#f2f0ef" d="M 0.941406 0.222656 L 33.332031 0.222656 L 33.332031 32.613281 L 0.941406 32.613281 Z M 0.941406 0.222656 " fill-opacity="1" fill-rule="nonzero"/></g></g></g></g></g></g></g></g></g><g mask="url(#ea9e7d5076)"><g transform="matrix(1, 0, 0, 1, 529, 446)"><g clip-path="url(#90d1c77d61)"><g clip-path="url(#aabb05d054)"><g clip-path="url(#df33d7f762)"><g transform="matrix(1, 0, 0, 1, 0, -0.000000000000056843)"><g clip-path="url(#d71343ad3f)"><g clip-path="url(#d81b6b0159)"><g clip-path="url(#75029bcead)"><path fill="#f2f0ef" d="M 0.476562 0.957031 L 18.648438 0.957031 L 18.648438 19.132812 L 0.476562 19.132812 Z M 0.476562 0.957031 " fill-opacity="1" fill-rule="nonzero"/></g></g></g></g></g></g></g></g></g></svg>