<svg xmlns="http://www.w3.org/2000/svg" xmlns:xlink="http://www.w3.org/1999/xlink" width="1366" zoomAndPan="magnify" viewBox="0 0 1024.5 576" height="768" preserveAspectRatio="xMidYMid meet" version="1.0"><defs><filter x="0%" y="0%" width="100%" height="100%" id="49d113f391"><feColorMatrix values="0 0 0 0 1 0 0 0 0 1 0 0 0 0 1 0 0 0 1 0" color-interpolation-filters="sRGB"/></filter><clipPath id="f55b2995c9"><path d="M 358.789062 430.5625 L 435.394531 430.5625 L 435.394531 507.167969 L 358.789062 507.167969 Z M 358.789062 430.5625 " clip-rule="nonzero"/></clipPath><clipPath id="c3ae7628b1"><path d="M 397.089844 430.5625 C 375.9375 430.5625 358.789062 447.710938 358.789062 468.867188 C 358.789062 490.019531 375.9375 507.167969 397.089844 507.167969 C 418.246094 507.167969 435.394531 490.019531 435.394531 468.867188 C 435.394531 447.710938 418.246094 430.5625 397.089844 430.5625 Z M 397.089844 430.5625 " clip-rule="nonzero"/></clipPath><clipPath id="7c1a4713ea"><path d="M 0.789062 0.5625 L 77.394531 0.5625 L 77.394531 77.167969 L 0.789062 77.167969 Z M 0.789062 0.5625 " clip-rule="nonzero"/></clipPath><clipPath id="a77ba2aa96"><path d="M 39.089844 0.5625 C 17.9375 0.5625 0.789062 17.710938 0.789062 38.867188 C 0.789062 60.019531 17.9375 77.167969 39.089844 77.167969 C 60.246094 77.167969 77.394531 60.019531 77.394531 38.867188 C 77.394531 17.710938 60.246094 0.5625 39.089844 0.5625 Z M 39.089844 0.5625 " clip-rule="nonzero"/></clipPath><clipPath id="2a03c4d6c0"><rect x="0" width="78" y="0" height="78"/></clipPath><clipPath id="0153e77fe2"><path d="M 358.789062 430.5625 L 435.25 430.5625 L 435.25 507.027344 L 358.789062 507.027344 Z M 358.789062 430.5625 " clip-rule="nonzero"/></clipPath><clipPath id="56ef696230"><path d="M 397.089844 430.5625 C 375.9375 430.5625 358.789062 447.710938 358.789062 468.867188 C 358.789062 490.019531 375.9375 507.167969 397.089844 507.167969 C 418.242188 507.167969 435.390625 490.019531 435.390625 468.867188 C 435.390625 447.710938 418.242188 430.5625 397.089844 430.5625 Z M 397.089844 430.5625 " clip-rule="nonzero"/></clipPath><mask id="7d43e393c5"><g filter="url(#49d113f391)"><rect x="-102.45" width="1229.4" fill="#000000" y="-57.6" height="691.2" fill-opacity="0.2"/></g></mask><clipPath id="bcf27dc901"><path d="M 0.632812 1.113281 L 56.9375 1.113281 L 56.9375 57.421875 L 0.632812 57.421875 Z M 0.632812 1.113281 " clip-rule="nonzero"/></clipPath><clipPath id="f14b225776"><path d="M 28.785156 1.113281 C 13.234375 1.113281 0.632812 13.71875 0.632812 29.269531 C 0.632812 44.816406 13.234375 57.421875 28.785156 57.421875 C 44.332031 57.421875 56.9375 44.816406 56.9375 29.269531 C 56.9375 13.71875 44.332031 1.113281 28.785156 1.113281 Z M 28.785156 1.113281 " clip-rule="nonzero"/></clipPath><clipPath id="1840f4aea6"><path d="M 0.632812 0.113281 L 56.9375 0.113281 L 56.9375 56.421875 L 0.632812 56.421875 Z M 0.632812 0.113281 " clip-rule="nonzero"/></clipPath><clipPath id="b37b581c5e"><path d="M 28.785156 0.113281 C 13.234375 0.113281 0.632812 12.71875 0.632812 28.269531 C 0.632812 43.816406 13.234375 56.421875 28.785156 56.421875 C 44.332031 56.421875 56.9375 43.816406 56.9375 28.269531 C 56.9375 12.71875 44.332031 0.113281 28.785156 0.113281 Z M 28.785156 0.113281 " clip-rule="nonzero"/></clipPath><clipPath id="2a8cb7cb14"><rect x="0" width="57" y="0" height="57"/></clipPath><clipPath id="f96fd68518"><rect x="0" width="58" y="0" height="58"/></clipPath><mask id="bc73c9533e"><g filter="url(#49d113f391)"><rect x="-102.45" width="1229.4" fill="#000000" y="-57.6" height="691.2" fill-opacity="0.15"/></g></mask><clipPath id="9ff88d84d4"><path d="M 0.0742188 0.222656 L 32.46875 0.222656 L 32.46875 32.613281 L 0.0742188 32.613281 Z M 0.0742188 0.222656 " clip-rule="nonzero"/></clipPath><clipPath id="57b1bc8beb"><path d="M 16.273438 0.222656 C 7.328125 0.222656 0.0742188 7.472656 0.0742188 16.417969 C 0.0742188 25.363281 7.328125 32.613281 16.273438 32.613281 C 25.214844 32.613281 32.46875 25.363281 32.46875 16.417969 C 32.46875 7.472656 25.214844 0.222656 16.273438 0.222656 Z M 16.273438 0.222656 " clip-rule="nonzero"/></clipPath><clipPath id="e329e4f4cb"><path d="M 0.0742188 0.222656 L 32.46875 0.222656 L 32.46875 32.613281 L 0.0742188 32.613281 Z M 0.0742188 0.222656 " clip-rule="nonzero"/></clipPath><clipPath id="f035fe4e7a"><path d="M 16.273438 0.222656 C 7.328125 0.222656 0.0742188 7.472656 0.0742188 16.417969 C 0.0742188 25.363281 7.328125 32.613281 16.273438 32.613281 C 25.214844 32.613281 32.46875 25.363281 32.46875 16.417969 C 32.46875 7.472656 25.214844 0.222656 16.273438 0.222656 Z M 16.273438 0.222656 " clip-rule="nonzero"/></clipPath><clipPath id="c0dcfbb8b9"><rect x="0" width="33" y="0" height="33"/></clipPath><clipPath id="2a1b6315a4"><rect x="0" width="33" y="0" height="33"/></clipPath><mask id="0a948db047"><g filter="url(#49d113f391)"><rect x="-102.45" width="1229.4" fill="#000000" y="-57.6" height="691.2" fill-opacity="0.15"/></g></mask><clipPath id="1c06583435"><path d="M 0.609375 0.957031 L 18.785156 0.957031 L 18.785156 19.132812 L 0.609375 19.132812 Z M 0.609375 0.957031 " clip-rule="nonzero"/></clipPath><clipPath id="83f3fba08c"><path d="M 9.699219 0.957031 C 4.679688 0.957031 0.609375 5.027344 0.609375 10.042969 C 0.609375 15.0625 4.679688 19.132812 9.699219 19.132812 C 14.714844 19.132812 18.785156 15.0625 18.785156 10.042969 C 18.785156 5.027344 14.714844 0.957031 9.699219 0.957031 Z M 9.699219 0.957031 " clip-rule="nonzero"/></clipPath><clipPath id="ffb470567f"><path d="M 0.609375 0.957031 L 18.785156 0.957031 L 18.785156 19.132812 L 0.609375 19.132812 Z M 0.609375 0.957031 " clip-rule="nonzero"/></clipPath><clipPath id="4a3ca7b0ec"><path d="M 9.699219 0.957031 C 4.679688 0.957031 0.609375 5.027344 0.609375 10.042969 C 0.609375 15.0625 4.679688 19.132812 9.699219 19.132812 C 14.714844 19.132812 18.785156 15.0625 18.785156 10.042969 C 18.785156 5.027344 14.714844 0.957031 9.699219 0.957031 Z M 9.699219 0.957031 " clip-rule="nonzero"/></clipPath><clipPath id="8a42ff80b2"><rect x="0" width="19" y="0" height="20"/></clipPath><clipPath id="b16aa26c07"><rect x="0" width="19" y="0" height="20"/></clipPath></defs><g clip-path="url(#f55b2995c9)"><g clip-path="url(#c3ae7628b1)"><g transform="matrix(1, 0, 0, 1, 358, 430)"><g clip-path="url(#2a03c4d6c0)"><g clip-path="url(#7c1a4713ea)"><g clip-path="url(#a77ba2aa96)"><path fill="#cc4e00" d="M 0.789062 0.5625 L 77.394531 0.5625 L 77.394531 77.167969 L 0.789062 77.167969 Z M 0.789062 0.5625 " fill-opacity="1" fill-rule="nonzero"/></g></g></g></g></g></g><g clip-path="url(#0153e77fe2)"><g clip-path="url(#56ef696230)"><path stroke-linecap="butt" transform="matrix(0.749634, 0, 0, 0.749634, 358.788681, 430.563961)" fill="none" stroke-linejoin="miter" d="M 51.093143 -0.00194858 C 22.876252 -0.00194858 0.000509238 22.873795 0.000509238 51.095896 C 0.000509238 79.312787 22.876252 102.18853 51.093143 102.18853 C 79.310033 102.18853 102.185777 79.312787 102.185777 51.095896 C 102.185777 22.873795 79.310033 -0.00194858 51.093143 -0.00194858 Z M 51.093143 -0.00194858 " stroke="#7a2f00" stroke-width="8" stroke-opacity="1" stroke-miterlimit="4"/></g></g><path stroke-linecap="butt" transform="matrix(0, -0.749634, 0.749634, 0, 395.591117, 430.562809)" fill="none" stroke-linejoin="miter" d="M 0.000412579 1.999277 L 354.50148 1.999277 " stroke="#3b3432" stroke-width="4" stroke-opacity="1" stroke-miterlimit="4"/><g mask="url(#7d43e393c5)"><g transform="matrix(1, 0, 0, 1, 366, 437)"><g clip-path="url(#f96fd68518)"><g clip-path="url(#bcf27dc901)"><g clip-path="url(#f14b225776)"><g transform="matrix(1, 0, 0, 1, 0, 1)"><g clip-path="url(#2a8cb7cb14)"><g clip-path="url(#1840f4aea6)"><g clip-path="url(#b37b581c5e)"><path fill="#f2f0ef" d="M 0.632812 0.113281 L 56.9375 0.113281 L 56.9375 56.421875 L 0.632812 56.421875 Z M 0.632812 0.113281 " fill-opacity="1" fill-rule="nonzero"/></g></g></g></g></g></g></g></g></g><g mask="url(#bc73c9533e)"><g transform="matrix(1, 0, 0, 1, 373, 443)"><g clip-path="url(#2a1b6315a4)"><g clip-path="url(#9ff88d84d4)"><g clip-path="url(#57b1bc8beb)"><g transform="matrix(1, 0, 0, 1, 0, -0.000000000000056843)"><g clip-path="url(#c0dcfbb8b9)"><g clip-path="url(#e329e4f4cb)"><g clip-path="url(#f035fe4e7a)"><path fill="#f2f0ef" d="M 0.0742188 0.222656 L 32.46875 0.222656 L 32.46875 32.613281 L 0.0742188 32.613281 Z M 0.0742188 0.222656 " fill-opacity="1" fill-rule="nonzero"/></g></g></g></g></g></g></g></g></g><g mask="url(#0a948db047)"><g transform="matrix(1, 0, 0, 1, 376, 446)"><g clip-path="url(#b16aa26c07)"><g clip-path="url(#1c06583435)"><g clip-path="url(#83f3fba08c)"><g transform="matrix(1, 0, 0, 1, 0, -0.000000000000056843)"><g clip-path="url(#8a42ff80b2)"><g clip-path="url(#ffb470567f)"><g clip-path="url(#4a3ca7b0ec)"><path fill="#f2f0ef" d="M 0.609375 0.957031 L 18.785156 0.957031 L 18.785156 19.132812 L 0.609375 19.132812 Z M 0.609375 0.957031 " fill-opacity="1" fill-rule="nonzero"/></g></g></g></g></g></g></g></g></g></svg>