<svg xmlns="http://www.w3.org/2000/svg" xmlns:xlink="http://www.w3.org/1999/xlink" width="1366" zoomAndPan="magnify" viewBox="0 0 1024.5 576" height="768" preserveAspectRatio="xMidYMid meet" version="1.0"><defs><filter x="0%" y="0%" width="100%" height="100%" id="9ecd4d628c"><feColorMatrix values="0 0 0 0 1 0 0 0 0 1 0 0 0 0 1 0 0 0 1 0" color-interpolation-filters="sRGB"/></filter><clipPath id="74bc6e61a1"><path d="M 665.210938 430.5625 L 741.816406 430.5625 L 741.816406 507.167969 L 665.210938 507.167969 Z M 665.210938 430.5625 " clip-rule="nonzero"/></clipPath><clipPath id="3b99fa6cd3"><path d="M 703.515625 430.5625 C 682.359375 430.5625 665.210938 447.710938 665.210938 468.867188 C 665.210938 490.019531 682.359375 507.167969 703.515625 507.167969 C 724.667969 507.167969 741.816406 490.019531 741.816406 468.867188 C 741.816406 447.710938 724.667969 430.5625 703.515625 430.5625 Z M 703.515625 430.5625 " clip-rule="nonzero"/></clipPath><clipPath id="5e5747c1fa"><path d="M 0.210938 0.5625 L 76.816406 0.5625 L 76.816406 77.167969 L 0.210938 77.167969 Z M 0.210938 0.5625 " clip-rule="nonzero"/></clipPath><clipPath id="e03a7c55aa"><path d="M 38.515625 0.5625 C 17.359375 0.5625 0.210938 17.710938 0.210938 38.867188 C 0.210938 60.019531 17.359375 77.167969 38.515625 77.167969 C 59.667969 77.167969 76.816406 60.019531 76.816406 38.867188 C 76.816406 17.710938 59.667969 0.5625 38.515625 0.5625 Z M 38.515625 0.5625 " clip-rule="nonzero"/></clipPath><clipPath id="7cd3482964"><rect x="0" width="77" y="0" height="78"/></clipPath><clipPath id="505b9c1f34"><path d="M 665.210938 430.5625 L 741.675781 430.5625 L 741.675781 507.027344 L 665.210938 507.027344 Z M 665.210938 430.5625 " clip-rule="nonzero"/></clipPath><clipPath id="705a7c5070"><path d="M 703.511719 430.5625 C 682.359375 430.5625 665.210938 447.710938 665.210938 468.867188 C 665.210938 490.019531 682.359375 507.167969 703.511719 507.167969 C 724.667969 507.167969 741.816406 490.019531 741.816406 468.867188 C 741.816406 447.710938 724.667969 430.5625 703.511719 430.5625 Z M 703.511719 430.5625 " clip-rule="nonzero"/></clipPath><mask id="83e397cc92"><g filter="url(#9ecd4d628c)"><rect x="-102.45" width="1229.4" fill="#000000" y="-57.6" height="691.2" fill-opacity="0.2"/></g></mask><clipPath id="27a8a87913"><path d="M 0.707031 1.113281 L 57.011719 1.113281 L 57.011719 57.421875 L 0.707031 57.421875 Z M 0.707031 1.113281 " clip-rule="nonzero"/></clipPath><clipPath id="4dcc478780"><path d="M 28.859375 1.113281 C 13.3125 1.113281 0.707031 13.71875 0.707031 29.269531 C 0.707031 44.816406 13.3125 57.421875 28.859375 57.421875 C 44.410156 57.421875 57.011719 44.816406 57.011719 29.269531 C 57.011719 13.71875 44.410156 1.113281 28.859375 1.113281 Z M 28.859375 1.113281 " clip-rule="nonzero"/></clipPath><clipPath id="6e1bfd10aa"><path d="M 0.707031 0.113281 L 57.011719 0.113281 L 57.011719 56.421875 L 0.707031 56.421875 Z M 0.707031 0.113281 " clip-rule="nonzero"/></clipPath><clipPath id="02ab9dd6c2"><path d="M 28.859375 0.113281 C 13.3125 0.113281 0.707031 12.71875 0.707031 28.269531 C 0.707031 43.816406 13.3125 56.421875 28.859375 56.421875 C 44.410156 56.421875 57.011719 43.816406 57.011719 28.269531 C 57.011719 12.71875 44.410156 0.113281 28.859375 0.113281 Z M 28.859375 0.113281 " clip-rule="nonzero"/></clipPath><clipPath id="6addde81b8"><rect x="0" width="58" y="0" height="57"/></clipPath><clipPath id="9cdb6e7b47"><rect x="0" width="58" y="0" height="58"/></clipPath><mask id="bb3f925eb6"><g filter="url(#9ecd4d628c)"><rect x="-102.45" width="1229.4" fill="#000000" y="-57.6" height="691.2" fill-opacity="0.15"/></g></mask><clipPath id="4b1106d95e"><path d="M 0.152344 0.222656 L 32.542969 0.222656 L 32.542969 32.613281 L 0.152344 32.613281 Z M 0.152344 0.222656 " clip-rule="nonzero"/></clipPath><clipPath id="55351fc482"><path d="M 16.347656 0.222656 C 7.402344 0.222656 0.152344 7.472656 0.152344 16.417969 C 0.152344 25.363281 7.402344 32.613281 16.347656 32.613281 C 25.292969 32.613281 32.542969 25.363281 32.542969 16.417969 C 32.542969 7.472656 25.292969 0.222656 16.347656 0.222656 Z M 16.347656 0.222656 " clip-rule="nonzero"/></clipPath><clipPath id="ea2f8ee710"><path d="M 0.152344 0.222656 L 32.542969 0.222656 L 32.542969 32.613281 L 0.152344 32.613281 Z M 0.152344 0.222656 " clip-rule="nonzero"/></clipPath><clipPath id="4c0db94e64"><path d="M 16.347656 0.222656 C 7.402344 0.222656 0.152344 7.472656 0.152344 16.417969 C 0.152344 25.363281 7.402344 32.613281 16.347656 32.613281 C 25.292969 32.613281 32.542969 25.363281 32.542969 16.417969 C 32.542969 7.472656 25.292969 0.222656 16.347656 0.222656 Z M 16.347656 0.222656 " clip-rule="nonzero"/></clipPath><clipPath id="f9b3d319ab"><rect x="0" width="33" y="0" height="33"/></clipPath><clipPath id="b6296785b5"><rect x="0" width="33" y="0" height="33"/></clipPath><mask id="c31a8e7a72"><g filter="url(#9ecd4d628c)"><rect x="-102.45" width="1229.4" fill="#000000" y="-57.6" height="691.2" fill-opacity="0.15"/></g></mask><clipPath id="410350f0a2"><path d="M 0.6875 0.957031 L 18.859375 0.957031 L 18.859375 19.132812 L 0.6875 19.132812 Z M 0.6875 0.957031 " clip-rule="nonzero"/></clipPath><clipPath id="56335d0f14"><path d="M 9.773438 0.957031 C 4.753906 0.957031 0.6875 5.027344 0.6875 10.042969 C 0.6875 15.0625 4.753906 19.132812 9.773438 19.132812 C 14.792969 19.132812 18.859375 15.0625 18.859375 10.042969 C 18.859375 5.027344 14.792969 0.957031 9.773438 0.957031 Z M 9.773438 0.957031 " clip-rule="nonzero"/></clipPath><clipPath id="8c026f6fc2"><path d="M 0.6875 0.957031 L 18.859375 0.957031 L 18.859375 19.132812 L 0.6875 19.132812 Z M 0.6875 0.957031 " clip-rule="nonzero"/></clipPath><clipPath id="4de93a75fd"><path d="M 9.773438 0.957031 C 4.753906 0.957031 0.6875 5.027344 0.6875 10.042969 C 0.6875 15.0625 4.753906 19.132812 9.773438 19.132812 C 14.792969 19.132812 18.859375 15.0625 18.859375 10.042969 C 18.859375 5.027344 14.792969 0.957031 9.773438 0.957031 Z M 9.773438 0.957031 " clip-rule="nonzero"/></clipPath><clipPath id="0324e7ec73"><rect x="0" width="19" y="0" height="20"/></clipPath><clipPath id="93c0658b21"><rect x="0" width="19" y="0" height="20"/></clipPath></defs><g clip-path="url(#74bc6e61a1)"><g clip-path="url(#3b99fa6cd3)"><g transform="matrix(1, 0, 0, 1, 665, 430)"><g clip-path="url(#7cd3482964)"><g clip-path="url(#5e5747c1fa)"><g clip-path="url(#e03a7c55aa)"><path fill="#401268" d="M 0.210938 0.5625 L 76.816406 0.5625 L 76.816406 77.167969 L 0.210938 77.167969 Z M 0.210938 0.5625 " fill-opacity="1" fill-rule="nonzero"/></g></g></g></g></g></g><g clip-path="url(#505b9c1f34)"><g clip-path="url(#705a7c5070)"><path stroke-linecap="butt" transform="matrix(0.749634, 0, 0, 0.749634, 665.211496, 430.563961)" fill="none" stroke-linejoin="miter" d="M 51.091888 -0.00194858 C 22.874998 -0.00194858 -0.000745683 22.873795 -0.000745683 51.095896 C -0.000745683 79.312787 22.874998 102.18853 51.091888 102.18853 C 79.313989 102.18853 102.189733 79.312787 102.189733 51.095896 C 102.189733 22.873795 79.313989 -0.00194858 51.091888 -0.00194858 Z M 51.091888 -0.00194858 " stroke="#200934" stroke-width="8" stroke-opacity="1" stroke-miterlimit="4"/></g></g><path stroke-linecap="butt" transform="matrix(0, -0.749634, 0.749634, 0, 703.441709, 430.562809)" fill="none" stroke-linejoin="miter" d="M 0.000412579 2.000572 L 354.50148 2.000572 " stroke="#3b3432" stroke-width="4" stroke-opacity="1" stroke-miterlimit="4"/><g mask="url(#83e397cc92)"><g transform="matrix(1, 0, 0, 1, 672, 437)"><g clip-path="url(#9cdb6e7b47)"><g clip-path="url(#27a8a87913)"><g clip-path="url(#4dcc478780)"><g transform="matrix(1, 0, 0, 1, 0, 1)"><g clip-path="url(#6addde81b8)"><g clip-path="url(#6e1bfd10aa)"><g clip-path="url(#02ab9dd6c2)"><path fill="#f2f0ef" d="M 0.707031 0.113281 L 57.011719 0.113281 L 57.011719 56.421875 L 0.707031 56.421875 Z M 0.707031 0.113281 " fill-opacity="1" fill-rule="nonzero"/></g></g></g></g></g></g></g></g></g><g mask="url(#bb3f925eb6)"><g transform="matrix(1, 0, 0, 1, 679, 443)"><g clip-path="url(#b6296785b5)"><g clip-path="url(#4b1106d95e)"><g clip-path="url(#55351fc482)"><g transform="matrix(1, 0, 0, 1, 0, -0.000000000000056843)"><g clip-path="url(#f9b3d319ab)"><g clip-path="url(#ea2f8ee710)"><g clip-path="url(#4c0db94e64)"><path fill="#f2f0ef" d="M 0.152344 0.222656 L 32.542969 0.222656 L 32.542969 32.613281 L 0.152344 32.613281 Z M 0.152344 0.222656 " fill-opacity="1" fill-rule="nonzero"/></g></g></g></g></g></g></g></g></g><g mask="url(#c31a8e7a72)"><g transform="matrix(1, 0, 0, 1, 682, 446)"><g clip-path="url(#93c0658b21)"><g clip-path="url(#410350f0a2)"><g clip-path="url(#56335d0f14)"><g transform="matrix(1, 0, 0, 1, 0, -0.000000000000056843)"><g clip-path="url(#0324e7ec73)"><g clip-path="url(#8c026f6fc2)"><g clip-path="url(#4de93a75fd)"><path fill="#f2f0ef" d="M 0.6875 0.957031 L 18.859375 0.957031 L 18.859375 19.132812 L 0.6875 19.132812 Z M 0.6875 0.957031 " fill-opacity="1" fill-rule="nonzero"/></g></g></g></g></g></g></g></g></g></svg>