<svg xmlns="http://www.w3.org/2000/svg" xmlns:xlink="http://www.w3.org/1999/xlink" width="1366" zoomAndPan="magnify" viewBox="0 0 1024.5 576" height="768" preserveAspectRatio="xMidYMid meet" version="1.0"><defs><filter x="0%" y="0%" width="100%" height="100%" id="ef35a12ef9"><feColorMatrix values="0 0 0 0 1 0 0 0 0 1 0 0 0 0 1 0 0 0 1 0" color-interpolation-filters="sRGB"/></filter><clipPath id="43e203c6d7"><path d="M 282.183594 430.5625 L 358.789062 430.5625 L 358.789062 507.167969 L 282.183594 507.167969 Z M 282.183594 430.5625 " clip-rule="nonzero"/></clipPath><clipPath id="1c5a0aa244"><path d="M 320.484375 430.5625 C 299.332031 430.5625 282.183594 447.710938 282.183594 468.867188 C 282.183594 490.019531 299.332031 507.167969 320.484375 507.167969 C 341.640625 507.167969 358.789062 490.019531 358.789062 468.867188 C 358.789062 447.710938 341.640625 430.5625 320.484375 430.5625 Z M 320.484375 430.5625 " clip-rule="nonzero"/></clipPath><clipPath id="04f810aa67"><path d="M 0.183594 0.5625 L 76.789062 0.5625 L 76.789062 77.167969 L 0.183594 77.167969 Z M 0.183594 0.5625 " clip-rule="nonzero"/></clipPath><clipPath id="d4a1cc4250"><path d="M 38.484375 0.5625 C 17.332031 0.5625 0.183594 17.710938 0.183594 38.867188 C 0.183594 60.019531 17.332031 77.167969 38.484375 77.167969 C 59.640625 77.167969 76.789062 60.019531 76.789062 38.867188 C 76.789062 17.710938 59.640625 0.5625 38.484375 0.5625 Z M 38.484375 0.5625 " clip-rule="nonzero"/></clipPath><clipPath id="88aca164ec"><rect x="0" width="77" y="0" height="78"/></clipPath><clipPath id="f616d6b422"><path d="M 282.183594 430.5625 L 358.644531 430.5625 L 358.644531 507.027344 L 282.183594 507.027344 Z M 282.183594 430.5625 " clip-rule="nonzero"/></clipPath><clipPath id="70617c2672"><path d="M 320.484375 430.5625 C 299.332031 430.5625 282.183594 447.710938 282.183594 468.867188 C 282.183594 490.019531 299.332031 507.167969 320.484375 507.167969 C 341.636719 507.167969 358.785156 490.019531 358.785156 468.867188 C 358.785156 447.710938 341.636719 430.5625 320.484375 430.5625 Z M 320.484375 430.5625 " clip-rule="nonzero"/></clipPath><mask id="280ca53678"><g filter="url(#ef35a12ef9)"><rect x="-102.45" width="1229.4" fill="#000000" y="-57.6" height="691.2" fill-opacity="0.2"/></g></mask><clipPath id="0307c3802a"><path d="M 0.96875 0.863281 L 57.273438 0.863281 L 57.273438 57.167969 L 0.96875 57.167969 Z M 0.96875 0.863281 " clip-rule="nonzero"/></clipPath><clipPath id="e1c2605864"><path d="M 29.121094 0.863281 C 13.570312 0.863281 0.96875 13.46875 0.96875 29.015625 C 0.96875 44.566406 13.570312 57.167969 29.121094 57.167969 C 44.667969 57.167969 57.273438 44.566406 57.273438 29.015625 C 57.273438 13.46875 44.667969 0.863281 29.121094 0.863281 Z M 29.121094 0.863281 " clip-rule="nonzero"/></clipPath><clipPath id="244e70acee"><path d="M 0.96875 0.863281 L 57.273438 0.863281 L 57.273438 57.167969 L 0.96875 57.167969 Z M 0.96875 0.863281 " clip-rule="nonzero"/></clipPath><clipPath id="48e77c5803"><path d="M 29.121094 0.863281 C 13.570312 0.863281 0.96875 13.46875 0.96875 29.015625 C 0.96875 44.566406 13.570312 57.167969 29.121094 57.167969 C 44.667969 57.167969 57.273438 44.566406 57.273438 29.015625 C 57.273438 13.46875 44.667969 0.863281 29.121094 0.863281 Z M 29.121094 0.863281 " clip-rule="nonzero"/></clipPath><clipPath id="685648f08b"><rect x="0" width="58" y="0" height="58"/></clipPath><clipPath id="9223be12a2"><rect x="0" width="58" y="0" height="58"/></clipPath><mask id="8147a2267f"><g filter="url(#ef35a12ef9)"><rect x="-102.45" width="1229.4" fill="#000000" y="-57.6" height="691.2" fill-opacity="0.15"/></g></mask><clipPath id="8abbf4b113"><path d="M 0.410156 0.972656 L 32.804688 0.972656 L 32.804688 33.363281 L 0.410156 33.363281 Z M 0.410156 0.972656 " clip-rule="nonzero"/></clipPath><clipPath id="a4dc78aa9e"><path d="M 16.609375 0.972656 C 7.664062 0.972656 0.410156 8.222656 0.410156 17.167969 C 0.410156 26.113281 7.664062 33.363281 16.609375 33.363281 C 25.550781 33.363281 32.804688 26.113281 32.804688 17.167969 C 32.804688 8.222656 25.550781 0.972656 16.609375 0.972656 Z M 16.609375 0.972656 " clip-rule="nonzero"/></clipPath><clipPath id="044270975a"><path d="M 0.410156 0.972656 L 32.804688 0.972656 L 32.804688 33.363281 L 0.410156 33.363281 Z M 0.410156 0.972656 " clip-rule="nonzero"/></clipPath><clipPath id="2f5a8a8335"><path d="M 16.609375 0.972656 C 7.664062 0.972656 0.410156 8.222656 0.410156 17.167969 C 0.410156 26.113281 7.664062 33.363281 16.609375 33.363281 C 25.550781 33.363281 32.804688 26.113281 32.804688 17.167969 C 32.804688 8.222656 25.550781 0.972656 16.609375 0.972656 Z M 16.609375 0.972656 " clip-rule="nonzero"/></clipPath><clipPath id="8ecab163bc"><rect x="0" width="33" y="0" height="34"/></clipPath><clipPath id="e834721727"><rect x="0" width="33" y="0" height="34"/></clipPath><mask id="6596a3471e"><g filter="url(#ef35a12ef9)"><rect x="-102.45" width="1229.4" fill="#000000" y="-57.6" height="691.2" fill-opacity="0.15"/></g></mask><clipPath id="a57168e734"><path d="M 0.945312 0.707031 L 19.121094 0.707031 L 19.121094 18.878906 L 0.945312 18.878906 Z M 0.945312 0.707031 " clip-rule="nonzero"/></clipPath><clipPath id="51dd69cc84"><path d="M 10.035156 0.707031 C 5.015625 0.707031 0.945312 4.777344 0.945312 9.792969 C 0.945312 14.8125 5.015625 18.878906 10.035156 18.878906 C 15.050781 18.878906 19.121094 14.8125 19.121094 9.792969 C 19.121094 4.777344 15.050781 0.707031 10.035156 0.707031 Z M 10.035156 0.707031 " clip-rule="nonzero"/></clipPath><clipPath id="abe424168a"><path d="M 0.945312 0.707031 L 19.121094 0.707031 L 19.121094 18.878906 L 0.945312 18.878906 Z M 0.945312 0.707031 " clip-rule="nonzero"/></clipPath><clipPath id="73c190b793"><path d="M 10.035156 0.707031 C 5.015625 0.707031 0.945312 4.777344 0.945312 9.792969 C 0.945312 14.8125 5.015625 18.878906 10.035156 18.878906 C 15.050781 18.878906 19.121094 14.8125 19.121094 9.792969 C 19.121094 4.777344 15.050781 0.707031 10.035156 0.707031 Z M 10.035156 0.707031 " clip-rule="nonzero"/></clipPath><clipPath id="1a0d7dfdab"><rect x="0" width="20" y="0" height="19"/></clipPath><clipPath id="a827c5c37a"><rect x="0" width="20" y="0" height="19"/></clipPath></defs><g clip-path="url(#43e203c6d7)"><g clip-path="url(#1c5a0aa244)"><g transform="matrix(1, 0, 0, 1, 282, 430)"><g clip-path="url(#88aca164ec)"><g clip-path="url(#04f810aa67)"><g clip-path="url(#d4a1cc4250)"><path fill="#7a0000" d="M 0.183594 0.5625 L 76.789062 0.5625 L 76.789062 77.167969 L 0.183594 77.167969 Z M 0.183594 0.5625 " fill-opacity="1" fill-rule="nonzero"/></g></g></g></g></g></g><g clip-path="url(#f616d6b422)"><g clip-path="url(#70617c2672)"><path stroke-linecap="butt" transform="matrix(0.749634, 0, 0, 0.749634, 282.182983, 430.563961)" fill="none" stroke-linejoin="miter" d="M 51.093449 -0.00194858 C 22.876558 -0.00194858 0.000814968 22.873795 0.000814968 51.095896 C 0.000814968 79.312787 22.876558 102.18853 51.093449 102.18853 C 79.310339 102.18853 102.186082 79.312787 102.186082 51.095896 C 102.186082 22.873795 79.310339 -0.00194858 51.093449 -0.00194858 Z M 51.093449 -0.00194858 " stroke="#3d0000" stroke-width="8" stroke-opacity="1" stroke-miterlimit="4"/></g></g><path stroke-linecap="butt" transform="matrix(0, -0.749634, 0.749634, 0, 320.556197, 430.562809)" fill="none" stroke-linejoin="miter" d="M 0.000412579 1.998963 L 354.50148 1.998963 " stroke="#3b3432" stroke-width="4" stroke-opacity="1" stroke-miterlimit="4"/><g mask="url(#280ca53678)"><g transform="matrix(1, 0, 0, 1, 289, 438)"><g clip-path="url(#9223be12a2)"><g clip-path="url(#0307c3802a)"><g clip-path="url(#e1c2605864)"><g transform="matrix(1, 0, 0, 1, 0, -0.000000000000056843)"><g clip-path="url(#685648f08b)"><g clip-path="url(#244e70acee)"><g clip-path="url(#48e77c5803)"><path fill="#f2f0ef" d="M 0.96875 0.863281 L 57.273438 0.863281 L 57.273438 57.167969 L 0.96875 57.167969 Z M 0.96875 0.863281 " fill-opacity="1" fill-rule="nonzero"/></g></g></g></g></g></g></g></g></g><g mask="url(#8147a2267f)"><g transform="matrix(1, 0, 0, 1, 296, 443)"><g clip-path="url(#e834721727)"><g clip-path="url(#8abbf4b113)"><g clip-path="url(#a4dc78aa9e)"><g transform="matrix(1, 0, 0, 1, 0, -0.000000000000056843)"><g clip-path="url(#8ecab163bc)"><g clip-path="url(#044270975a)"><g clip-path="url(#2f5a8a8335)"><path fill="#f2f0ef" d="M 0.410156 0.972656 L 32.804688 0.972656 L 32.804688 33.363281 L 0.410156 33.363281 Z M 0.410156 0.972656 " fill-opacity="1" fill-rule="nonzero"/></g></g></g></g></g></g></g></g></g><g mask="url(#6596a3471e)"><g transform="matrix(1, 0, 0, 1, 299, 447)"><g clip-path="url(#a827c5c37a)"><g clip-path="url(#a57168e734)"><g clip-path="url(#51dd69cc84)"><g transform="matrix(1, 0, 0, 1, 0, -0.000000000000056843)"><g clip-path="url(#1a0d7dfdab)"><g clip-path="url(#abe424168a)"><g clip-path="url(#73c190b793)"><path fill="#f2f0ef" d="M 0.945312 0.707031 L 19.121094 0.707031 L 19.121094 18.878906 L 0.945312 18.878906 Z M 0.945312 0.707031 " fill-opacity="1" fill-rule="nonzero"/></g></g></g></g></g></g></g></g></g></svg>