<svg xmlns="http://www.w3.org/2000/svg" xmlns:xlink="http://www.w3.org/1999/xlink" width="1366" zoomAndPan="magnify" viewBox="0 0 1024.5 576" height="768" preserveAspectRatio="xMidYMid meet" version="1.0"><defs><filter x="0%" y="0%" width="100%" height="100%" id="c80153a1da"><feColorMatrix values="0 0 0 0 1 0 0 0 0 1 0 0 0 0 1 0 0 0 1 0" color-interpolation-filters="sRGB"/></filter><clipPath id="0ff6ad26f9"><path d="M 435.394531 430.5625 L 512 430.5625 L 512 507.167969 L 435.394531 507.167969 Z M 435.394531 430.5625 " clip-rule="nonzero"/></clipPath><clipPath id="8efca4f133"><path d="M 473.695312 430.5625 C 452.542969 430.5625 435.394531 447.710938 435.394531 468.867188 C 435.394531 490.019531 452.542969 507.167969 473.695312 507.167969 C 494.851562 507.167969 512 490.019531 512 468.867188 C 512 447.710938 494.851562 430.5625 473.695312 430.5625 Z M 473.695312 430.5625 " clip-rule="nonzero"/></clipPath><clipPath id="4f6b75ff1a"><path d="M 0.394531 0.5625 L 77 0.5625 L 77 77.167969 L 0.394531 77.167969 Z M 0.394531 0.5625 " clip-rule="nonzero"/></clipPath><clipPath id="fa7b29d012"><path d="M 38.695312 0.5625 C 17.542969 0.5625 0.394531 17.710938 0.394531 38.867188 C 0.394531 60.019531 17.542969 77.167969 38.695312 77.167969 C 59.851562 77.167969 77 60.019531 77 38.867188 C 77 17.710938 59.851562 0.5625 38.695312 0.5625 Z M 38.695312 0.5625 " clip-rule="nonzero"/></clipPath><clipPath id="2656da69d4"><rect x="0" width="77" y="0" height="78"/></clipPath><clipPath id="30efa7972d"><path d="M 435.394531 430.5625 L 511.855469 430.5625 L 511.855469 507.027344 L 435.394531 507.027344 Z M 435.394531 430.5625 " clip-rule="nonzero"/></clipPath><clipPath id="7a6cc7e3d7"><path d="M 473.695312 430.5625 C 452.542969 430.5625 435.394531 447.710938 435.394531 468.867188 C 435.394531 490.019531 452.542969 507.167969 473.695312 507.167969 C 494.847656 507.167969 511.996094 490.019531 511.996094 468.867188 C 511.996094 447.710938 494.847656 430.5625 473.695312 430.5625 Z M 473.695312 430.5625 " clip-rule="nonzero"/></clipPath><mask id="2fa7a83802"><g filter="url(#c80153a1da)"><rect x="-102.45" width="1229.4" fill="#000000" y="-57.6" height="691.2" fill-opacity="0.2"/></g></mask><clipPath id="cf35477e89"><path d="M 0.890625 1.113281 L 57.195312 1.113281 L 57.195312 57.421875 L 0.890625 57.421875 Z M 0.890625 1.113281 " clip-rule="nonzero"/></clipPath><clipPath id="48ef8b411c"><path d="M 29.042969 1.113281 C 13.496094 1.113281 0.890625 13.71875 0.890625 29.269531 C 0.890625 44.816406 13.496094 57.421875 29.042969 57.421875 C 44.589844 57.421875 57.195312 44.816406 57.195312 29.269531 C 57.195312 13.71875 44.589844 1.113281 29.042969 1.113281 Z M 29.042969 1.113281 " clip-rule="nonzero"/></clipPath><clipPath id="0a4fa7618e"><path d="M 0.890625 0.113281 L 57.195312 0.113281 L 57.195312 56.421875 L 0.890625 56.421875 Z M 0.890625 0.113281 " clip-rule="nonzero"/></clipPath><clipPath id="4ad3e7a8fd"><path d="M 29.042969 0.113281 C 13.496094 0.113281 0.890625 12.71875 0.890625 28.269531 C 0.890625 43.816406 13.496094 56.421875 29.042969 56.421875 C 44.589844 56.421875 57.195312 43.816406 57.195312 28.269531 C 57.195312 12.71875 44.589844 0.113281 29.042969 0.113281 Z M 29.042969 0.113281 " clip-rule="nonzero"/></clipPath><clipPath id="11efea9593"><rect x="0" width="58" y="0" height="57"/></clipPath><clipPath id="9f2505b46f"><rect x="0" width="58" y="0" height="58"/></clipPath><mask id="2796bcdec7"><g filter="url(#c80153a1da)"><rect x="-102.45" width="1229.4" fill="#000000" y="-57.6" height="691.2" fill-opacity="0.15"/></g></mask><clipPath id="137da95656"><path d="M 0.335938 0.222656 L 32.726562 0.222656 L 32.726562 32.613281 L 0.335938 32.613281 Z M 0.335938 0.222656 " clip-rule="nonzero"/></clipPath><clipPath id="f48b1de262"><path d="M 16.53125 0.222656 C 7.585938 0.222656 0.335938 7.472656 0.335938 16.417969 C 0.335938 25.363281 7.585938 32.613281 16.53125 32.613281 C 25.476562 32.613281 32.726562 25.363281 32.726562 16.417969 C 32.726562 7.472656 25.476562 0.222656 16.53125 0.222656 Z M 16.53125 0.222656 " clip-rule="nonzero"/></clipPath><clipPath id="aaa7f3bc44"><path d="M 0.335938 0.222656 L 32.726562 0.222656 L 32.726562 32.613281 L 0.335938 32.613281 Z M 0.335938 0.222656 " clip-rule="nonzero"/></clipPath><clipPath id="ae419a2203"><path d="M 16.53125 0.222656 C 7.585938 0.222656 0.335938 7.472656 0.335938 16.417969 C 0.335938 25.363281 7.585938 32.613281 16.53125 32.613281 C 25.476562 32.613281 32.726562 25.363281 32.726562 16.417969 C 32.726562 7.472656 25.476562 0.222656 16.53125 0.222656 Z M 16.53125 0.222656 " clip-rule="nonzero"/></clipPath><clipPath id="66846658ef"><rect x="0" width="33" y="0" height="33"/></clipPath><clipPath id="839aac5e5f"><rect x="0" width="33" y="0" height="33"/></clipPath><mask id="797b2d5e3f"><g filter="url(#c80153a1da)"><rect x="-102.45" width="1229.4" fill="#000000" y="-57.6" height="691.2" fill-opacity="0.15"/></g></mask><clipPath id="3284fe9325"><path d="M 0.871094 0.957031 L 19.042969 0.957031 L 19.042969 19.132812 L 0.871094 19.132812 Z M 0.871094 0.957031 " clip-rule="nonzero"/></clipPath><clipPath id="87602f0d07"><path d="M 9.957031 0.957031 C 4.9375 0.957031 0.871094 5.027344 0.871094 10.042969 C 0.871094 15.0625 4.9375 19.132812 9.957031 19.132812 C 14.976562 19.132812 19.042969 15.0625 19.042969 10.042969 C 19.042969 5.027344 14.976562 0.957031 9.957031 0.957031 Z M 9.957031 0.957031 " clip-rule="nonzero"/></clipPath><clipPath id="4853410dcd"><path d="M 0.871094 0.957031 L 19.042969 0.957031 L 19.042969 19.132812 L 0.871094 19.132812 Z M 0.871094 0.957031 " clip-rule="nonzero"/></clipPath><clipPath id="e6986885e5"><path d="M 9.957031 0.957031 C 4.9375 0.957031 0.871094 5.027344 0.871094 10.042969 C 0.871094 15.0625 4.9375 19.132812 9.957031 19.132812 C 14.976562 19.132812 19.042969 15.0625 19.042969 10.042969 C 19.042969 5.027344 14.976562 0.957031 9.957031 0.957031 Z M 9.957031 0.957031 " clip-rule="nonzero"/></clipPath><clipPath id="b4c5b8ed45"><rect x="0" width="20" y="0" height="20"/></clipPath><clipPath id="9b20f1c48c"><rect x="0" width="20" y="0" height="20"/></clipPath></defs><g clip-path="url(#0ff6ad26f9)"><g clip-path="url(#8efca4f133)"><g transform="matrix(1, 0, 0, 1, 435, 430)"><g clip-path="url(#2656da69d4)"><g clip-path="url(#4f6b75ff1a)"><g clip-path="url(#fa7b29d012)"><path fill="#cca300" d="M 0.394531 0.5625 L 77 0.5625 L 77 77.167969 L 0.394531 77.167969 Z M 0.394531 0.5625 " fill-opacity="1" fill-rule="nonzero"/></g></g></g></g></g></g><g clip-path="url(#30efa7972d)"><g clip-path="url(#7a6cc7e3d7)"><path stroke-linecap="butt" transform="matrix(0.749634, 0, 0, 0.749634, 435.394403, 430.563961)" fill="none" stroke-linejoin="miter" d="M 51.092805 -0.00194858 C 22.875915 -0.00194858 0.000171508 22.873795 0.000171508 51.095896 C 0.000171508 79.312787 22.875915 102.18853 51.092805 102.18853 C 79.309696 102.18853 102.185439 79.312787 102.185439 51.095896 C 102.185439 22.873795 79.309696 -0.00194858 51.092805 -0.00194858 Z M 51.092805 -0.00194858 " stroke="#7a6200" stroke-width="8" stroke-opacity="1" stroke-miterlimit="4"/></g></g><path stroke-linecap="butt" transform="matrix(0, -0.749634, 0.749634, 0, 473.6961, 430.562809)" fill="none" stroke-linejoin="miter" d="M 0.000412579 1.999925 L 354.50148 1.999925 " stroke="#3b3432" stroke-width="4" stroke-opacity="1" stroke-miterlimit="4"/><g mask="url(#2fa7a83802)"><g transform="matrix(1, 0, 0, 1, 442, 437)"><g clip-path="url(#9f2505b46f)"><g clip-path="url(#cf35477e89)"><g clip-path="url(#48ef8b411c)"><g transform="matrix(1, 0, 0, 1, 0, 1)"><g clip-path="url(#11efea9593)"><g clip-path="url(#0a4fa7618e)"><g clip-path="url(#4ad3e7a8fd)"><path fill="#f2f0ef" d="M 0.890625 0.113281 L 57.195312 0.113281 L 57.195312 56.421875 L 0.890625 56.421875 Z M 0.890625 0.113281 " fill-opacity="1" fill-rule="nonzero"/></g></g></g></g></g></g></g></g></g><g mask="url(#2796bcdec7)"><g transform="matrix(1, 0, 0, 1, 449, 443)"><g clip-path="url(#839aac5e5f)"><g clip-path="url(#137da95656)"><g clip-path="url(#f48b1de262)"><g transform="matrix(1, 0, 0, 1, 0, -0.000000000000056843)"><g clip-path="url(#66846658ef)"><g clip-path="url(#aaa7f3bc44)"><g clip-path="url(#ae419a2203)"><path fill="#f2f0ef" d="M 0.335938 0.222656 L 32.726562 0.222656 L 32.726562 32.613281 L 0.335938 32.613281 Z M 0.335938 0.222656 " fill-opacity="1" fill-rule="nonzero"/></g></g></g></g></g></g></g></g></g><g mask="url(#797b2d5e3f)"><g transform="matrix(1, 0, 0, 1, 452, 446)"><g clip-path="url(#9b20f1c48c)"><g clip-path="url(#3284fe9325)"><g clip-path="url(#87602f0d07)"><g transform="matrix(1, 0, 0, 1, 0, -0.000000000000056843)"><g clip-path="url(#b4c5b8ed45)"><g clip-path="url(#4853410dcd)"><g clip-path="url(#e6986885e5)"><path fill="#f2f0ef" d="M 0.871094 0.957031 L 19.042969 0.957031 L 19.042969 19.132812 L 0.871094 19.132812 Z M 0.871094 0.957031 " fill-opacity="1" fill-rule="nonzero"/></g></g></g></g></g></g></g></g></g></svg>