<svg xmlns="http://www.w3.org/2000/svg" xmlns:xlink="http://www.w3.org/1999/xlink" width="1366" zoomAndPan="magnify" viewBox="0 0 1024.5 576" height="768" preserveAspectRatio="xMidYMid meet" version="1.0"><defs><clipPath id="2549f0a679"><path d="M 296.542969 73 L 723 73 L 723 500 L 296.542969 500 Z M 296.542969 73 " clip-rule="nonzero"/></clipPath></defs><g clip-path="url(#2549f0a679)"><path fill="#0a66c2" d="M 659.890625 436.636719 L 596.710938 436.636719 L 596.710938 337.664062 C 596.710938 314.074219 596.289062 283.6875 563.855469 283.6875 C 531.421875 283.6875 525.914062 309.410156 525.914062 335.957031 L 525.914062 436.636719 L 462.734375 436.636719 L 462.734375 233.105469 L 523.398438 233.105469 L 523.398438 260.917969 L 524.242188 260.917969 C 536.609375 239.761719 559.613281 227.132812 584.082031 228.035156 C 648.128906 228.035156 659.929688 270.171875 659.929688 324.976562 L 659.929688 436.636719 Z M 391.410156 205.289062 C 371.164062 205.289062 354.734375 188.878906 354.734375 168.628906 C 354.734375 148.375 371.144531 131.945312 391.390625 131.945312 C 411.640625 131.945312 428.066406 148.355469 428.066406 168.605469 C 428.066406 188.859375 411.660156 205.289062 391.410156 205.289062 M 423.019531 436.636719 L 359.761719 436.636719 L 359.761719 233.105469 L 423.019531 233.105469 Z M 691.398438 73.238281 L 328.011719 73.238281 C 310.839844 73.054688 296.742188 86.8125 296.542969 103.988281 L 296.542969 468.953125 C 296.742188 486.148438 310.820312 499.90625 328.011719 499.726562 L 691.398438 499.726562 C 708.609375 499.945312 722.746094 486.171875 722.988281 468.953125 L 722.988281 103.96875 C 722.746094 86.753906 708.609375 72.996094 691.398438 73.21875 " fill-opacity="1" fill-rule="nonzero"/></g></svg>